{
DisplayStrings = (
"nrhmuijflt\012noaecspboqdg ijfltceuad\012kxzwvy\012IftnHLEFTZH\012EHNMAVvYyWwMHNKkXx\012HNMAVWYZK\012HoOQCcGZH\012DKRPBHE\012SsOJjtr JSC\01201742539C68\0120HOT17ZH4ANM\012SsCc27Z0\012Z5SsCcB308B\01253SsCc906bg",

glyphs = (
{
glyphname = A;
lastChange = "2014-08-27 12:05:06 +0100";
layers = (
{
anchors = (
{
name = ogonek;
position = "{641, 0}";
},
{
name = top;
position = "{335, 660}";
}
);
layerId = "90FEB760-6DE5-46E5-A8E9-582C63BAB3AD";
name = Regular;
paths = (
{
closed = 1;
nodes = (
"302 660 LINE",
"555 0 LINE",
"641 0 LINE",
"383 660 LINE"
);
},
{
closed = 1;
nodes = (
"288 660 LINE",
"29 0 LINE",
"115 0 LINE",
"368 660 LINE"
);
},
{
closed = 1;
nodes = (
"157 258 LINE",
"157 183 LINE",
"510 183 LINE",
"510 258 LINE"
);
}
);
width = 670;
}
);
unicode = 0041;
},
{
glyphname = AE;
lastChange = "2014-08-27 12:05:06 +0100";
layers = (
{
layerId = "90FEB760-6DE5-46E5-A8E9-582C63BAB3AD";
name = Regular;
paths = (
{
closed = 1;
nodes = (
"188 258 LINE",
"148 183 LINE",
"483 183 LINE",
"483 258 LINE"
);
},
{
closed = 1;
nodes = (
"443 660 LINE",
"443 0 LINE",
"523 0 LINE",
"523 660 LINE"
);
},
{
closed = 1;
nodes = (
"485 75 LINE",
"485 0 LINE",
"894 0 LINE",
"894 75 LINE"
);
},
{
closed = 1;
nodes = (
"485 372 LINE",
"485 297 LINE",
"794 297 LINE",
"794 372 LINE"
);
},
{
closed = 1;
nodes = (
"421 660 LINE",
"381 585 LINE",
"879 585 LINE",
"879 660 LINE"
);
},
{
closed = 1;
nodes = (
"380 660 LINE",
"-8 0 LINE",
"84 0 LINE",
"466 660 LINE"
);
}
);
width = 953;
}
);
rightMetricsKey = E;
unicode = 00C6;
},
{
glyphname = B;
lastChange = "2014-08-27 12:05:06 +0100";
layers = (
{
layerId = "90FEB760-6DE5-46E5-A8E9-582C63BAB3AD";
name = Regular;
paths = (
{
closed = 1;
nodes = (
"150 350 LINE",
"150 295 LINE",
"363 295 LINE SMOOTH",
"457 295 OFFCURVE",
"503 255 OFFCURVE",
"503 185 CURVE SMOOTH",
"503 115 OFFCURVE",
"457 75 OFFCURVE",
"363 75 CURVE SMOOTH",
"150 75 LINE",
"150 0 LINE",
"344 0 LINE SMOOTH",
"500 0 OFFCURVE",
"587 73 OFFCURVE",
"587 185 CURVE SMOOTH",
"587 285 OFFCURVE",
"498 350 OFFCURVE",
"362 350 CURVE SMOOTH"
);
},
{
closed = 1;
nodes = (
"110 660 LINE",
"110 0 LINE",
"190 0 LINE",
"190 660 LINE"
);
},
{
closed = 1;
nodes = (
"150 660 LINE",
"150 585 LINE",
"346 585 LINE SMOOTH",
"440 585 OFFCURVE",
"486 550 OFFCURVE",
"486 478 CURVE SMOOTH",
"486 405 OFFCURVE",
"440 370 OFFCURVE",
"346 370 CURVE SMOOTH",
"150 370 LINE",
"150 315 LINE",
"345 315 LINE SMOOTH",
"481 315 OFFCURVE",
"570 377 OFFCURVE",
"570 478 CURVE SMOOTH",
"570 590 OFFCURVE",
"501 660 OFFCURVE",
"345 660 CURVE SMOOTH"
);
}
);
width = 661;
}
);
leftMetricsKey = I;
unicode = 0042;
},
{
glyphname = C;
lastChange = "2014-08-27 12:05:06 +0100";
layers = (
{
anchors = (
{
name = bottom;
position = "{385, 0}";
},
{
name = top;
position = "{384, 660}";
}
);
layerId = "90FEB760-6DE5-46E5-A8E9-582C63BAB3AD";
name = Regular;
paths = (
{
closed = 1;
nodes = (
"200 670 OFFCURVE",
"80 539 OFFCURVE",
"80 330 CURVE SMOOTH",
"80 121 OFFCURVE",
"198 -10 OFFCURVE",
"386 -10 CURVE SMOOTH",
"510 -10 OFFCURVE",
"610 56 OFFCURVE",
"652 169 CURVE",
"572 199 LINE",
"543 110 OFFCURVE",
"474 65 OFFCURVE",
"386 65 CURVE SMOOTH",
"249 65 OFFCURVE",
"164 164 OFFCURVE",
"164 330 CURVE SMOOTH",
"164 497 OFFCURVE",
"255 595 OFFCURVE",
"390 595 CURVE SMOOTH",
"478 595 OFFCURVE",
"532 555 OFFCURVE",
"561 479 CURVE",
"640 516 LINE",
"598 616 OFFCURVE",
"512 670 OFFCURVE",
"384 670 CURVE SMOOTH"
);
}
);
width = 692;
}
);
leftMetricsKey = O;
unicode = 0043;
},
{
glyphname = D;
lastChange = "2014-08-27 12:05:06 +0100";
layers = (
{
anchors = (
{
name = center;
position = "{368, 330}";
},
{
name = top;
position = "{373, 660}";
}
);
layerId = "90FEB760-6DE5-46E5-A8E9-582C63BAB3AD";
name = Regular;
paths = (
{
closed = 1;
nodes = (
"150 660 LINE",
"150 585 LINE",
"331 585 LINE SMOOTH",
"482 585 OFFCURVE",
"571 490 OFFCURVE",
"571 330 CURVE SMOOTH",
"571 170 OFFCURVE",
"482 75 OFFCURVE",
"331 75 CURVE SMOOTH",
"150 75 LINE",
"150 0 LINE",
"323 0 LINE SMOOTH",
"530 0 OFFCURVE",
"655 118 OFFCURVE",
"655 330 CURVE SMOOTH",
"655 542 OFFCURVE",
"530 660 OFFCURVE",
"323 660 CURVE SMOOTH"
);
},
{
closed = 1;
nodes = (
"110 660 LINE",
"110 0 LINE",
"190 0 LINE",
"190 660 LINE"
);
}
);
width = 735;
}
);
leftMetricsKey = I;
rightMetricsKey = O;
unicode = 0044;
},
{
glyphname = E;
lastChange = "2014-08-27 12:05:06 +0100";
layers = (
{
anchors = (
{
name = bottom;
position = "{341, 0}";
},
{
name = ogonek;
position = "{588, 0}";
},
{
name = top;
position = "{341, 660}";
}
);
layerId = "90FEB760-6DE5-46E5-A8E9-582C63BAB3AD";
name = Regular;
paths = (
{
closed = 1;
nodes = (
"110 660 LINE",
"110 0 LINE",
"190 0 LINE",
"190 660 LINE"
);
},
{
closed = 1;
nodes = (
"152 75 LINE",
"152 0 LINE",
"588 0 LINE",
"588 75 LINE"
);
},
{
closed = 1;
nodes = (
"152 372 LINE",
"152 297 LINE",
"488 297 LINE",
"488 372 LINE"
);
},
{
closed = 1;
nodes = (
"152 660 LINE",
"152 585 LINE",
"573 585 LINE",
"573 660 LINE"
);
}
);
width = 647;
}
);
leftMetricsKey = I;
unicode = 0045;
},
{
glyphname = F;
lastChange = "2014-08-27 12:05:06 +0100";
layers = (
{
layerId = "90FEB760-6DE5-46E5-A8E9-582C63BAB3AD";
name = Regular;
paths = (
{
closed = 1;
nodes = (
"110 660 LINE",
"110 0 LINE",
"190 0 LINE",
"190 660 LINE"
);
},
{
closed = 1;
nodes = (
"152 372 LINE",
"152 297 LINE",
"488 297 LINE",
"488 372 LINE"
);
},
{
closed = 1;
nodes = (
"152 660 LINE",
"152 585 LINE",
"572 585 LINE",
"572 660 LINE"
);
}
);
width = 617;
}
);
leftMetricsKey = E;
unicode = 0046;
},
{
glyphname = G;
lastChange = "2014-08-27 12:05:06 +0100";
layers = (
{
anchors = (
{
name = bottom;
position = "{417, 0}";
},
{
name = top;
position = "{385, 660}";
}
);
layerId = "90FEB760-6DE5-46E5-A8E9-582C63BAB3AD";
name = Regular;
paths = (
{
closed = 1;
nodes = (
"203 670 OFFCURVE",
"80 539 OFFCURVE",
"80 330 CURVE SMOOTH",
"80 121 OFFCURVE",
"198 -10 OFFCURVE",
"386 -10 CURVE SMOOTH",
"547 -10 OFFCURVE",
"630 85 OFFCURVE",
"630 224 CURVE",
"586 235 LINE",
"586 121 OFFCURVE",
"499 65 OFFCURVE",
"389 65 CURVE SMOOTH",
"242 65 OFFCURVE",
"164 164 OFFCURVE",
"164 330 CURVE SMOOTH",
"164 496 OFFCURVE",
"254 595 OFFCURVE",
"388 595 CURVE SMOOTH",
"480 595 OFFCURVE",
"550 555 OFFCURVE",
"579 479 CURVE",
"652 519 LINE",
"601 621 OFFCURVE",
"519 670 OFFCURVE",
"388 670 CURVE SMOOTH"
);
},
{
closed = 1;
nodes = (
"586 333 LINE",
"586 143 LINE",
"604 0 LINE",
"657 0 LINE",
"657 143 LINE",
"657 333 LINE"
);
},
{
closed = 1;
nodes = (
"374 333 LINE",
"374 258 LINE",
"657 258 LINE",
"657 333 LINE"
);
}
);
width = 721;
}
);
leftMetricsKey = O;
unicode = 0047;
},
{
glyphname = H;
lastChange = "2014-08-27 12:05:06 +0100";
layers = (
{
layerId = "90FEB760-6DE5-46E5-A8E9-582C63BAB3AD";
name = Regular;
paths = (
{
closed = 1;
nodes = (
"548 660 LINE",
"548 0 LINE",
"628 0 LINE",
"628 660 LINE"
);
},
{
closed = 1;
nodes = (
"110 660 LINE",
"110 0 LINE",
"190 0 LINE",
"190 660 LINE"
);
},
{
closed = 1;
nodes = (
"152 372 LINE",
"152 297 LINE",
"585 297 LINE",
"585 372 LINE"
);
}
);
width = 738;
}
);
leftMetricsKey = I;
rightMetricsKey = I;
unicode = 0048;
},
{
glyphname = I;
lastChange = "2014-08-27 12:05:06 +0100";
layers = (
{
anchors = (
{
name = ogonek;
position = "{190, 0}";
},
{
name = top;
position = "{150, 660}";
}
);
layerId = "90FEB760-6DE5-46E5-A8E9-582C63BAB3AD";
name = Regular;
paths = (
{
closed = 1;
nodes = (
"110 660 LINE",
"110 0 LINE",
"190 0 LINE",
"190 660 LINE"
);
}
);
width = 300;
}
);
unicode = 0049;
},
{
glyphname = J;
lastChange = "2014-08-27 12:05:06 +0100";
layers = (
{
layerId = "90FEB760-6DE5-46E5-A8E9-582C63BAB3AD";
name = Regular;
paths = (
{
closed = 1;
nodes = (
"387 660 LINE",
"387 246 LINE SMOOTH",
"387 128 OFFCURVE",
"353 65 OFFCURVE",
"240 65 CURVE SMOOTH",
"140 65 OFFCURVE",
"108 120 OFFCURVE",
"123 233 CURVE",
"49 218 LINE",
"23 79 OFFCURVE",
"95 -10 OFFCURVE",
"243 -10 CURVE SMOOTH",
"383 -10 OFFCURVE",
"466 78 OFFCURVE",
"466 226 CURVE SMOOTH",
"467 660 LINE"
);
}
);
width = 569;
}
);
rightMetricsKey = U;
unicode = 004A;
},
{
glyphname = K;
lastChange = "2014-08-27 12:05:06 +0100";
layers = (
{
anchors = (
{
name = bottom;
position = "{375, 0}";
},
{
name = top;
position = "{355, 660}";
}
);
layerId = "90FEB760-6DE5-46E5-A8E9-582C63BAB3AD";
name = Regular;
paths = (
{
closed = 1;
nodes = (
"522 660 LINE",
"150 279 LINE",
"150 171 LINE",
"627 660 LINE"
);
},
{
closed = 1;
nodes = (
"110 660 LINE",
"110 0 LINE",
"190 0 LINE",
"190 660 LINE"
);
},
{
closed = 1;
nodes = (
"281 371 LINE",
"534 0 LINE",
"630 0 LINE",
"347 416 LINE"
);
}
);
width = 669;
}
);
leftMetricsKey = I;
unicode = 004B;
},
{
glyphname = L;
lastChange = "2014-08-27 12:05:06 +0100";
layers = (
{
anchors = (
{
name = bottom;
position = "{364, 0}";
},
{
name = top;
position = "{150, 660}";
},
{
name = topright;
position = "{312, 730}";
}
);
layerId = "90FEB760-6DE5-46E5-A8E9-582C63BAB3AD";
name = Regular;
paths = (
{
closed = 1;
nodes = (
"110 660 LINE",
"110 0 LINE",
"190 0 LINE",
"190 660 LINE"
);
},
{
closed = 1;
nodes = (
"152 75 LINE",
"152 0 LINE",
"568 0 LINE",
"568 75 LINE"
);
}
);
width = 597;
}
);
leftMetricsKey = I;
rightMetricsKey = E;
unicode = 004C;
},
{
glyphname = Lslash;
lastChange = "2014-08-27 12:05:06 +0100";
layers = (
{
components = (
{
name = L;
transform = "{1, 0, 0, 1, 0, 0}";
}
);
layerId = "90FEB760-6DE5-46E5-A8E9-582C63BAB3AD";
name = Regular;
paths = (
{
closed = 1;
nodes = (
"3 289 LINE",
"3 206 LINE",
"365 448 LINE",
"365 531 LINE"
);
}
);
width = 597;
}
);
unicode = 0141;
},
{
glyphname = M;
lastChange = "2014-08-27 12:05:06 +0100";
layers = (
{
layerId = "90FEB760-6DE5-46E5-A8E9-582C63BAB3AD";
name = Regular;
paths = (
{
closed = 1;
nodes = (
"629 660 LINE",
"388 0 LINE",
"470 0 LINE",
"646 485 LINE",
"703 660 LINE"
);
},
{
closed = 1;
nodes = (
"110 660 LINE",
"110 415 LINE",
"110 0 LINE",
"190 0 LINE",
"190 415 LINE",
"175 660 LINE"
);
},
{
closed = 1;
nodes = (
"156 660 LINE",
"212 486 LINE",
"388 0 LINE",
"470 0 LINE",
"230 660 LINE"
);
},
{
closed = 1;
nodes = (
"683 660 LINE",
"668 415 LINE",
"668 0 LINE",
"748 0 LINE",
"748 415 LINE",
"748 660 LINE"
);
}
);
width = 858;
}
);
leftMetricsKey = i;
rightMetricsKey = l;
unicode = 004D;
},
{
glyphname = N;
lastChange = "2014-08-27 12:05:06 +0100";
layers = (
{
anchors = (
{
name = bottom;
position = "{399, 0}";
},
{
name = top;
position = "{373, 660}";
}
);
layerId = "90FEB760-6DE5-46E5-A8E9-582C63BAB3AD";
name = Regular;
paths = (
{
closed = 1;
nodes = (
"135 660 LINE",
"253 442 LINE",
"533 0 LINE",
"603 0 LINE",
"484 220 LINE",
"205 660 LINE"
);
},
{
closed = 1;
nodes = (
"110 660 LINE",
"110 466 LINE",
"110 0 LINE",
"190 0 LINE",
"190 466 LINE",
"180 660 LINE"
);
},
{
closed = 1;
nodes = (
"548 660 LINE",
"548 194 LINE",
"558 0 LINE",
"628 0 LINE",
"628 194 LINE",
"628 660 LINE"
);
}
);
width = 738;
}
);
leftMetricsKey = I;
rightMetricsKey = I;
unicode = 004E;
},
{
glyphname = O;
lastChange = "2014-08-27 12:05:06 +0100";
layers = (
{
anchors = (
{
name = top;
position = "{386, 660}";
}
);
layerId = "90FEB760-6DE5-46E5-A8E9-582C63BAB3AD";
name = Regular;
paths = (
{
closed = 1;
nodes = (
"198 670 OFFCURVE",
"80 539 OFFCURVE",
"80 330 CURVE SMOOTH",
"80 121 OFFCURVE",
"198 -10 OFFCURVE",
"386 -10 CURVE SMOOTH",
"574 -10 OFFCURVE",
"692 121 OFFCURVE",
"692 330 CURVE SMOOTH",
"692 539 OFFCURVE",
"574 670 OFFCURVE",
"386 670 CURVE SMOOTH"
);
},
{
closed = 1;
nodes = (
"523 595 OFFCURVE",
"608 496 OFFCURVE",
"608 330 CURVE SMOOTH",
"608 164 OFFCURVE",
"523 65 OFFCURVE",
"386 65 CURVE SMOOTH",
"249 65 OFFCURVE",
"164 164 OFFCURVE",
"164 330 CURVE SMOOTH",
"164 496 OFFCURVE",
"249 595 OFFCURVE",
"386 595 CURVE SMOOTH"
);
}
);
width = 772;
}
);
unicode = 004F;
},
{
color = 0;
glyphname = Oslash;
lastChange = "2014-08-27 12:05:06 +0100";
layers = (
{
components = (
{
name = O;
transform = "{1, 0, 0, 1, 0, 0}";
}
);
layerId = "90FEB760-6DE5-46E5-A8E9-582C63BAB3AD";
name = Regular;
paths = (
{
closed = 1;
nodes = (
"601 700 LINE",
"99 -41 LINE",
"170 -41 LINE",
"672 700 LINE"
);
}
);
width = 772;
}
);
leftMetricsKey = O;
rightMetricsKey = O;
unicode = 00D8;
},
{
color = 0;
glyphname = OE;
lastChange = "2014-08-27 12:05:06 +0100";
layers = (
{
layerId = "90FEB760-6DE5-46E5-A8E9-582C63BAB3AD";
name = Regular;
paths = (
{
closed = 1;
nodes = (
"193 670 OFFCURVE",
"80 539 OFFCURVE",
"80 330 CURVE SMOOTH",
"80 121 OFFCURVE",
"193 -10 OFFCURVE",
"381 -10 CURVE SMOOTH",
"473 -10 OFFCURVE",
"530 14 OFFCURVE",
"569 66 CURVE",
"569 177 LINE",
"533 107 OFFCURVE",
"478 65 OFFCURVE",
"381 65 CURVE SMOOTH",
"244 65 OFFCURVE",
"164 164 OFFCURVE",
"164 330 CURVE SMOOTH",
"164 496 OFFCURVE",
"244 595 OFFCURVE",
"381 595 CURVE SMOOTH",
"478 595 OFFCURVE",
"533 553 OFFCURVE",
"569 483 CURVE",
"569 594 LINE",
"530 646 OFFCURVE",
"473 670 OFFCURVE",
"381 670 CURVE SMOOTH"
);
},
{
closed = 1;
nodes = (
"558 660 LINE",
"558 0 LINE",
"638 0 LINE",
"638 660 LINE"
);
},
{
closed = 1;
nodes = (
"600 75 LINE",
"600 0 LINE",
"1000 0 LINE",
"1000 75 LINE"
);
},
{
closed = 1;
nodes = (
"600 372 LINE",
"600 297 LINE",
"900 297 LINE",
"900 372 LINE"
);
},
{
closed = 1;
nodes = (
"600 660 LINE",
"600 585 LINE",
"985 585 LINE",
"985 660 LINE"
);
}
);
width = 1059;
}
);
leftMetricsKey = O;
rightMetricsKey = E;
unicode = 0152;
},
{
glyphname = P;
lastChange = "2014-08-27 12:05:06 +0100";
layers = (
{
layerId = "90FEB760-6DE5-46E5-A8E9-582C63BAB3AD";
name = Regular;
paths = (
{
closed = 1;
nodes = (
"150 660 LINE",
"150 585 LINE",
"331 585 LINE SMOOTH",
"435 585 OFFCURVE",
"481 541 OFFCURVE",
"481 459 CURVE SMOOTH",
"481 377 OFFCURVE",
"435 333 OFFCURVE",
"331 333 CURVE SMOOTH",
"150 333 LINE",
"150 258 LINE",
"343 258 LINE SMOOTH",
"476 258 OFFCURVE",
"565 335 OFFCURVE",
"565 459 CURVE SMOOTH",
"565 583 OFFCURVE",
"476 660 OFFCURVE",
"343 660 CURVE SMOOTH"
);
},
{
closed = 1;
nodes = (
"110 660 LINE",
"110 0 LINE",
"190 0 LINE",
"190 660 LINE"
);
}
);
width = 594;
}
);
leftMetricsKey = I;
unicode = 0050;
},
{
color = 2;
glyphname = Thorn;
lastChange = "2014-08-27 12:05:06 +0100";
layers = (
{
layerId = "90FEB760-6DE5-46E5-A8E9-582C63BAB3AD";
name = Regular;
paths = (
{
closed = 1;
nodes = (
"150 542 LINE",
"150 467 LINE",
"337 467 LINE SMOOTH",
"441 467 OFFCURVE",
"491 425 OFFCURVE",
"491 337 CURVE SMOOTH",
"491 249 OFFCURVE",
"441 207 OFFCURVE",
"337 207 CURVE SMOOTH",
"150 207 LINE",
"150 132 LINE",
"329 132 LINE SMOOTH",
"493 132 OFFCURVE",
"575 206 OFFCURVE",
"575 337 CURVE SMOOTH",
"575 469 OFFCURVE",
"493 542 OFFCURVE",
"329 542 CURVE SMOOTH"
);
},
{
closed = 1;
nodes = (
"110 660 LINE",
"110 0 LINE",
"190 0 LINE",
"190 660 LINE"
);
}
);
width = 655;
}
);
leftMetricsKey = H;
rightMetricsKey = O;
unicode = 00DE;
},
{
glyphname = Q;
lastChange = "2014-08-27 12:05:06 +0100";
layers = (
{
components = (
{
name = O;
transform = "{1, 0, 0, 1, 0, 0}";
}
);
layerId = "90FEB760-6DE5-46E5-A8E9-582C63BAB3AD";
name = Regular;
paths = (
{
closed = 1;
nodes = (
"336 20 LINE",
"334 -145 OFFCURVE",
"435 -193 OFFCURVE",
"531 -195 CURVE SMOOTH",
"598 -196 OFFCURVE",
"645 -179 OFFCURVE",
"680 -156 CURVE",
"655 -88 LINE",
"630 -111 OFFCURVE",
"585 -124 OFFCURVE",
"536 -124 CURVE SMOOTH",
"463 -124 OFFCURVE",
"400 -92 OFFCURVE",
"407 38 CURVE"
);
}
);
width = 772;
}
);
leftMetricsKey = O;
rightMetricsKey = o;
unicode = 0051;
},
{
glyphname = R;
lastChange = "2014-08-27 12:05:06 +0100";
layers = (
{
anchors = (
{
name = bottom;
position = "{367, 0}";
},
{
name = top;
position = "{334, 660}";
}
);
layerId = "90FEB760-6DE5-46E5-A8E9-582C63BAB3AD";
name = Regular;
paths = (
{
closed = 1;
nodes = (
"150 660 LINE",
"150 585 LINE",
"359 585 LINE SMOOTH",
"453 585 OFFCURVE",
"499 546 OFFCURVE",
"499 467 CURVE SMOOTH",
"499 388 OFFCURVE",
"453 349 OFFCURVE",
"359 349 CURVE SMOOTH",
"150 349 LINE",
"150 274 LINE",
"360 274 LINE SMOOTH",
"494 274 OFFCURVE",
"583 348 OFFCURVE",
"583 467 CURVE SMOOTH",
"583 586 OFFCURVE",
"494 660 OFFCURVE",
"360 660 CURVE SMOOTH"
);
},
{
closed = 1;
nodes = (
"110 660 LINE",
"110 0 LINE",
"190 0 LINE",
"190 660 LINE"
);
},
{
closed = 1;
nodes = (
"338 289 LINE",
"528 0 LINE",
"623 0 LINE",
"405 333 LINE"
);
}
);
width = 659;
}
);
leftMetricsKey = I;
unicode = 0052;
},
{
glyphname = S;
lastChange = "2014-08-27 12:05:06 +0100";
layers = (
{
anchors = (
{
name = bottom;
position = "{358, 0}";
},
{
name = top;
position = "{325, 660}";
}
);
layerId = "90FEB760-6DE5-46E5-A8E9-582C63BAB3AD";
name = Regular;
paths = (
{
closed = 1;
nodes = (
"166 670 OFFCURVE",
"73 580 OFFCURVE",
"73 474 CURVE SMOOTH",
"73 370 OFFCURVE",
"142 321 OFFCURVE",
"295 293 CURVE SMOOTH",
"468 260 OFFCURVE",
"497 230 OFFCURVE",
"497 171 CURVE SMOOTH",
"497 103 OFFCURVE",
"429 65 OFFCURVE",
"327 65 CURVE SMOOTH",
"232 65 OFFCURVE",
"141 123 OFFCURVE",
"128 203 CURVE",
"47 161 LINE",
"86 60 OFFCURVE",
"185 -10 OFFCURVE",
"325 -10 CURVE SMOOTH",
"479 -10 OFFCURVE",
"580 65 OFFCURVE",
"580 178 CURVE SMOOTH",
"580 282 OFFCURVE",
"516 333 OFFCURVE",
"351 363 CURVE SMOOTH",
"194 392 OFFCURVE",
"157 423 OFFCURVE",
"157 483 CURVE SMOOTH",
"157 546 OFFCURVE",
"215 595 OFFCURVE",
"320 595 CURVE SMOOTH",
"417 595 OFFCURVE",
"465 561 OFFCURVE",
"505 474 CURVE",
"574 530 LINE",
"523 622 OFFCURVE",
"440 670 OFFCURVE",
"319 670 CURVE SMOOTH"
);
}
);
width = 635;
}
);
unicode = 0053;
},
{
glyphname = T;
lastChange = "2014-08-27 12:05:06 +0100";
layers = (
{
anchors = (
{
name = bottom;
position = "{273, 0}";
},
{
name = center;
position = "{328, 330}";
},
{
name = top;
position = "{328, 660}";
}
);
layerId = "90FEB760-6DE5-46E5-A8E9-582C63BAB3AD";
name = Regular;
paths = (
{
closed = 1;
nodes = (
"288 660 LINE",
"288 0 LINE",
"368 0 LINE",
"368 660 LINE"
);
},
{
closed = 1;
nodes = (
"57 660 LINE",
"57 585 LINE",
"598 585 LINE",
"598 660 LINE"
);
}
);
width = 655;
}
);
unicode = 0054;
},
{
color = 0;
glyphname = Tcedilla;
lastChange = "2014-08-27 12:05:06 +0100";
layers = (
{
components = (
{
name = T;
transform = "{1, 0, 0, 1, 0, 0}";
}
);
layerId = "90FEB760-6DE5-46E5-A8E9-582C63BAB3AD";
name = Regular;
paths = (
{
closed = 1;
nodes = (
"351 -39 OFFCURVE",
"368 -59 OFFCURVE",
"368 -97 CURVE SMOOTH",
"368 -132 OFFCURVE",
"343 -152 OFFCURVE",
"311 -152 CURVE SMOOTH",
"283 -152 OFFCURVE",
"258 -140 OFFCURVE",
"242 -123 CURVE",
"212 -180 LINE",
"240 -205 OFFCURVE",
"275 -215 OFFCURVE",
"322 -215 CURVE SMOOTH",
"394 -215 OFFCURVE",
"439 -163 OFFCURVE",
"439 -108 CURVE SMOOTH",
"439 -68 OFFCURVE",
"418 -21 OFFCURVE",
"361 4 CURVE",
"288 0 LINE"
);
}
);
width = 655;
}
);
unicode = 0162;
},
{
glyphname = U;
lastChange = "2014-08-27 12:05:06 +0100";
layers = (
{
anchors = (
{
name = ogonek;
position = "{441, 0}";
},
{
name = top;
position = "{361, 660}";
}
);
layerId = "90FEB760-6DE5-46E5-A8E9-582C63BAB3AD";
name = Regular;
paths = (
{
closed = 1;
nodes = (
"540 660 LINE",
"540 266 LINE SMOOTH",
"540 128 OFFCURVE",
"484 65 OFFCURVE",
"361 65 CURVE SMOOTH",
"238 65 OFFCURVE",
"182 128 OFFCURVE",
"182 266 CURVE SMOOTH",
"182 660 LINE",
"102 660 LINE",
"102 246 LINE SMOOTH",
"102 76 OFFCURVE",
"195 -10 OFFCURVE",
"361 -10 CURVE SMOOTH",
"528 -10 OFFCURVE",
"620 76 OFFCURVE",
"620 246 CURVE SMOOTH",
"620 660 LINE"
);
}
);
width = 722;
}
);
unicode = 0055;
},
{
color = 0;
glyphname = Uogonek;
lastChange = "2014-08-27 12:05:06 +0100";
layers = (
{
components = (
{
name = U;
transform = "{1, 0, 0, 1, 0, 0}";
}
);
layerId = "90FEB760-6DE5-46E5-A8E9-582C63BAB3AD";
name = Regular;
paths = (
{
closed = 1;
nodes = (
"473 58 LINE",
"352 2 OFFCURVE",
"292 -48 OFFCURVE",
"292 -122 CURVE SMOOTH",
"292 -190 OFFCURVE",
"339 -230 OFFCURVE",
"420 -230 CURVE SMOOTH",
"465 -230 OFFCURVE",
"506 -215 OFFCURVE",
"526 -200 CURVE",
"506 -144 LINE",
"487 -156 OFFCURVE",
"465 -167 OFFCURVE",
"429 -167 CURVE SMOOTH",
"393 -167 OFFCURVE",
"363 -144 OFFCURVE",
"363 -111 CURVE SMOOTH",
"363 -76 OFFCURVE",
"404 -36 OFFCURVE",
"519 29 CURVE"
);
}
);
width = 722;
}
);
unicode = 0172;
},
{
glyphname = V;
lastChange = "2014-08-27 12:05:06 +0100";
layers = (
{
layerId = "90FEB760-6DE5-46E5-A8E9-582C63BAB3AD";
name = Regular;
paths = (
{
closed = 1;
nodes = (
"540 660 LINE",
"297 0 LINE",
"378 0 LINE",
"626 660 LINE"
);
},
{
closed = 1;
nodes = (
"34 660 LINE",
"283 0 LINE",
"363 0 LINE",
"120 660 LINE"
);
}
);
width = 660;
}
);
unicode = 0056;
},
{
glyphname = W;
lastChange = "2014-08-27 12:05:06 +0100";
layers = (
{
layerId = "90FEB760-6DE5-46E5-A8E9-582C63BAB3AD";
name = Regular;
paths = (
{
closed = 1;
nodes = (
"45 660 LINE",
"240 0 LINE",
"309 0 LINE",
"256 208 LINE",
"131 660 LINE"
);
},
{
closed = 1;
nodes = (
"446 660 LINE",
"313 167 LINE",
"273 0 LINE",
"339 0 LINE",
"518 660 LINE"
);
},
{
closed = 1;
nodes = (
"462 660 LINE",
"642 0 LINE",
"711 0 LINE",
"669 176 LINE",
"538 660 LINE"
);
},
{
closed = 1;
nodes = (
"854 660 LINE",
"730 213 LINE",
"676 0 LINE",
"741 0 LINE",
"935 660 LINE"
);
}
);
width = 980;
}
);
unicode = 0057;
},
{
glyphname = X;
lastChange = "2014-08-27 12:05:06 +0100";
layers = (
{
layerId = "90FEB760-6DE5-46E5-A8E9-582C63BAB3AD";
name = Regular;
paths = (
{
closed = 1;
nodes = (
"487 660 LINE",
"300 375 LINE",
"293 375 LINE",
"35 0 LINE",
"128 0 LINE",
"330 308 LINE",
"337 308 LINE",
"572 660 LINE"
);
},
{
closed = 1;
nodes = (
"55 660 LINE",
"486 0 LINE",
"579 0 LINE",
"150 660 LINE"
);
}
);
width = 614;
}
);
unicode = 0058;
},
{
glyphname = Y;
lastChange = "2014-08-27 12:05:06 +0100";
layers = (
{
anchors = (
{
name = top;
position = "{297, 660}";
}
);
layerId = "90FEB760-6DE5-46E5-A8E9-582C63BAB3AD";
name = Regular;
paths = (
{
closed = 1;
nodes = (
"478 660 LINE",
"271 294 LINE",
"337 258 LINE",
"573 660 LINE"
);
},
{
closed = 1;
nodes = (
"271 294 LINE",
"257 258 LINE",
"257 0 LINE",
"337 0 LINE",
"337 258 LINE",
"323 294 LINE"
);
},
{
closed = 1;
nodes = (
"21 660 LINE",
"257 258 LINE",
"323 294 LINE",
"116 660 LINE"
);
}
);
width = 594;
}
);
unicode = 0059;
},
{
glyphname = Z;
lastChange = "2014-08-27 12:05:06 +0100";
layers = (
{
anchors = (
{
name = top;
position = "{313, 660}";
}
);
layerId = "90FEB760-6DE5-46E5-A8E9-582C63BAB3AD";
name = Regular;
paths = (
{
closed = 1;
nodes = (
"63 75 LINE",
"123 29 LINE",
"569 585 LINE",
"510 632 LINE"
);
},
{
closed = 1;
nodes = (
"63 75 LINE",
"63 0 LINE",
"582 0 LINE",
"582 75 LINE"
);
},
{
closed = 1;
nodes = (
"73 660 LINE",
"73 585 LINE",
"569 585 LINE",
"569 660 LINE"
);
}
);
width = 625;
}
);
unicode = 005A;
},
{
glyphname = a;
lastChange = "2014-08-27 12:05:06 +0100";
layers = (
{
anchors = (
{
name = ogonek;
position = "{541, 0}";
},
{
name = top;
position = "{279, 500}";
}
);
layerId = "90FEB760-6DE5-46E5-A8E9-582C63BAB3AD";
name = Regular;
paths = (
{
closed = 1;
nodes = (
"174 510 OFFCURVE",
"95 462 OFFCURVE",
"69 388 CURVE",
"128 345 LINE",
"155 408 OFFCURVE",
"205 440 OFFCURVE",
"271 440 CURVE SMOOTH",
"346 440 OFFCURVE",
"388 396 OFFCURVE",
"388 330 CURVE SMOOTH",
"388 102 LINE SMOOTH",
"388 16 OFFCURVE",
"422 -10 OFFCURVE",
"481 -10 CURVE SMOOTH",
"506 -10 OFFCURVE",
"527 -5 OFFCURVE",
"541 0 CURVE",
"546 63 LINE",
"534 60 OFFCURVE",
"519 58 OFFCURVE",
"506 58 CURVE SMOOTH",
"478 58 OFFCURVE",
"468 70 OFFCURVE",
"468 94 CURVE SMOOTH",
"468 340 LINE SMOOTH",
"468 456 OFFCURVE",
"385 510 OFFCURVE",
"271 510 CURVE SMOOTH"
);
},
{
closed = 1;
nodes = (
"255 280 LINE SMOOTH",
"126 258 OFFCURVE",
"60 199 OFFCURVE",
"60 124 CURVE SMOOTH",
"60 34 OFFCURVE",
"136 -10 OFFCURVE",
"230 -10 CURVE SMOOTH",
"318 -10 OFFCURVE",
"410 42 OFFCURVE",
"410 125 CURVE",
"388 168 LINE",
"388 102 OFFCURVE",
"314 60 OFFCURVE",
"234 60 CURVE SMOOTH",
"177 60 OFFCURVE",
"143 82 OFFCURVE",
"143 124 CURVE SMOOTH",
"143 171 OFFCURVE",
"188 198 OFFCURVE",
"276 216 CURVE SMOOTH",
"434 245 LINE",
"423 308 LINE"
);
}
);
width = 563;
}
);
unicode = 0061;
},
{
glyphname = ae;
lastChange = "2014-08-27 12:05:06 +0100";
layers = (
{
anchors = (
{
name = ogonek;
position = "{1094, 10}";
}
);
layerId = "90FEB760-6DE5-46E5-A8E9-582C63BAB3AD";
name = Regular;
paths = (
{
closed = 1;
nodes = (
"467 510 OFFCURVE",
"399 374 OFFCURVE",
"399 247 CURVE SMOOTH",
"399 96 OFFCURVE",
"471 -10 OFFCURVE",
"614 -10 CURVE SMOOTH",
"722 -10 OFFCURVE",
"779 31 OFFCURVE",
"815 99 CURVE",
"748 134 LINE",
"731 86 OFFCURVE",
"694 60 OFFCURVE",
"619 60 CURVE SMOOTH",
"520 60 OFFCURVE",
"463 131 OFFCURVE",
"463 250 CURVE SMOOTH",
"463 369 OFFCURVE",
"523 440 OFFCURVE",
"612 440 CURVE SMOOTH",
"702 440 OFFCURVE",
"754 368 OFFCURVE",
"751 255 CURVE SMOOTH",
"750 220 LINE",
"827 220 LINE",
"827 255 LINE SMOOTH",
"827 412 OFFCURVE",
"754 510 OFFCURVE",
"613 510 CURVE SMOOTH"
);
},
{
closed = 1;
nodes = (
"175 510 OFFCURVE",
"98 465 OFFCURVE",
"69 388 CURVE",
"131 344 LINE",
"158 407 OFFCURVE",
"203 440 OFFCURVE",
"269 440 CURVE SMOOTH",
"348 440 OFFCURVE",
"392 396 OFFCURVE",
"392 330 CURVE SMOOTH",
"392 264 LINE",
"460 264 LINE",
"460 290 LINE SMOOTH",
"460 435 OFFCURVE",
"386 510 OFFCURVE",
"271 510 CURVE SMOOTH"
);
},
{
closed = 1;
nodes = (
"433 291 LINE",
"433 220 LINE",
"790 220 LINE",
"790 291 LINE"
);
},
{
closed = 1;
nodes = (
"243 273 LINE SMOOTH",
"120 257 OFFCURVE",
"60 199 OFFCURVE",
"60 124 CURVE SMOOTH",
"60 42 OFFCURVE",
"122 -10 OFFCURVE",
"220 -10 CURVE SMOOTH",
"343 -10 OFFCURVE",
"446 54 OFFCURVE",
"446 179 CURVE",
"407 198 LINE",
"407 112 OFFCURVE",
"324 60 OFFCURVE",
"234 60 CURVE SMOOTH",
"173 60 OFFCURVE",
"143 81 OFFCURVE",
"143 124 CURVE SMOOTH",
"143 171 OFFCURVE",
"176 195 OFFCURVE",
"264 209 CURVE SMOOTH",
"434 236 LINE",
"423 296 LINE"
);
}
);
width = 888;
}
);
leftMetricsKey = a;
rightMetricsKey = e;
unicode = 00E6;
},
{
glyphname = b;
lastChange = "2014-08-27 12:05:06 +0100";
layers = (
{
components = (
{
name = bowl;
transform = "{-1, 0, 0, 1, 648, 0}";
}
);
layerId = "90FEB760-6DE5-46E5-A8E9-582C63BAB3AD";
name = Regular;
paths = (
{
closed = 1;
nodes = (
"94 730 LINE",
"94 117 LINE",
"94 0 LINE",
"159 0 LINE",
"174 127 LINE",
"174 730 LINE"
);
}
);
width = 630;
}
);
leftMetricsKey = n;
rightMetricsKey = o;
unicode = 0062;
},
{
glyphname = c;
lastChange = "2014-08-27 12:05:06 +0100";
layers = (
{
anchors = (
{
name = bottom;
position = "{304, 0}";
},
{
name = top;
position = "{304, 500}";
}
);
layerId = "90FEB760-6DE5-46E5-A8E9-582C63BAB3AD";
name = Regular;
paths = (
{
closed = 1;
nodes = (
"153 510 OFFCURVE",
"62 412 OFFCURVE",
"62 250 CURVE SMOOTH",
"62 88 OFFCURVE",
"153 -10 OFFCURVE",
"304 -10 CURVE SMOOTH",
"410 -10 OFFCURVE",
"482 46 OFFCURVE",
"514 138 CURVE",
"442 163 LINE",
"422 97 OFFCURVE",
"375 60 OFFCURVE",
"302 60 CURVE SMOOTH",
"202 60 OFFCURVE",
"142 131 OFFCURVE",
"142 250 CURVE SMOOTH",
"142 369 OFFCURVE",
"202 440 OFFCURVE",
"302 440 CURVE SMOOTH",
"367 440 OFFCURVE",
"412 404 OFFCURVE",
"433 341 CURVE",
"509 377 LINE",
"474 459 OFFCURVE",
"407 510 OFFCURVE",
"304 510 CURVE SMOOTH"
);
}
);
width = 565;
}
);
leftMetricsKey = o;
unicode = 0063;
},
{
glyphname = d;
lastChange = "2014-08-27 12:05:06 +0100";
layers = (
{
anchors = (
{
name = center;
position = "{329, 250}";
},
{
name = topright;
position = "{635, 730}";
}
);
components = (
{
name = bowl;
transform = "{1, 0, 0, 1, -11, 0}";
}
);
layerId = "90FEB760-6DE5-46E5-A8E9-582C63BAB3AD";
name = Regular;
paths = (
{
closed = 1;
nodes = (
"463 730 LINE",
"463 127 LINE",
"478 0 LINE",
"543 0 LINE",
"543 117 LINE",
"543 730 LINE"
);
}
);
width = 637;
}
);
leftMetricsKey = q;
rightMetricsKey = "|n";
unicode = 0064;
},
{
color = 0;
glyphname = eth;
lastChange = "2014-08-27 12:05:06 +0100";
layers = (
{
layerId = "90FEB760-6DE5-46E5-A8E9-582C63BAB3AD";
name = Regular;
paths = (
{
closed = 1;
nodes = (
"112 735 LINE",
"92 672 LINE",
"133 672 LINE SMOOTH",
"323 672 OFFCURVE",
"470 566 OFFCURVE",
"470 238 CURVE SMOOTH",
"470 144 OFFCURVE",
"409 60 OFFCURVE",
"298 60 CURVE SMOOTH",
"202 60 OFFCURVE",
"141 126 OFFCURVE",
"141 238 CURVE SMOOTH",
"141 348 OFFCURVE",
"202 415 OFFCURVE",
"303 415 CURVE SMOOTH",
"409 415 OFFCURVE",
"470 348 OFFCURVE",
"470 238 CURVE",
"489 238 LINE",
"489 392 OFFCURVE",
"430 485 OFFCURVE",
"292 485 CURVE SMOOTH",
"159 485 OFFCURVE",
"58 392 OFFCURVE",
"58 238 CURVE SMOOTH",
"58 83 OFFCURVE",
"149 -10 OFFCURVE",
"294 -10 CURVE SMOOTH",
"466 -10 OFFCURVE",
"548 113 OFFCURVE",
"548 288 CURVE SMOOTH",
"548 523 OFFCURVE",
"417 735 OFFCURVE",
"159 735 CURVE SMOOTH"
);
},
{
closed = 1;
nodes = (
"203 580 LINE",
"241 530 LINE",
"489 710 LINE",
"450 758 LINE"
);
}
);
width = 606;
}
);
unicode = 00F0;
},
{
glyphname = e;
lastChange = "2014-08-27 12:05:06 +0100";
layers = (
{
anchors = (
{
name = bottom;
position = "{304, 0}";
},
{
name = ogonek;
position = "{448, 0}";
},
{
name = top;
position = "{295, 500}";
}
);
layerId = "90FEB760-6DE5-46E5-A8E9-582C63BAB3AD";
name = Regular;
paths = (
{
closed = 1;
nodes = (
"147 510 OFFCURVE",
"62 412 OFFCURVE",
"62 250 CURVE SMOOTH",
"62 88 OFFCURVE",
"153 -10 OFFCURVE",
"304 -10 CURVE SMOOTH",
"412 -10 OFFCURVE",
"474 31 OFFCURVE",
"512 99 CURVE",
"445 134 LINE",
"427 86 OFFCURVE",
"377 60 OFFCURVE",
"304 60 CURVE SMOOTH",
"203 60 OFFCURVE",
"140 131 OFFCURVE",
"140 250 CURVE SMOOTH",
"140 369 OFFCURVE",
"197 440 OFFCURVE",
"298 440 CURVE SMOOTH",
"393 440 OFFCURVE",
"451 368 OFFCURVE",
"447 255 CURVE SMOOTH",
"446 220 LINE",
"523 220 LINE",
"523 255 LINE SMOOTH",
"523 412 OFFCURVE",
"443 510 OFFCURVE",
"298 510 CURVE SMOOTH"
);
},
{
closed = 1;
nodes = (
"114 291 LINE",
"114 220 LINE",
"486 220 LINE",
"486 291 LINE"
);
}
);
width = 584;
}
);
leftMetricsKey = o;
unicode = 0065;
},
{
color = 0;
glyphname = eogonek;
lastChange = "2014-08-27 12:05:06 +0100";
layers = (
{
components = (
{
name = e;
transform = "{1, 0, 0, 1, 0, 0}";
}
);
layerId = "90FEB760-6DE5-46E5-A8E9-582C63BAB3AD";
name = Regular;
paths = (
{
closed = 1;
nodes = (
"391 50 LINE",
"293 3 OFFCURVE",
"241 -29 OFFCURVE",
"241 -105 CURVE SMOOTH",
"241 -167 OFFCURVE",
"290 -215 OFFCURVE",
"356 -215 CURVE SMOOTH",
"406 -215 OFFCURVE",
"438 -196 OFFCURVE",
"458 -178 CURVE",
"436 -122 LINE",
"426 -136 OFFCURVE",
"406 -152 OFFCURVE",
"370 -152 CURVE SMOOTH",
"339 -152 OFFCURVE",
"310 -139 OFFCURVE",
"310 -104 CURVE SMOOTH",
"310 -45 OFFCURVE",
"347 -21 OFFCURVE",
"437 21 CURVE"
);
}
);
width = 584;
}
);
unicode = 0119;
},
{
glyphname = f;
lastChange = "2014-08-27 12:05:06 +0100";
layers = (
{
guideLines = (
{
angle = 90;
position = "{394, 500}";
}
);
hints = (
{
place = "{257.299790, 0.000000}";
}
);
layerId = "90FEB760-6DE5-46E5-A8E9-582C63BAB3AD";
name = Regular;
paths = (
{
closed = 1;
nodes = (
"205 735 OFFCURVE",
"148 673 OFFCURVE",
"148 584 CURVE SMOOTH",
"148 0 LINE",
"228 0 LINE",
"228 576 LINE SMOOTH",
"228 637 OFFCURVE",
"264 662 OFFCURVE",
"305 662 CURVE SMOOTH",
"339 662 OFFCURVE",
"358 649 OFFCURVE",
"375 629 CURVE",
"394 702 LINE",
"374 722 OFFCURVE",
"352 735 OFFCURVE",
"298 735 CURVE SMOOTH"
);
},
{
closed = 1;
nodes = (
"48 500 LINE",
"48 431 LINE",
"388 431 LINE",
"388 500 LINE"
);
}
);
width = 410;
}
);
unicode = 0066;
},
{
glyphname = g;
lastChange = "2014-08-27 12:05:06 +0100";
layers = (
{
anchors = (
{
name = top;
position = "{277, 500}";
}
);
layerId = "90FEB760-6DE5-46E5-A8E9-582C63BAB3AD";
name = Regular;
paths = (
{
closed = 1;
nodes = (
"119 207 OFFCURVE",
"66 171 OFFCURVE",
"66 110 CURVE SMOOTH",
"66 35 OFFCURVE",
"155 -5 OFFCURVE",
"216 -5 CURVE SMOOTH",
"350 -5 LINE SMOOTH",
"425 -5 OFFCURVE",
"449 -28 OFFCURVE",
"449 -64 CURVE SMOOTH",
"449 -108 OFFCURVE",
"391 -148 OFFCURVE",
"285 -148 CURVE SMOOTH",
"175 -148 OFFCURVE",
"120 -116 OFFCURVE",
"120 -67 CURVE SMOOTH",
"120 -29 OFFCURVE",
"153 -5 OFFCURVE",
"216 -5 CURVE",
"192 29 LINE",
"104 29 OFFCURVE",
"43 -17 OFFCURVE",
"43 -83 CURVE SMOOTH",
"43 -158 OFFCURVE",
"118 -215 OFFCURVE",
"276 -215 CURVE SMOOTH",
"411 -215 OFFCURVE",
"527 -154 OFFCURVE",
"527 -55 CURVE SMOOTH",
"527 17 OFFCURVE",
"467 64 OFFCURVE",
"372 64 CURVE SMOOTH",
"242 64 LINE SMOOTH",
"177 64 OFFCURVE",
"141 87 OFFCURVE",
"141 124 CURVE SMOOTH",
"141 158 OFFCURVE",
"170 179 OFFCURVE",
"231 187 CURVE",
"188 214 LINE"
);
},
{
closed = 1;
nodes = (
"153 510 OFFCURVE",
"68 440 OFFCURVE",
"68 341 CURVE SMOOTH",
"68 242 OFFCURVE",
"141 172 OFFCURVE",
"273 172 CURVE SMOOTH",
"393 172 OFFCURVE",
"478 242 OFFCURVE",
"478 341 CURVE SMOOTH",
"478 440 OFFCURVE",
"393 510 OFFCURVE",
"273 510 CURVE SMOOTH"
);
},
{
closed = 1;
nodes = (
"342 445 OFFCURVE",
"395 403 OFFCURVE",
"395 341 CURVE SMOOTH",
"395 279 OFFCURVE",
"342 237 OFFCURVE",
"273 237 CURVE SMOOTH",
"204 237 OFFCURVE",
"151 279 OFFCURVE",
"151 341 CURVE SMOOTH",
"151 403 OFFCURVE",
"204 445 OFFCURVE",
"273 445 CURVE SMOOTH"
);
},
{
closed = 1;
nodes = (
"431 592 OFFCURVE",
"386 549 OFFCURVE",
"372 460 CURVE",
"412 443 LINE",
"417 494 OFFCURVE",
"453 520 OFFCURVE",
"534 520 CURVE",
"516 592 LINE"
);
}
);
width = 549;
}
);
unicode = 0067;
},
{
glyphname = gcommaaccent;
lastChange = "2014-08-27 12:05:06 +0100";
layers = (
{
components = (
{
name = g;
transform = "{1, 0, 0, 1, 0, 0}";
}
);
layerId = "90FEB760-6DE5-46E5-A8E9-582C63BAB3AD";
name = Regular;
paths = (
{
closed = 1;
nodes = (
"323 587 LINE",
"365 778 LINE",
"305 778 LINE",
"235 587 LINE"
);
}
);
width = 577;
}
);
unicode = 0123;
},
{
glyphname = h;
lastChange = "2014-08-27 12:05:06 +0100";
layers = (
{
layerId = "90FEB760-6DE5-46E5-A8E9-582C63BAB3AD";
name = Regular;
paths = (
{
closed = 1;
nodes = (
"94 730 LINE",
"94 0 LINE",
"174 0 LINE",
"174 730 LINE"
);
},
{
closed = 1;
nodes = (
"231 510 OFFCURVE",
"143 449 OFFCURVE",
"143 288 CURVE",
"174 265 LINE",
"174 393 OFFCURVE",
"256 440 OFFCURVE",
"329 440 CURVE SMOOTH",
"398 440 OFFCURVE",
"452 403 OFFCURVE",
"452 292 CURVE SMOOTH",
"452 0 LINE",
"532 0 LINE",
"532 320 LINE SMOOTH",
"532 449 OFFCURVE",
"444 510 OFFCURVE",
"337 510 CURVE SMOOTH"
);
}
);
width = 620;
}
);
leftMetricsKey = n;
rightMetricsKey = n;
unicode = 0068;
},
{
glyphname = i;
lastChange = "2014-08-27 12:05:06 +0100";
layers = (
{
components = (
{
name = dotaccent;
transform = "{1, 0, 0, 1, -116, 0}";
}
);
layerId = "90FEB760-6DE5-46E5-A8E9-582C63BAB3AD";
name = Regular;
paths = (
{
closed = 1;
nodes = (
"94 500 LINE",
"94 0 LINE",
"174 0 LINE",
"174 500 LINE"
);
}
);
width = 268;
}
);
leftMetricsKey = "n-20";
rightMetricsKey = "=|n-20";
unicode = 0069;
},
{
glyphname = dotlessi;
lastChange = "2014-08-27 12:05:06 +0100";
layers = (
{
anchors = (
{
name = ogonek;
position = "{174, 0}";
},
{
name = top;
position = "{134, 500}";
}
);
layerId = "90FEB760-6DE5-46E5-A8E9-582C63BAB3AD";
name = Regular;
paths = (
{
closed = 1;
nodes = (
"94 500 LINE",
"94 0 LINE",
"174 0 LINE",
"174 500 LINE"
);
}
);
width = 268;
}
);
leftMetricsKey = n;
rightMetricsKey = "=|n";
unicode = 0131;
},
{
glyphname = idieresis;
lastChange = "2014-08-27 12:05:06 +0100";
layers = (
{
components = (
{
name = dotlessi;
transform = "{1, 0, 0, 1, 0, 0}";
}
);
layerId = "90FEB760-6DE5-46E5-A8E9-582C63BAB3AD";
name = Regular;
paths = (
{
closed = 1;
nodes = (
"11 706 OFFCURVE",
"-15 680 OFFCURVE",
"-15 649 CURVE SMOOTH",
"-15 618 OFFCURVE",
"11 592 OFFCURVE",
"42 592 CURVE SMOOTH",
"73 592 OFFCURVE",
"99 618 OFFCURVE",
"99 649 CURVE SMOOTH",
"99 680 OFFCURVE",
"73 706 OFFCURVE",
"42 706 CURVE SMOOTH"
);
},
{
closed = 1;
nodes = (
"188 706 OFFCURVE",
"162 680 OFFCURVE",
"162 649 CURVE SMOOTH",
"162 618 OFFCURVE",
"188 592 OFFCURVE",
"219 592 CURVE SMOOTH",
"250 592 OFFCURVE",
"276 618 OFFCURVE",
"276 649 CURVE SMOOTH",
"276 680 OFFCURVE",
"250 706 OFFCURVE",
"219 706 CURVE SMOOTH"
);
}
);
width = 268;
}
);
unicode = 00EF;
},
{
color = 0;
glyphname = iogonek;
lastChange = "2014-08-27 12:05:06 +0100";
layers = (
{
components = (
{
name = dotlessi;
transform = "{1, 0, 0, 1, 0, 0}";
},
{
name = dotaccent;
transform = "{1, 0, 0, 1, -116, 0}";
}
);
layerId = "90FEB760-6DE5-46E5-A8E9-582C63BAB3AD";
name = Regular;
paths = (
{
closed = 1;
nodes = (
"128 19 LINE",
"47 -9 OFFCURVE",
"7 -53 OFFCURVE",
"7 -118 CURVE SMOOTH",
"7 -180 OFFCURVE",
"56 -215 OFFCURVE",
"122 -215 CURVE SMOOTH",
"172 -215 OFFCURVE",
"204 -196 OFFCURVE",
"224 -178 CURVE",
"202 -122 LINE",
"192 -136 OFFCURVE",
"172 -152 OFFCURVE",
"136 -152 CURVE SMOOTH",
"105 -152 OFFCURVE",
"76 -139 OFFCURVE",
"76 -104 CURVE SMOOTH",
"76 -67 OFFCURVE",
"101 -33 OFFCURVE",
"174 0 CURVE"
);
}
);
width = 268;
}
);
unicode = 012F;
},
{
glyphname = j;
lastChange = "2014-08-27 12:05:06 +0100";
layers = (
{
components = (
{
name = dotaccent;
transform = "{1, 0, 0, 1, -105, 0}";
}
);
layerId = "90FEB760-6DE5-46E5-A8E9-582C63BAB3AD";
name = Regular;
paths = (
{
closed = 1;
nodes = (
"105 500 LINE",
"105 -43 LINE SMOOTH",
"105 -113 OFFCURVE",
"75 -137 OFFCURVE",
"32 -137 CURVE SMOOTH",
"-3 -137 OFFCURVE",
"-31 -123 OFFCURVE",
"-50 -106 CURVE",
"-67 -182 LINE",
"-44 -201 OFFCURVE",
"-8 -215 OFFCURVE",
"33 -215 CURVE SMOOTH",
"101 -215 OFFCURVE",
"185 -176 OFFCURVE",
"185 -51 CURVE SMOOTH",
"185 500 LINE"
);
}
);
width = 279;
}
);
rightMetricsKey = "=|n-25";
unicode = 006A;
},
{
glyphname = k;
lastChange = "2014-08-27 12:05:06 +0100";
layers = (
{
anchors = (
{
name = bottom;
position = "{316, 0}";
}
);
layerId = "90FEB760-6DE5-46E5-A8E9-582C63BAB3AD";
name = Regular;
paths = (
{
closed = 1;
nodes = (
"433 500 LINE",
"134 201 LINE",
"134 101 LINE",
"533 500 LINE"
);
},
{
closed = 1;
nodes = (
"94 730 LINE",
"94 0 LINE",
"174 0 LINE",
"174 730 LINE"
);
},
{
closed = 1;
nodes = (
"257 280 LINE",
"448 0 LINE",
"545 0 LINE",
"324 325 LINE"
);
}
);
width = 559;
}
);
leftMetricsKey = n;
unicode = 006B;
},
{
glyphname = l;
lastChange = "2014-08-27 12:05:06 +0100";
layers = (
{
anchors = (
{
name = bottom;
position = "{229, 0}";
},
{
name = top;
position = "{134, 730}";
},
{
name = topright;
position = "{267, 730}";
}
);
layerId = "90FEB760-6DE5-46E5-A8E9-582C63BAB3AD";
name = Regular;
paths = (
{
closed = 1;
nodes = (
"94 730 LINE",
"94 124 LINE SMOOTH",
"94 33 OFFCURVE",
"133 -10 OFFCURVE",
"214 -10 CURVE SMOOTH",
"240 -10 OFFCURVE",
"267 -5 OFFCURVE",
"288 4 CURVE",
"301 81 LINE",
"276 72 OFFCURVE",
"259 67 OFFCURVE",
"228 67 CURVE SMOOTH",
"187 67 OFFCURVE",
"174 83 OFFCURVE",
"174 134 CURVE SMOOTH",
"174 730 LINE"
);
}
);
width = 314;
}
);
leftMetricsKey = n;
unicode = 006C;
},
{
color = 2;
glyphname = lacute;
lastChange = "2014-08-27 12:05:06 +0100";
layers = (
{
components = (
{
name = l;
transform = "{1, 0, 0, 1, 0, 0}";
}
);
layerId = "90FEB760-6DE5-46E5-A8E9-582C63BAB3AD";
name = Regular;
paths = (
{
closed = 1;
nodes = (
"94 813 LINE",
"154 813 LINE",
"254 980 LINE",
"166 980 LINE"
);
}
);
width = 338;
}
);
unicode = 013A;
},
{
glyphname = lslash;
lastChange = "2014-08-27 12:05:06 +0100";
layers = (
{
components = (
{
name = l;
transform = "{1, 0, 0, 1, 29, 0}";
}
);
layerId = "90FEB760-6DE5-46E5-A8E9-582C63BAB3AD";
name = Regular;
paths = (
{
closed = 1;
nodes = (
"27 312 LINE",
"27 229 LINE",
"323 427 LINE",
"323 510 LINE"
);
}
);
width = 349;
}
);
unicode = 0142;
},
{
glyphname = m;
lastChange = "2014-08-27 12:05:06 +0100";
layers = (
{
guideLines = (
{
position = "{194, 423}";
}
);
layerId = "90FEB760-6DE5-46E5-A8E9-582C63BAB3AD";
name = Regular;
paths = (
{
closed = 1;
nodes = (
"595 510 OFFCURVE",
"487 461 OFFCURVE",
"487 346 CURVE",
"520 274 LINE",
"520 381 OFFCURVE",
"590 440 OFFCURVE",
"668 440 CURVE SMOOTH",
"734 440 OFFCURVE",
"786 403 OFFCURVE",
"786 312 CURVE SMOOTH",
"786 0 LINE",
"866 0 LINE",
"866 320 LINE SMOOTH",
"866 452 OFFCURVE",
"771 510 OFFCURVE",
"675 510 CURVE SMOOTH"
);
},
{
closed = 1;
nodes = (
"94 500 LINE",
"94 383 LINE",
"94 0 LINE",
"174 0 LINE",
"174 383 LINE",
"159 500 LINE"
);
},
{
closed = 1;
nodes = (
"234 510 OFFCURVE",
"137 445 OFFCURVE",
"137 293 CURVE",
"174 267 LINE",
"174 391 OFFCURVE",
"256 440 OFFCURVE",
"322 440 CURVE SMOOTH",
"388 440 OFFCURVE",
"440 403 OFFCURVE",
"440 312 CURVE SMOOTH",
"440 0 LINE",
"520 0 LINE",
"520 320 LINE SMOOTH",
"520 452 OFFCURVE",
"425 510 OFFCURVE",
"329 510 CURVE SMOOTH"
);
}
);
width = 954;
}
);
leftMetricsKey = n;
rightMetricsKey = n;
unicode = 006D;
},
{
glyphname = n;
lastChange = "2014-08-27 12:05:06 +0100";
layers = (
{
anchors = (
{
name = bottom;
position = "{343, 0}";
},
{
name = top;
position = "{319, 500}";
}
);
layerId = "90FEB760-6DE5-46E5-A8E9-582C63BAB3AD";
name = Regular;
paths = (
{
closed = 1;
nodes = (
"232 510 OFFCURVE",
"139 451 OFFCURVE",
"139 291 CURVE",
"174 266 LINE",
"174 394 OFFCURVE",
"256 440 OFFCURVE",
"329 440 CURVE SMOOTH",
"398 440 OFFCURVE",
"452 403 OFFCURVE",
"452 292 CURVE SMOOTH",
"452 0 LINE",
"532 0 LINE",
"532 320 LINE SMOOTH",
"532 449 OFFCURVE",
"444 510 OFFCURVE",
"337 510 CURVE SMOOTH"
);
},
{
closed = 1;
nodes = (
"94 500 LINE",
"94 383 LINE",
"94 0 LINE",
"174 0 LINE",
"174 383 LINE",
"159 500 LINE"
);
}
);
width = 620;
}
);
unicode = 006E;
},
{
glyphname = o;
lastChange = "2014-08-27 12:05:06 +0100";
layers = (
{
anchors = (
{
name = top;
position = "{307, 500}";
}
);
layerId = "90FEB760-6DE5-46E5-A8E9-582C63BAB3AD";
name = Regular;
paths = (
{
closed = 1;
nodes = (
"153 510 OFFCURVE",
"62 412 OFFCURVE",
"62 250 CURVE SMOOTH",
"62 88 OFFCURVE",
"153 -10 OFFCURVE",
"307 -10 CURVE SMOOTH",
"461 -10 OFFCURVE",
"552 88 OFFCURVE",
"552 250 CURVE SMOOTH",
"552 412 OFFCURVE",
"461 510 OFFCURVE",
"307 510 CURVE SMOOTH"
);
},
{
closed = 1;
nodes = (
"408 440 OFFCURVE",
"469 369 OFFCURVE",
"469 250 CURVE SMOOTH",
"469 131 OFFCURVE",
"408 60 OFFCURVE",
"307 60 CURVE SMOOTH",
"206 60 OFFCURVE",
"145 131 OFFCURVE",
"145 250 CURVE SMOOTH",
"145 369 OFFCURVE",
"206 440 OFFCURVE",
"307 440 CURVE SMOOTH"
);
}
);
width = 614;
}
);
unicode = 006F;
},
{
glyphname = oslash;
lastChange = "2014-08-27 12:05:06 +0100";
layers = (
{
components = (
{
name = o;
transform = "{1, 0, 0, 1, 0, 0}";
}
);
guideLines = (
{
angle = 90;
position = "{558, 257}";
},
{
angle = 90;
position = "{68, 257}";
}
);
layerId = "90FEB760-6DE5-46E5-A8E9-582C63BAB3AD";
name = Regular;
paths = (
{
closed = 1;
nodes = (
"491 540 LINE",
"68 -41 LINE",
"135 -41 LINE",
"558 540 LINE"
);
}
);
width = 626;
}
);
unicode = 00F8;
},
{
glyphname = oe;
lastChange = "2014-08-27 12:05:06 +0100";
layers = (
{
layerId = "90FEB760-6DE5-46E5-A8E9-582C63BAB3AD";
name = Regular;
paths = (
{
closed = 1;
nodes = (
"153 510 OFFCURVE",
"62 412 OFFCURVE",
"62 250 CURVE SMOOTH",
"62 88 OFFCURVE",
"153 -10 OFFCURVE",
"307 -10 CURVE SMOOTH",
"455 -10 OFFCURVE",
"542 88 OFFCURVE",
"542 250 CURVE SMOOTH",
"542 412 OFFCURVE",
"455 510 OFFCURVE",
"307 510 CURVE SMOOTH"
);
},
{
closed = 1;
nodes = (
"408 440 OFFCURVE",
"469 369 OFFCURVE",
"469 250 CURVE SMOOTH",
"469 131 OFFCURVE",
"408 60 OFFCURVE",
"307 60 CURVE SMOOTH",
"206 60 OFFCURVE",
"145 131 OFFCURVE",
"145 250 CURVE SMOOTH",
"145 369 OFFCURVE",
"206 440 OFFCURVE",
"307 440 CURVE SMOOTH"
);
},
{
closed = 1;
nodes = (
"560 510 OFFCURVE",
"479 412 OFFCURVE",
"479 250 CURVE SMOOTH",
"479 88 OFFCURVE",
"566 -10 OFFCURVE",
"711 -10 CURVE SMOOTH",
"819 -10 OFFCURVE",
"881 31 OFFCURVE",
"919 99 CURVE",
"852 134 LINE",
"834 86 OFFCURVE",
"784 60 OFFCURVE",
"711 60 CURVE SMOOTH",
"610 60 OFFCURVE",
"547 131 OFFCURVE",
"547 250 CURVE SMOOTH",
"547 369 OFFCURVE",
"604 440 OFFCURVE",
"705 440 CURVE SMOOTH",
"800 440 OFFCURVE",
"858 368 OFFCURVE",
"854 255 CURVE SMOOTH",
"853 220 LINE",
"930 220 LINE",
"930 255 LINE SMOOTH",
"930 412 OFFCURVE",
"850 510 OFFCURVE",
"705 510 CURVE SMOOTH"
);
},
{
closed = 1;
nodes = (
"521 291 LINE",
"521 220 LINE",
"893 220 LINE",
"893 291 LINE"
);
}
);
width = 991;
}
);
leftMetricsKey = o;
rightMetricsKey = e;
unicode = 0153;
},
{
glyphname = p;
lastChange = "2014-08-27 12:05:06 +0100";
layers = (
{
components = (
{
name = bowl;
transform = "{-1, 0, 0, 1, 648, 0}";
}
);
layerId = "90FEB760-6DE5-46E5-A8E9-582C63BAB3AD";
name = Regular;
paths = (
{
closed = 1;
nodes = (
"94 500 LINE",
"94 383 LINE",
"94 -210 LINE",
"174 -210 LINE",
"174 383 LINE",
"159 500 LINE"
);
}
);
width = 630;
}
);
leftMetricsKey = n;
rightMetricsKey = o;
unicode = 0070;
},
{
glyphname = thorn;
lastChange = "2014-08-27 12:05:06 +0100";
layers = (
{
components = (
{
name = bowl;
transform = "{-1, -0, 0, -1, 648, 500}";
}
);
layerId = "90FEB760-6DE5-46E5-A8E9-582C63BAB3AD";
name = Regular;
paths = (
{
closed = 1;
nodes = (
"94 730 LINE",
"94 -210 LINE",
"174 -210 LINE",
"174 730 LINE"
);
}
);
width = 630;
}
);
leftMetricsKey = n;
rightMetricsKey = o;
unicode = 00FE;
},
{
glyphname = q;
lastChange = "2014-08-27 12:05:06 +0100";
layers = (
{
components = (
{
name = bowl;
transform = "{1, 0, 0, 1, -11, 0}";
}
);
layerId = "90FEB760-6DE5-46E5-A8E9-582C63BAB3AD";
name = Regular;
paths = (
{
closed = 1;
nodes = (
"478 500 LINE",
"463 383 LINE",
"463 -210 LINE",
"543 -210 LINE",
"543 383 LINE",
"543 500 LINE"
);
}
);
width = 637;
}
);
leftMetricsKey = o;
rightMetricsKey = "=|n";
unicode = 0071;
},
{
glyphname = r;
lastChange = "2014-08-27 12:05:06 +0100";
layers = (
{
anchors = (
{
name = bottom;
position = "{155, 0}";
},
{
name = top;
position = "{221, 500}";
}
);
layerId = "90FEB760-6DE5-46E5-A8E9-582C63BAB3AD";
name = Regular;
paths = (
{
closed = 1;
nodes = (
"211 510 OFFCURVE",
"147 438 OFFCURVE",
"147 295 CURVE",
"174 270 LINE",
"174 382 OFFCURVE",
"246 435 OFFCURVE",
"306 435 CURVE SMOOTH",
"332 435 OFFCURVE",
"354 430 OFFCURVE",
"369 422 CURVE",
"385 500 LINE",
"370 508 OFFCURVE",
"347 510 OFFCURVE",
"330 510 CURVE SMOOTH"
);
},
{
closed = 1;
nodes = (
"94 500 LINE",
"94 383 LINE",
"94 0 LINE",
"174 0 LINE",
"174 383 LINE",
"159 500 LINE"
);
}
);
width = 409;
}
);
leftMetricsKey = n;
unicode = 0072;
},
{
glyphname = s;
lastChange = "2014-08-27 12:05:06 +0100";
layers = (
{
anchors = (
{
name = bottom;
position = "{285, 0}";
},
{
name = top;
position = "{282, 500}";
}
);
layerId = "90FEB760-6DE5-46E5-A8E9-582C63BAB3AD";
name = Regular;
paths = (
{
closed = 1;
nodes = (
"160 510 OFFCURVE",
"85 441 OFFCURVE",
"85 360 CURVE SMOOTH",
"85 279 OFFCURVE",
"140 237 OFFCURVE",
"264 214 CURVE SMOOTH",
"390 191 OFFCURVE",
"410 171 OFFCURVE",
"410 134 CURVE SMOOTH",
"410 93 OFFCURVE",
"371 60 OFFCURVE",
"289 60 CURVE SMOOTH",
"217 60 OFFCURVE",
"157 91 OFFCURVE",
"133 150 CURVE",
"64 117 LINE",
"96 24 OFFCURVE",
"179 -10 OFFCURVE",
"281 -10 CURVE SMOOTH",
"409 -10 OFFCURVE",
"490 51 OFFCURVE",
"490 138 CURVE SMOOTH",
"490 220 OFFCURVE",
"438 259 OFFCURVE",
"324 279 CURVE SMOOTH",
"192 302 OFFCURVE",
"165 327 OFFCURVE",
"165 366 CURVE SMOOTH",
"165 404 OFFCURVE",
"215 440 OFFCURVE",
"282 440 CURVE SMOOTH",
"345 440 OFFCURVE",
"390 416 OFFCURVE",
"412 350 CURVE",
"480 390 LINE",
"452 472 OFFCURVE",
"389 510 OFFCURVE",
"282 510 CURVE SMOOTH"
);
}
);
width = 548;
}
);
unicode = 0073;
},
{
glyphname = germandbls;
lastChange = "2014-08-27 12:05:06 +0100";
layers = (
{
hints = (
{
place = "{257.299790, 0.000000}";
},
{
place = "{257.299790, 0.000000}";
}
);
layerId = "90FEB760-6DE5-46E5-A8E9-582C63BAB3AD";
name = Regular;
paths = (
{
closed = 1;
nodes = (
"271 392 LINE",
"271 347 LINE",
"310 347 LINE SMOOTH",
"422 347 OFFCURVE",
"484 299 OFFCURVE",
"484 206 CURVE SMOOTH",
"484 123 OFFCURVE",
"435 63 OFFCURVE",
"344 63 CURVE SMOOTH",
"306 63 OFFCURVE",
"278 72 OFFCURVE",
"258 88 CURVE",
"235 23 LINE",
"253 6 OFFCURVE",
"295 -10 OFFCURVE",
"340 -10 CURVE SMOOTH",
"488 -10 OFFCURVE",
"561 91 OFFCURVE",
"561 197 CURVE SMOOTH",
"561 286 OFFCURVE",
"510 392 OFFCURVE",
"374 392 CURVE SMOOTH"
);
},
{
closed = 1;
nodes = (
"406 660 OFFCURVE",
"453 623 OFFCURVE",
"453 544 CURVE SMOOTH",
"453 474 OFFCURVE",
"400 422 OFFCURVE",
"310 422 CURVE SMOOTH",
"271 422 LINE",
"271 392 LINE",
"374 392 LINE SMOOTH",
"476 392 OFFCURVE",
"535 469 OFFCURVE",
"535 549 CURVE SMOOTH",
"535 631 OFFCURVE",
"481 735 OFFCURVE",
"327 735 CURVE SMOOTH",
"149 735 OFFCURVE",
"94 634 OFFCURVE",
"94 497 CURVE SMOOTH",
"94 0 LINE",
"174 0 LINE",
"174 473 LINE SMOOTH",
"174 596 OFFCURVE",
"207 660 OFFCURVE",
"319 660 CURVE SMOOTH"
);
}
);
width = 610;
}
);
leftMetricsKey = n;
unicode = 00DF;
},
{
glyphname = t;
lastChange = "2014-08-27 12:05:06 +0100";
layers = (
{
anchors = (
{
name = bottom;
position = "{243, 0}";
},
{
name = center;
position = "{160, 250}";
},
{
name = topright;
position = "{288, 767}";
}
);
layerId = "90FEB760-6DE5-46E5-A8E9-582C63BAB3AD";
name = Regular;
paths = (
{
closed = 1;
nodes = (
"120 620 LINE",
"120 124 LINE SMOOTH",
"121 27 OFFCURVE",
"185 -10 OFFCURVE",
"259 -10 CURVE SMOOTH",
"314 -10 OFFCURVE",
"357 7 OFFCURVE",
"388 35 CURVE",
"360 102 LINE",
"337 79 OFFCURVE",
"311 65 OFFCURVE",
"275 65 CURVE SMOOTH",
"231 65 OFFCURVE",
"200 89 OFFCURVE",
"200 138 CURVE SMOOTH",
"200 642 LINE"
);
},
{
closed = 1;
nodes = (
"20 500 LINE",
"20 431 LINE",
"375 431 LINE",
"375 500 LINE"
);
}
);
width = 423;
}
);
unicode = 0074;
},
{
glyphname = u;
lastChange = "2014-08-27 12:05:06 +0100";
layers = (
{
anchors = (
{
name = ogonek;
position = "{526, 0}";
},
{
name = top;
position = "{308, 500}";
}
);
layerId = "90FEB760-6DE5-46E5-A8E9-582C63BAB3AD";
name = Regular;
paths = (
{
closed = 1;
nodes = (
"88 500 LINE",
"88 173 LINE SMOOTH",
"88 41 OFFCURVE",
"173 -10 OFFCURVE",
"272 -10 CURVE SMOOTH",
"396 -10 OFFCURVE",
"482 53 OFFCURVE",
"482 208 CURVE",
"446 228 LINE",
"446 110 OFFCURVE",
"371 60 OFFCURVE",
"286 60 CURVE SMOOTH",
"214 60 OFFCURVE",
"168 91 OFFCURVE",
"168 194 CURVE SMOOTH",
"168 500 LINE"
);
},
{
closed = 1;
nodes = (
"446 500 LINE",
"446 117 LINE",
"461 0 LINE",
"526 0 LINE",
"526 117 LINE",
"526 500 LINE"
);
}
);
width = 620;
}
);
leftMetricsKey = "=|n";
rightMetricsKey = "=|n";
unicode = 0075;
},
{
glyphname = v;
lastChange = "2014-08-27 12:05:06 +0100";
layers = (
{
layerId = "90FEB760-6DE5-46E5-A8E9-582C63BAB3AD";
name = Regular;
paths = (
{
closed = 1;
nodes = (
"428 500 LINE",
"224 0 LINE",
"304 0 LINE",
"517 500 LINE"
);
},
{
closed = 1;
nodes = (
"11 500 LINE",
"224 0 LINE",
"304 0 LINE",
"100 500 LINE"
);
}
);
width = 528;
}
);
unicode = 0076;
},
{
glyphname = w;
lastChange = "2014-08-27 12:05:06 +0100";
layers = (
{
layerId = "90FEB760-6DE5-46E5-A8E9-582C63BAB3AD";
name = Regular;
paths = (
{
closed = 1;
nodes = (
"370 500 LINE",
"547 0 LINE",
"627 0 LINE",
"450 500 LINE"
);
},
{
closed = 1;
nodes = (
"19 500 LINE",
"193 0 LINE",
"273 0 LINE",
"108 500 LINE"
);
},
{
closed = 1;
nodes = (
"370 500 LINE",
"203 0 LINE",
"273 0 LINE",
"440 500 LINE"
);
},
{
closed = 1;
nodes = (
"712 500 LINE",
"557 0 LINE",
"627 0 LINE",
"801 500 LINE"
);
}
);
width = 820;
}
);
unicode = 0077;
},
{
glyphname = x;
lastChange = "2014-08-27 12:05:06 +0100";
layers = (
{
layerId = "90FEB760-6DE5-46E5-A8E9-582C63BAB3AD";
name = Regular;
paths = (
{
closed = 1;
nodes = (
"378 500 LINE",
"235 288 LINE",
"229 288 LINE",
"21 0 LINE",
"115 0 LINE",
"275 237 LINE",
"279 237 LINE",
"462 500 LINE"
);
},
{
closed = 1;
nodes = (
"38 500 LINE",
"378 0 LINE",
"474 0 LINE",
"134 500 LINE"
);
},
{
closed = 1;
nodes = (
"38 500 LINE",
"378 0 LINE",
"474 0 LINE",
"134 500 LINE"
);
}
);
width = 494;
}
);
unicode = 0078;
},
{
glyphname = y;
lastChange = "2014-08-27 12:05:06 +0100";
layers = (
{
anchors = (
{
name = top;
position = "{266, 500}";
}
);
layerId = "90FEB760-6DE5-46E5-A8E9-582C63BAB3AD";
name = Regular;
paths = (
{
closed = 1;
nodes = (
"435 500 LINE",
"208 -64 LINE SMOOTH",
"183 -127 OFFCURVE",
"151 -142 OFFCURVE",
"111 -142 CURVE SMOOTH",
"81 -142 OFFCURVE",
"53 -139 OFFCURVE",
"17 -112 CURVE",
"31 -196 LINE",
"50 -206 OFFCURVE",
"76 -215 OFFCURVE",
"118 -215 CURVE SMOOTH",
"195 -215 OFFCURVE",
"235 -182 OFFCURVE",
"268 -103 CURVE SMOOTH",
"521 500 LINE"
);
},
{
closed = 1;
nodes = (
"15 500 LINE",
"235 0 LINE",
"312 0 LINE",
"106 500 LINE"
);
}
);
width = 532;
}
);
rightMetricsKey = v;
unicode = 0079;
},
{
glyphname = z;
lastChange = "2014-08-27 12:05:06 +0100";
layers = (
{
anchors = (
{
name = top;
position = "{279, 500}";
}
);
layerId = "90FEB760-6DE5-46E5-A8E9-582C63BAB3AD";
name = Regular;
paths = (
{
closed = 1;
nodes = (
"65 63 LINE",
"114 17 LINE",
"503 438 LINE",
"453 484 LINE"
);
},
{
closed = 1;
nodes = (
"248 68 LINE",
"65 63 LINE",
"65 0 LINE",
"248 0 LINE",
"503 0 LINE",
"503 68 LINE"
);
},
{
closed = 1;
nodes = (
"329 500 LINE",
"65 500 LINE",
"65 433 LINE",
"329 433 LINE",
"503 438 LINE",
"503 500 LINE"
);
}
);
width = 557;
}
);
unicode = 007A;
},
{
glyphname = ordfeminine;
lastChange = "2014-08-27 12:05:06 +0100";
layers = (
{
layerId = "90FEB760-6DE5-46E5-A8E9-582C63BAB3AD";
name = Regular;
paths = (
{
closed = 1;
nodes = (
"147 670 OFFCURVE",
"81 636 OFFCURVE",
"63 585 CURVE",
"117 554 LINE",
"136 598 OFFCURVE",
"168 613 OFFCURVE",
"215 613 CURVE SMOOTH",
"270 613 OFFCURVE",
"295 590 OFFCURVE",
"295 544 CURVE SMOOTH",
"295 384 LINE SMOOTH",
"295 339 OFFCURVE",
"326 306 OFFCURVE",
"369 306 CURVE SMOOTH",
"387 306 OFFCURVE",
"402 310 OFFCURVE",
"412 313 CURVE",
"415 366 LINE",
"407 364 OFFCURVE",
"396 363 OFFCURVE",
"387 363 CURVE SMOOTH",
"367 363 OFFCURVE",
"360 371 OFFCURVE",
"360 388 CURVE SMOOTH",
"360 551 LINE SMOOTH",
"360 632 OFFCURVE",
"295 670 OFFCURVE",
"213 670 CURVE SMOOTH"
);
},
{
closed = 1;
nodes = (
"208 514 LINE SMOOTH",
"111 497 OFFCURVE",
"57 468 OFFCURVE",
"57 403 CURVE SMOOTH",
"57 333 OFFCURVE",
"109 306 OFFCURVE",
"177 306 CURVE SMOOTH",
"245 306 OFFCURVE",
"311 342 OFFCURVE",
"311 400 CURVE",
"296 427 LINE",
"296 394 OFFCURVE",
"243 363 OFFCURVE",
"186 363 CURVE SMOOTH",
"148 363 OFFCURVE",
"122 376 OFFCURVE",
"122 402 CURVE SMOOTH",
"122 439 OFFCURVE",
"159 455 OFFCURVE",
"224 467 CURVE SMOOTH",
"329 486 LINE",
"321 534 LINE"
);
},
{
closed = 1;
nodes = (
"62 222 LINE",
"62 169 LINE",
"399 169 LINE",
"399 222 LINE"
);
}
);
width = 457;
}
);
unicode = 00AA;
},
{
color = 0;
glyphname = ordmasculine;
lastChange = "2014-08-27 12:05:06 +0100";
layers = (
{
layerId = "90FEB760-6DE5-46E5-A8E9-582C63BAB3AD";
name = Regular;
paths = (
{
closed = 1;
nodes = (
"113 670 OFFCURVE",
"43 601 OFFCURVE",
"43 488 CURVE SMOOTH",
"43 375 OFFCURVE",
"113 306 OFFCURVE",
"216 306 CURVE SMOOTH",
"319 306 OFFCURVE",
"389 375 OFFCURVE",
"389 488 CURVE SMOOTH",
"389 601 OFFCURVE",
"319 670 OFFCURVE",
"216 670 CURVE SMOOTH"
);
},
{
closed = 1;
nodes = (
"282 613 OFFCURVE",
"324 571 OFFCURVE",
"324 488 CURVE SMOOTH",
"324 405 OFFCURVE",
"282 363 OFFCURVE",
"216 363 CURVE SMOOTH",
"150 363 OFFCURVE",
"108 405 OFFCURVE",
"108 488 CURVE SMOOTH",
"108 571 OFFCURVE",
"150 613 OFFCURVE",
"216 613 CURVE SMOOTH"
);
},
{
closed = 1;
nodes = (
"53 222 LINE",
"53 169 LINE",
"380 169 LINE",
"380 222 LINE"
);
}
);
width = 432;
}
);
unicode = 00BA;
},
{
glyphname = pi;
lastChange = "2014-08-27 12:05:06 +0100";
layers = (
{
layerId = "90FEB760-6DE5-46E5-A8E9-582C63BAB3AD";
name = Regular;
paths = (
{
closed = 1;
nodes = (
"688 500 LINE",
"24 500 LINE",
"24 433 LINE",
"688 433 LINE"
);
},
{
closed = 1;
nodes = (
"160 500 LINE",
"160 0 LINE",
"240 0 LINE",
"240 500 LINE"
);
},
{
closed = 1;
nodes = (
"456 500 LINE",
"456 125 LINE SMOOTH",
"456 30 OFFCURVE",
"503 0 OFFCURVE",
"629 0 CURVE",
"645 67 LINE",
"569 67 OFFCURVE",
"536 83 OFFCURVE",
"536 136 CURVE SMOOTH",
"536 500 LINE"
);
}
);
width = 714;
}
);
unicode = 03C0;
},
{
glyphname = kadeva;
lastChange = "2014-08-27 12:05:06 +0100";
layers = (
{
anchors = (
{
name = DVAnchor0;
position = "{462, 0}";
},
{
name = DVAnchor3;
position = "{462, 660}";
}
);
layerId = "90FEB760-6DE5-46E5-A8E9-582C63BAB3AD";
name = Regular;
paths = (
{
closed = 1;
nodes = (
"426 627 LINE",
"426 0 LINE",
"496 0 LINE",
"496 627 LINE"
);
},
{
closed = 1;
nodes = (
"149 495 OFFCURVE",
"73 418 OFFCURVE",
"73 299 CURVE SMOOTH",
"73 198 OFFCURVE",
"159 124 OFFCURVE",
"252 124 CURVE SMOOTH",
"367 124 OFFCURVE",
"420 169 OFFCURVE",
"458 275 CURVE",
"426 298 LINE",
"395 235 OFFCURVE",
"349 184 OFFCURVE",
"274 184 CURVE SMOOTH",
"204 184 OFFCURVE",
"141 227 OFFCURVE",
"141 311 CURVE SMOOTH",
"141 397 OFFCURVE",
"199 436 OFFCURVE",
"258 436 CURVE SMOOTH",
"291 436 OFFCURVE",
"309 427 OFFCURVE",
"323 413 CURVE",
"351 461 LINE",
"326 485 OFFCURVE",
"302 495 OFFCURVE",
"257 495 CURVE SMOOTH"
);
},
{
closed = 1;
nodes = (
"760 123 OFFCURVE",
"839 197 OFFCURVE",
"839 320 CURVE SMOOTH",
"839 428 OFFCURVE",
"756 499 OFFCURVE",
"660 499 CURVE SMOOTH",
"561 499 OFFCURVE",
"500 451 OFFCURVE",
"463 347 CURVE",
"496 324 LINE",
"524 385 OFFCURVE",
"572 439 OFFCURVE",
"647 439 CURVE SMOOTH",
"720 439 OFFCURVE",
"771 392 OFFCURVE",
"771 307 CURVE SMOOTH",
"771 228 OFFCURVE",
"718 182 OFFCURVE",
"666 182 CURVE SMOOTH",
"636 182 OFFCURVE",
"618 192 OFFCURVE",
"603 206 CURVE",
"575 150 LINE",
"598 132 OFFCURVE",
"621 123 OFFCURVE",
"665 123 CURVE SMOOTH"
);
},
{
closed = 1;
nodes = (
"-10 660 LINE",
"-10 604 LINE",
"922 604 LINE",
"922 660 LINE"
);
}
);
width = 912;
}
);
unicode = 0915;
},
{
glyphname = khadeva;
lastChange = "2014-08-27 12:05:06 +0100";
layers = (
{
anchors = (
{
name = DVAnchor0;
position = "{780, 0}";
},
{
name = DVAnchor3;
position = "{780, 660}";
}
);
layerId = "90FEB760-6DE5-46E5-A8E9-582C63BAB3AD";
name = Regular;
paths = (
{
closed = 1;
nodes = (
"745 627 LINE",
"745 5 LINE",
"815 5 LINE",
"815 627 LINE"
);
},
{
closed = 1;
nodes = (
"-10 660 LINE",
"-10 604 LINE",
"953 604 LINE",
"953 660 LINE"
);
},
{
closed = 1;
nodes = (
"488 516 OFFCURVE",
"421 453 OFFCURVE",
"421 356 CURVE SMOOTH",
"421 259 OFFCURVE",
"486 195 OFFCURVE",
"584 195 CURVE SMOOTH",
"689 195 OFFCURVE",
"744 263 OFFCURVE",
"781 344 CURVE",
"745 364 LINE",
"713 302 OFFCURVE",
"664 255 OFFCURVE",
"595 255 CURVE SMOOTH",
"529 255 OFFCURVE",
"489 294 OFFCURVE",
"489 359 CURVE SMOOTH",
"489 417 OFFCURVE",
"525 454 OFFCURVE",
"580 457 CURVE SMOOTH",
"610 459 OFFCURVE",
"632 449 OFFCURVE",
"648 431 CURVE",
"678 473 LINE",
"662 497 OFFCURVE",
"633 516 OFFCURVE",
"591 516 CURVE SMOOTH"
);
},
{
closed = 1;
nodes = (
"120 304 OFFCURVE",
"186 271 OFFCURVE",
"256 306 CURVE SMOOTH",
"305 332 OFFCURVE",
"324 378 OFFCURVE",
"324 456 CURVE SMOOTH",
"324 632 LINE",
"254 632 LINE",
"254 456 LINE SMOOTH",
"254 394 OFFCURVE",
"245 362 OFFCURVE",
"212 349 CURVE SMOOTH",
"172 333 OFFCURVE",
"129 363 OFFCURVE",
"106 409 CURVE",
"86 385 LINE"
);
},
{
closed = 1;
nodes = (
"676 92 OFFCURVE",
"578 65 OFFCURVE",
"515 65 CURVE SMOOTH",
"319 65 OFFCURVE",
"188 214 OFFCURVE",
"104 411 CURVE",
"48 387 LINE",
"141 163 OFFCURVE",
"290 5 OFFCURVE",
"508 5 CURVE SMOOTH",
"632 5 OFFCURVE",
"708 41 OFFCURVE",
"779 140 CURVE",
"745 169 LINE"
);
}
);
width = 943;
}
);
unicode = 0916;
},
{
glyphname = ddadeva;
lastChange = "2014-08-27 12:05:06 +0100";
layers = (
{
anchors = (
{
name = DVAnchor0;
position = "{332, 45}";
},
{
name = DVAnchor3;
position = "{467, 660}";
}
);
layerId = "90FEB760-6DE5-46E5-A8E9-582C63BAB3AD";
name = Regular;
paths = (
{
closed = 1;
nodes = (
"-10 660 LINE",
"-10 604 LINE",
"648 604 LINE",
"648 660 LINE"
);
},
{
closed = 1;
nodes = (
"432 627 LINE",
"432 441 LINE",
"502 441 LINE",
"502 627 LINE"
);
},
{
closed = 1;
nodes = (
"243 497 LINE SMOOTH",
"159 497 OFFCURVE",
"121 443 OFFCURVE",
"121 376 CURVE SMOOTH",
"121 283 OFFCURVE",
"203 225 OFFCURVE",
"290 225 CURVE SMOOTH",
"360 225 OFFCURVE",
"400 252 OFFCURVE",
"443 252 CURVE SMOOTH",
"476 252 OFFCURVE",
"497 229 OFFCURVE",
"497 190 CURVE SMOOTH",
"497 116 OFFCURVE",
"427 73 OFFCURVE",
"301 73 CURVE SMOOTH",
"214 73 OFFCURVE",
"138 113 OFFCURVE",
"101 200 CURVE",
"45 164 LINE",
"92 62 OFFCURVE",
"187 15 OFFCURVE",
"303 15 CURVE SMOOTH",
"431 15 OFFCURVE",
"561 61 OFFCURVE",
"561 189 CURVE SMOOTH",
"561 270 OFFCURVE",
"504 318 OFFCURVE",
"455 318 CURVE SMOOTH",
"405 318 OFFCURVE",
"361 288 OFFCURVE",
"302 288 CURVE SMOOTH",
"245 288 OFFCURVE",
"187 314 OFFCURVE",
"187 379 CURVE SMOOTH",
"187 423 OFFCURVE",
"212 441 OFFCURVE",
"248 441 CURVE SMOOTH",
"465 441 LINE",
"465 497 LINE"
);
}
);
width = 638;
}
);
unicode = 0921;
},
{
glyphname = tadeva;
lastChange = "2014-08-27 12:05:06 +0100";
layers = (
{
anchors = (
{
name = DVAnchor3;
position = "{522, 660}";
}
);
layerId = "90FEB760-6DE5-46E5-A8E9-582C63BAB3AD";
name = Regular;
paths = (
{
closed = 1;
nodes = (
"183 111 OFFCURVE",
"135 189 OFFCURVE",
"135 267 CURVE SMOOTH",
"135 344 OFFCURVE",
"173 391 OFFCURVE",
"271 391 CURVE SMOOTH",
"515 391 LINE",
"515 447 LINE",
"247 447 LINE SMOOTH",
"126 447 OFFCURVE",
"66 386 OFFCURVE",
"66 280 CURVE SMOOTH",
"66 137 OFFCURVE",
"150 54 OFFCURVE",
"296 0 CURVE",
"331 53 LINE"
);
},
{
closed = 1;
nodes = (
"487 627 LINE",
"487 0 LINE",
"557 0 LINE",
"557 627 LINE"
);
},
{
closed = 1;
nodes = (
"-10 660 LINE",
"-10 604 LINE",
"695 604 LINE",
"695 660 LINE"
);
}
);
width = 685;
}
);
unicode = 0924;
},
{
glyphname = thadeva;
lastChange = "2014-08-27 12:05:06 +0100";
layers = (
{
anchors = (
{
name = DVAnchor3;
position = "{569, 660}";
}
);
layerId = "90FEB760-6DE5-46E5-A8E9-582C63BAB3AD";
name = Regular;
paths = (
{
closed = 1;
nodes = (
"128 665 OFFCURVE",
"71 611 OFFCURVE",
"71 532 CURVE SMOOTH",
"71 493 OFFCURVE",
"90 457 OFFCURVE",
"123 433 CURVE",
"172 453 LINE",
"151 474 OFFCURVE",
"139 500 OFFCURVE",
"139 534 CURVE SMOOTH",
"139 567 OFFCURVE",
"169 605 OFFCURVE",
"223 605 CURVE SMOOTH",
"279 605 OFFCURVE",
"308 570 OFFCURVE",
"308 514 CURVE SMOOTH",
"308 428 OFFCURVE",
"239 374 OFFCURVE",
"39 334 CURVE",
"62 169 OFFCURVE",
"163 110 OFFCURVE",
"306 110 CURVE SMOOTH",
"463 110 OFFCURVE",
"546 192 OFFCURVE",
"576 307 CURVE",
"534 324 LINE",
"507 235 OFFCURVE",
"417 170 OFFCURVE",
"310 170 CURVE SMOOTH",
"192 170 OFFCURVE",
"115 233 OFFCURVE",
"109 293 CURVE",
"307 339 OFFCURVE",
"375 425 OFFCURVE",
"375 515 CURVE SMOOTH",
"375 598 OFFCURVE",
"331 665 OFFCURVE",
"227 665 CURVE SMOOTH"
);
},
{
closed = 1;
nodes = (
"534 627 LINE",
"534 0 LINE",
"604 0 LINE",
"604 627 LINE"
);
},
{
closed = 1;
nodes = (
"449 660 LINE",
"449 604 LINE",
"741 604 LINE",
"741 660 LINE"
);
}
);
width = 731;
}
);
unicode = 0925;
},
{
glyphname = dadeva;
lastChange = "2014-08-27 12:05:06 +0100";
layers = (
{
anchors = (
{
name = DVAnchor0;
position = "{553, 7}";
},
{
name = DVAnchor3;
position = "{449, 660}";
}
);
layerId = "90FEB760-6DE5-46E5-A8E9-582C63BAB3AD";
name = Regular;
paths = (
{
closed = 1;
nodes = (
"414 627 LINE",
"414 449 LINE",
"484 449 LINE",
"484 627 LINE"
);
},
{
closed = 1;
nodes = (
"-10 660 LINE",
"-10 604 LINE",
"629 604 LINE",
"629 660 LINE"
);
},
{
closed = 1;
nodes = (
"424 102 OFFCURVE",
"522 171 OFFCURVE",
"519 242 CURVE SMOOTH",
"515 334 OFFCURVE",
"393 314 OFFCURVE",
"397 226 CURVE SMOOTH",
"399 186 OFFCURVE",
"427 86 OFFCURVE",
"502 -42 CURVE",
"576 -26 LINE",
"511 62 OFFCURVE",
"452 133 OFFCURVE",
"449 226 CURVE SMOOTH",
"447 286 OFFCURVE",
"416 281 OFFCURVE",
"419 220 CURVE SMOOTH",
"421 177 OFFCURVE",
"332 162 OFFCURVE",
"280 162 CURVE SMOOTH",
"205 162 OFFCURVE",
"131 200 OFFCURVE",
"131 296 CURVE SMOOTH",
"131 371 OFFCURVE",
"181 418 OFFCURVE",
"277 418 CURVE SMOOTH",
"484 418 LINE",
"484 477 LINE",
"255 477 LINE SMOOTH",
"147 477 OFFCURVE",
"63 417 OFFCURVE",
"61 291 CURVE SMOOTH",
"59 176 OFFCURVE",
"145 102 OFFCURVE",
"284 102 CURVE SMOOTH"
);
}
);
width = 619;
}
);
unicode = 0926;
},
{
glyphname = dhadeva;
lastChange = "2014-08-27 12:05:06 +0100";
layers = (
{
anchors = (
{
name = DVAnchor3;
position = "{537, 660}";
}
);
layerId = "90FEB760-6DE5-46E5-A8E9-582C63BAB3AD";
name = Regular;
paths = (
{
closed = 1;
nodes = (
"193 416 OFFCURVE",
"68 383 OFFCURVE",
"68 262 CURVE SMOOTH",
"68 158 OFFCURVE",
"151 108 OFFCURVE",
"266 108 CURVE SMOOTH",
"391 108 OFFCURVE",
"500 168 OFFCURVE",
"562 239 CURVE",
"522 267 LINE",
"455 201 OFFCURVE",
"381 168 OFFCURVE",
"276 168 CURVE SMOOTH",
"178 168 OFFCURVE",
"134 205 OFFCURVE",
"134 266 CURVE SMOOTH",
"134 340 OFFCURVE",
"211 363 OFFCURVE",
"311 364 CURVE",
"294 417 LINE"
);
},
{
closed = 1;
nodes = (
"522 627 LINE",
"522 0 LINE",
"592 0 LINE",
"592 627 LINE"
);
},
{
closed = 1;
nodes = (
"391 660 LINE",
"391 604 LINE",
"729 604 LINE",
"729 660 LINE"
);
},
{
closed = 1;
nodes = (
"117 665 OFFCURVE",
"60 604 OFFCURVE",
"60 526 CURVE SMOOTH",
"60 419 OFFCURVE",
"176 366 OFFCURVE",
"311 364 CURVE",
"294 417 LINE",
"187 418 OFFCURVE",
"127 467 OFFCURVE",
"127 531 CURVE SMOOTH",
"127 571 OFFCURVE",
"157 605 OFFCURVE",
"201 605 CURVE SMOOTH",
"246 605 OFFCURVE",
"269 568 OFFCURVE",
"267 531 CURVE",
"318 554 LINE",
"327 631 OFFCURVE",
"281 665 OFFCURVE",
"207 665 CURVE SMOOTH"
);
}
);
width = 719;
}
);
unicode = 0927;
},
{
glyphname = padeva;
lastChange = "2014-08-27 12:05:06 +0100";
layers = (
{
anchors = (
{
name = DVAnchor3;
position = "{501, 660}";
}
);
layerId = "90FEB760-6DE5-46E5-A8E9-582C63BAB3AD";
name = Regular;
paths = (
{
closed = 1;
nodes = (
"111 627 LINE",
"111 339 LINE SMOOTH",
"111 226 OFFCURVE",
"189 174 OFFCURVE",
"283 174 CURVE SMOOTH",
"398 174 OFFCURVE",
"470 229 OFFCURVE",
"506 347 CURVE",
"466 368 LINE",
"437 288 OFFCURVE",
"376 234 OFFCURVE",
"306 234 CURVE SMOOTH",
"227 234 OFFCURVE",
"181 270 OFFCURVE",
"181 366 CURVE SMOOTH",
"181 627 LINE"
);
},
{
closed = 1;
nodes = (
"466 627 LINE",
"466 0 LINE",
"536 0 LINE",
"536 627 LINE"
);
},
{
closed = 1;
nodes = (
"-10 660 LINE",
"-10 604 LINE",
"673 604 LINE",
"673 660 LINE"
);
}
);
width = 663;
}
);
unicode = 092A;
},
{
glyphname = bhadeva;
lastChange = "2014-08-27 12:05:06 +0100";
layers = (
{
anchors = (
{
name = DVAnchor3;
position = "{576, 660}";
}
);
layerId = "90FEB760-6DE5-46E5-A8E9-582C63BAB3AD";
name = Regular;
paths = (
{
closed = 1;
nodes = (
"541 627 LINE",
"541 0 LINE",
"611 0 LINE",
"611 627 LINE"
);
},
{
closed = 1;
nodes = (
"400 660 LINE",
"400 604 LINE",
"750 604 LINE",
"750 660 LINE"
);
},
{
closed = 1;
nodes = (
"541 627 LINE",
"541 0 LINE",
"611 0 LINE",
"611 627 LINE"
);
},
{
closed = 1;
nodes = (
"400 660 LINE",
"400 604 LINE",
"750 604 LINE",
"750 660 LINE"
);
},
{
closed = 1;
nodes = (
"287 617 OFFCURVE",
"240 660 OFFCURVE",
"163 660 CURVE SMOOTH",
"91 660 OFFCURVE",
"35 621 OFFCURVE",
"35 548 CURVE SMOOTH",
"35 488 OFFCURVE",
"74 439 OFFCURVE",
"144 438 CURVE",
"165 488 LINE",
"118 490 OFFCURVE",
"96 512 OFFCURVE",
"96 542 CURVE SMOOTH",
"96 570 OFFCURVE",
"119 596 OFFCURVE",
"156 596 CURVE SMOOTH",
"202 596 OFFCURVE",
"217 571 OFFCURVE",
"217 509 CURVE SMOOTH",
"217 310 LINE SMOOTH",
"217 296 OFFCURVE",
"261 293 OFFCURVE",
"256 297 CURVE SMOOTH",
"251 301 OFFCURVE",
"245 307 OFFCURVE",
"240 313 CURVE SMOOTH",
"238 316 OFFCURVE",
"242 279 OFFCURVE",
"250 279 CURVE SMOOTH",
"568 279 LINE",
"568 335 LINE",
"193 335 LINE SMOOTH",
"161 335 OFFCURVE",
"132 295 OFFCURVE",
"149 271 CURVE SMOOTH",
"163 251 OFFCURVE",
"200 215 OFFCURVE",
"218 200 CURVE SMOOTH",
"244 179 OFFCURVE",
"287 198 OFFCURVE",
"287 227 CURVE SMOOTH",
"287 508 LINE SMOOTH"
);
}
);
width = 740;
}
);
unicode = 092D;
},
{
glyphname = vadeva;
lastChange = "2014-08-27 12:05:06 +0100";
layers = (
{
anchors = (
{
name = DVAnchor3;
position = "{490, 660}";
}
);
layerId = "90FEB760-6DE5-46E5-A8E9-582C63BAB3AD";
name = Regular;
paths = (
{
closed = 1;
nodes = (
"158 500 OFFCURVE",
"72 425 OFFCURVE",
"72 310 CURVE SMOOTH",
"72 192 OFFCURVE",
"158 117 OFFCURVE",
"270 117 CURVE SMOOTH",
"396 117 OFFCURVE",
"453 189 OFFCURVE",
"493 309 CURVE",
"455 322 LINE",
"417 230 OFFCURVE",
"362 177 OFFCURVE",
"277 177 CURVE SMOOTH",
"207 177 OFFCURVE",
"142 222 OFFCURVE",
"142 312 CURVE SMOOTH",
"142 396 OFFCURVE",
"201 438 OFFCURVE",
"263 438 CURVE SMOOTH",
"299 438 OFFCURVE",
"321 422 OFFCURVE",
"335 404 CURVE",
"377 451 LINE",
"355 479 OFFCURVE",
"323 500 OFFCURVE",
"265 500 CURVE SMOOTH"
);
},
{
closed = 1;
nodes = (
"455 627 LINE",
"455 0 LINE",
"525 0 LINE",
"525 627 LINE"
);
},
{
closed = 1;
nodes = (
"-10 660 LINE",
"-10 604 LINE",
"662 604 LINE",
"662 660 LINE"
);
}
);
width = 652;
}
);
unicode = 0935;
},
{
glyphname = ssadeva;
lastChange = "2014-08-27 12:05:06 +0100";
layers = (
{
anchors = (
{
name = DVAnchor3;
position = "{502, 660}";
}
);
components = (
{
name = padeva;
transform = "{1, 0, 0, 1, 13, 0}";
}
);
layerId = "90FEB760-6DE5-46E5-A8E9-582C63BAB3AD";
name = Regular;
paths = (
{
closed = 1;
nodes = (
"186 612 LINE",
"144 562 LINE",
"468 294 LINE",
"510 344 LINE"
);
}
);
width = 663;
}
);
unicode = 0937;
},
{
export = 0;
glyphname = "ga-deva.001";
lastChange = "2014-08-27 12:04:38 +0100";
layers = (
{
background = {
anchors = (
{
name = DVAnchor3;
position = "{469, 658}";
}
);
paths = (
{
closed = 1;
nodes = (
"135 415 LINE SMOOTH",
"153 415 OFFCURVE",
"166 432 OFFCURVE",
"166 449 CURVE SMOOTH",
"166 601 LINE",
"16 601 LINE",
"16 660 LINE",
"633 660 LINE",
"633 601 LINE",
"505 601 LINE",
"505 0 LINE",
"430 0 LINE",
"430 601 LINE",
"241 601 LINE",
"241 277 LINE SMOOTH",
"241 258 OFFCURVE",
"225 238 OFFCURVE",
"203 238 CURVE SMOOTH",
"185 238 OFFCURVE",
"155 258 OFFCURVE",
"114 300 CURVE SMOOTH",
"73 341 OFFCURVE",
"53 371 OFFCURVE",
"53 389 CURVE SMOOTH",
"53 403 OFFCURVE",
"67 415 OFFCURVE",
"82 415 CURVE SMOOTH"
);
}
);
};
layerId = "90FEB760-6DE5-46E5-A8E9-582C63BAB3AD";
name = Regular;
width = 612;
}
);
},
{
export = 0;
glyphname = "gha-deva.001";
lastChange = "2014-08-27 12:04:38 +0100";
layers = (
{
background = {
anchors = (
{
name = DVAnchor3;
position = "{605, 658}";
}
);
paths = (
{
closed = 1;
nodes = (
"186 277 CURVE SMOOTH",
"186 218 OFFCURVE",
"259 178 OFFCURVE",
"331 178 CURVE SMOOTH",
"431 178 OFFCURVE",
"510 240 OFFCURVE",
"564 297 CURVE",
"564 601 LINE",
"217 601 LINE",
"188 587 OFFCURVE",
"164 557 OFFCURVE",
"164 521 CURVE SMOOTH",
"164 469 OFFCURVE",
"230 435 OFFCURVE",
"292 435 CURVE SMOOTH",
"391 435 LINE",
"413 377 LINE",
"345 377 LINE SMOOTH",
"271 377 OFFCURVE",
"186 338 OFFCURVE"
);
},
{
closed = 1;
nodes = (
"89 521 CURVE SMOOTH",
"89 554 OFFCURVE",
"107 580 OFFCURVE",
"126 601 CURVE",
"16 601 LINE",
"16 660 LINE",
"768 660 LINE",
"768 601 LINE",
"640 601 LINE",
"640 0 LINE",
"564 0 LINE",
"564 211 LINE",
"508 162 OFFCURVE",
"428 112 OFFCURVE",
"331 112 CURVE SMOOTH",
"217 112 OFFCURVE",
"112 181 OFFCURVE",
"112 277 CURVE SMOOTH",
"112 333 OFFCURVE",
"150 374 OFFCURVE",
"194 395 CURVE",
"138 413 OFFCURVE",
"89 459 OFFCURVE"
);
}
);
};
layerId = "90FEB760-6DE5-46E5-A8E9-582C63BAB3AD";
name = Regular;
width = 747;
}
);
},
{
export = 0;
glyphname = "nga-deva.001";
lastChange = "2014-08-27 12:04:38 +0100";
layers = (
{
background = {
anchors = (
{
name = DVAnchor0;
position = "{478, 50}";
},
{
name = DVAnchor3;
position = "{597, 658}";
}
);
paths = (
{
closed = 1;
nodes = (
"829 377 CURVE SMOOTH",
"829 350 OFFCURVE",
"802 330 OFFCURVE",
"771 330 CURVE SMOOTH",
"742 330 OFFCURVE",
"715 352 OFFCURVE",
"715 377 CURVE SMOOTH",
"715 401 OFFCURVE",
"743 422 OFFCURVE",
"771 422 CURVE SMOOTH",
"801 422 OFFCURVE",
"829 402 OFFCURVE"
);
},
{
closed = 1;
nodes = (
"262 409 CURVE SMOOTH",
"262 459 OFFCURVE",
"317 495 OFFCURVE",
"376 495 CURVE SMOOTH",
"556 495 LINE",
"556 601 LINE",
"16 601 LINE",
"16 660 LINE",
"860 660 LINE",
"860 601 LINE",
"632 601 LINE",
"632 435 LINE",
"376 435 LINE SMOOTH",
"358 435 OFFCURVE",
"337 424 OFFCURVE",
"337 409 CURVE SMOOTH",
"337 376 OFFCURVE",
"413 297 OFFCURVE",
"451 297 CURVE SMOOTH",
"481 297 OFFCURVE",
"564 330 OFFCURVE",
"595 330 CURVE SMOOTH",
"658 330 OFFCURVE",
"708 280 OFFCURVE",
"708 224 CURVE SMOOTH",
"708 112 OFFCURVE",
"608 13 OFFCURVE",
"481 13 CURVE SMOOTH",
"409 13 OFFCURVE",
"334 39 OFFCURVE",
"257 93 CURVE SMOOTH",
"180 146 OFFCURVE",
"111 218 OFFCURVE",
"50 310 CURVE",
"112 350 LINE",
"167 266 OFFCURVE",
"227 200 OFFCURVE",
"293 152 CURVE SMOOTH",
"359 103 OFFCURVE",
"422 79 OFFCURVE",
"481 79 CURVE SMOOTH",
"566 79 OFFCURVE",
"632 148 OFFCURVE",
"632 224 CURVE SMOOTH",
"632 243 OFFCURVE",
"616 264 OFFCURVE",
"595 264 CURVE SMOOTH",
"564 264 OFFCURVE",
"481 231 OFFCURVE",
"451 231 CURVE SMOOTH",
"420 231 OFFCURVE",
"381 253 OFFCURVE",
"333 298 CURVE SMOOTH",
"286 343 OFFCURVE",
"262 380 OFFCURVE"
);
}
);
};
layerId = "90FEB760-6DE5-46E5-A8E9-582C63BAB3AD";
name = Regular;
width = 839;
}
);
},
{
export = 0;
glyphname = "ca-deva.001";
lastChange = "2014-08-27 12:04:38 +0100";
layers = (
{
background = {
anchors = (
{
name = DVAnchor3;
position = "{602, 658}";
}
);
paths = (
{
closed = 1;
nodes = (
"256 277 CURVE SMOOTH",
"256 226 OFFCURVE",
"304 184 OFFCURVE",
"362 184 CURVE SMOOTH",
"394 184 OFFCURVE",
"428 198 OFFCURVE",
"464 225 CURVE SMOOTH",
"501 253 OFFCURVE",
"534 290 OFFCURVE",
"565 337 CURVE",
"565 601 LINE",
"16 601 LINE",
"16 660 LINE",
"770 660 LINE",
"770 601 LINE",
"641 601 LINE",
"641 0 LINE",
"565 0 LINE",
"565 238 LINE",
"521 183 OFFCURVE",
"452 119 OFFCURVE",
"362 119 CURVE SMOOTH",
"262 119 OFFCURVE",
"181 190 OFFCURVE",
"181 277 CURVE SMOOTH",
"181 344 OFFCURVE",
"214 397 OFFCURVE",
"264 422 CURVE",
"45 422 LINE",
"45 489 LINE",
"490 489 LINE",
"490 422 LINE",
"385 422 LINE",
"320 401 OFFCURVE",
"256 350 OFFCURVE"
);
}
);
};
layerId = "90FEB760-6DE5-46E5-A8E9-582C63BAB3AD";
name = Regular;
width = 749;
}
);
},
{
export = 0;
glyphname = "cha-deva.001";
lastChange = "2014-08-27 12:04:38 +0100";
layers = (
{
background = {
anchors = (
{
name = DVAnchor0;
position = "{396, 60}";
},
{
name = DVAnchor3;
position = "{628, 658}";
}
);
paths = (
{
closed = 1;
nodes = (
"624 435 CURVE SMOOTH",
"578 435 OFFCURVE",
"542 398 OFFCURVE",
"542 357 CURVE SMOOTH",
"542 294 OFFCURVE",
"580 246 OFFCURVE",
"624 218 CURVE",
"673 247 OFFCURVE",
"715 298 OFFCURVE",
"715 363 CURVE SMOOTH",
"715 405 OFFCURVE",
"674 435 OFFCURVE"
);
},
{
closed = 1;
nodes = (
"201 218 CURVE SMOOTH",
"201 145 OFFCURVE",
"295 99 OFFCURVE",
"383 99 CURVE SMOOTH",
"462 99 OFFCURVE",
"524 130 OFFCURVE",
"572 165 CURVE",
"518 212 OFFCURVE",
"467 275 OFFCURVE",
"467 357 CURVE SMOOTH",
"467 429 OFFCURVE",
"516 491 OFFCURVE",
"587 501 CURVE",
"587 601 LINE",
"224 601 LINE",
"193 578 OFFCURVE",
"164 545 OFFCURVE",
"164 501 CURVE SMOOTH",
"164 446 OFFCURVE",
"233 409 OFFCURVE",
"300 409 CURVE SMOOTH",
"383 409 LINE",
"383 343 LINE",
"323 343 LINE SMOOTH",
"252 343 OFFCURVE",
"201 282 OFFCURVE"
);
},
{
closed = 1;
nodes = (
"663 501 LINE",
"733 490 OFFCURVE",
"791 434 OFFCURVE",
"791 363 CURVE SMOOTH",
"791 285 OFFCURVE",
"747 211 OFFCURVE",
"659 140 CURVE SMOOTH",
"571 68 OFFCURVE",
"479 33 OFFCURVE",
"383 33 CURVE SMOOTH",
"253 33 OFFCURVE",
"126 109 OFFCURVE",
"126 218 CURVE SMOOTH",
"126 286 OFFCURVE",
"162 341 OFFCURVE",
"209 370 CURVE",
"152 392 OFFCURVE",
"89 437 OFFCURVE",
"89 501 CURVE SMOOTH",
"89 544 OFFCURVE",
"105 583 OFFCURVE",
"134 601 CURVE",
"16 601 LINE",
"16 660 LINE",
"851 660 LINE",
"851 601 LINE",
"663 601 LINE"
);
}
);
};
layerId = "90FEB760-6DE5-46E5-A8E9-582C63BAB3AD";
name = Regular;
width = 830;
}
);
},
{
export = 0;
glyphname = "ja-deva.001";
lastChange = "2014-08-27 12:04:38 +0100";
layers = (
{
background = {
anchors = (
{
name = DVAnchor3;
position = "{707, 658}";
}
);
paths = (
{
closed = 1;
nodes = (
"547 231 CURVE SMOOTH",
"547 149 OFFCURVE",
"475 79 OFFCURVE",
"382 79 CURVE SMOOTH",
"327 79 OFFCURVE",
"270 111 OFFCURVE",
"211 175 CURVE SMOOTH",
"152 239 OFFCURVE",
"101 323 OFFCURVE",
"57 429 CURVE",
"125 455 LINE",
"164 361 OFFCURVE",
"206 286 OFFCURVE",
"253 229 CURVE SMOOTH",
"300 173 OFFCURVE",
"343 145 OFFCURVE",
"382 145 CURVE SMOOTH",
"433 145 OFFCURVE",
"472 185 OFFCURVE",
"472 231 CURVE SMOOTH",
"472 327 OFFCURVE",
"408 405 OFFCURVE",
"344 462 CURVE",
"669 462 LINE",
"669 601 LINE",
"16 601 LINE",
"16 660 LINE",
"873 660 LINE",
"873 601 LINE",
"745 601 LINE",
"745 0 LINE",
"669 0 LINE",
"669 395 LINE",
"487 395 LINE",
"523 353 OFFCURVE",
"547 299 OFFCURVE"
);
}
);
};
layerId = "90FEB760-6DE5-46E5-A8E9-582C63BAB3AD";
name = Regular;
width = 851;
}
);
},
{
export = 0;
glyphname = "jha-deva.001";
lastChange = "2014-08-27 12:04:38 +0100";
layers = (
{
background = {
anchors = (
{
name = DVAnchor3;
position = "{712, 658}";
}
);
paths = (
{
closed = 1;
nodes = (
"249 323 CURVE SMOOTH",
"275 323 OFFCURVE",
"351 350 OFFCURVE",
"377 350 CURVE SMOOTH",
"435 350 OFFCURVE",
"457 321 OFFCURVE",
"505 310 CURVE SMOOTH",
"525 306 OFFCURVE",
"548 303 OFFCURVE",
"573 303 CURVE SMOOTH",
"609 303 OFFCURVE",
"641 317 OFFCURVE",
"672 330 CURVE",
"672 601 LINE",
"460 601 LINE",
"460 442 LINE",
"195 442 LINE SMOOTH",
"180 442 OFFCURVE",
"158 435 OFFCURVE",
"158 422 CURVE SMOOTH",
"158 394 OFFCURVE",
"217 323 OFFCURVE"
);
},
{
closed = 1;
nodes = (
"301 72 CURVE",
"342 43 OFFCURVE",
"383 15 OFFCURVE",
"430 0 CURVE",
"392 -47 LINE",
"328 -21 OFFCURVE",
"272 13 OFFCURVE",
"226 53 CURVE",
"162 53 OFFCURVE",
"82 81 OFFCURVE",
"82 132 CURVE SMOOTH",
"82 162 OFFCURVE",
"109 184 OFFCURVE",
"143 184 CURVE SMOOTH",
"197 184 OFFCURVE",
"239 152 OFFCURVE",
"264 119 CURVE",
"336 130 OFFCURVE",
"414 175 OFFCURVE",
"414 244 CURVE SMOOTH",
"414 263 OFFCURVE",
"398 283 OFFCURVE",
"377 283 CURVE SMOOTH",
"351 283 OFFCURVE",
"275 258 OFFCURVE",
"249 258 CURVE SMOOTH",
"222 258 OFFCURVE",
"187 278 OFFCURVE",
"145 320 CURVE SMOOTH",
"103 361 OFFCURVE",
"82 395 OFFCURVE",
"82 422 CURVE SMOOTH",
"82 472 OFFCURVE",
"137 508 OFFCURVE",
"195 508 CURVE SMOOTH",
"385 508 LINE",
"385 601 LINE",
"16 601 LINE",
"16 660 LINE",
"875 660 LINE",
"875 601 LINE",
"747 601 LINE",
"747 0 LINE",
"672 0 LINE",
"672 264 LINE",
"643 253 OFFCURVE",
"610 244 OFFCURVE",
"573 244 CURVE SMOOTH",
"541 244 OFFCURVE",
"515 249 OFFCURVE",
"490 258 CURVE",
"490 150 OFFCURVE",
"410 89 OFFCURVE"
);
}
);
};
layerId = "90FEB760-6DE5-46E5-A8E9-582C63BAB3AD";
name = Regular;
width = 855;
}
);
},
{
export = 0;
glyphname = "nya-deva.001";
lastChange = "2014-08-27 12:04:38 +0100";
layers = (
{
background = {
anchors = (
{
name = DVAnchor3;
position = "{715, 658}";
}
);
paths = (
{
closed = 1;
nodes = (
"497 290 CURVE",
"479 200 OFFCURVE",
"394 119 OFFCURVE",
"278 119 CURVE SMOOTH",
"177 119 OFFCURVE",
"100 183 OFFCURVE",
"53 244 CURVE",
"105 290 LINE",
"138 240 OFFCURVE",
"199 184 OFFCURVE",
"278 184 CURVE SMOOTH",
"358 184 OFFCURVE",
"422 247 OFFCURVE",
"422 317 CURVE SMOOTH",
"422 376 OFFCURVE",
"368 429 OFFCURVE",
"301 429 CURVE SMOOTH",
"246 429 OFFCURVE",
"200 405 OFFCURVE",
"173 377 CURVE",
"121 429 LINE",
"163 466 OFFCURVE",
"223 495 OFFCURVE",
"301 495 CURVE SMOOTH",
"400 495 OFFCURVE",
"476 429 OFFCURVE",
"497 357 CURVE",
"511 342 OFFCURVE",
"541 337 OFFCURVE",
"573 337 CURVE SMOOTH",
"617 337 OFFCURVE",
"655 346 OFFCURVE",
"679 363 CURVE",
"679 601 LINE",
"16 601 LINE",
"16 660 LINE",
"883 660 LINE",
"883 601 LINE",
"755 601 LINE",
"755 0 LINE",
"679 0 LINE",
"679 290 LINE",
"647 281 OFFCURVE",
"610 271 OFFCURVE",
"573 271 CURVE SMOOTH",
"544 271 OFFCURVE",
"520 281 OFFCURVE"
);
}
);
};
layerId = "90FEB760-6DE5-46E5-A8E9-582C63BAB3AD";
name = Regular;
width = 862;
}
);
},
{
export = 0;
glyphname = "tta-deva.001";
lastChange = "2014-08-27 12:04:38 +0100";
layers = (
{
background = {
anchors = (
{
name = DVAnchor0;
position = "{399, 45}";
},
{
name = DVAnchor3;
position = "{509, 658}";
}
);
paths = (
{
closed = 1;
nodes = (
"656 126 LINE",
"613 61 OFFCURVE",
"515 13 OFFCURVE",
"400 13 CURVE SMOOTH",
"226 13 OFFCURVE",
"82 138 OFFCURVE",
"82 290 CURVE SMOOTH",
"82 384 OFFCURVE",
"158 469 OFFCURVE",
"264 469 CURVE SMOOTH",
"468 469 LINE",
"468 601 LINE",
"16 601 LINE",
"16 660 LINE",
"688 660 LINE",
"688 601 LINE",
"543 601 LINE",
"543 402 LINE",
"264 402 LINE SMOOTH",
"201 402 OFFCURVE",
"158 347 OFFCURVE",
"158 290 CURVE SMOOTH",
"158 175 OFFCURVE",
"268 79 OFFCURVE",
"400 79 CURVE SMOOTH",
"490 79 OFFCURVE",
"561 119 OFFCURVE",
"596 171 CURVE"
);
}
);
};
layerId = "90FEB760-6DE5-46E5-A8E9-582C63BAB3AD";
name = Regular;
width = 667;
}
);
},
{
export = 0;
glyphname = "ttha-deva.001";
lastChange = "2014-08-27 12:04:38 +0100";
layers = (
{
background = {
anchors = (
{
name = DVAnchor0;
position = "{389, 39}";
},
{
name = DVAnchor3;
position = "{510, 658}";
}
);
paths = (
{
closed = 1;
nodes = (
"632 218 CURVE SMOOTH",
"632 104 OFFCURVE",
"528 7 OFFCURVE",
"399 7 CURVE SMOOTH",
"320 7 OFFCURVE",
"247 37 OFFCURVE",
"181 96 CURVE SMOOTH",
"114 155 OFFCURVE",
"81 220 OFFCURVE",
"81 290 CURVE SMOOTH",
"81 389 OFFCURVE",
"166 475 OFFCURVE",
"277 475 CURVE SMOOTH",
"467 475 LINE",
"467 601 LINE",
"16 601 LINE",
"16 660 LINE",
"705 660 LINE",
"705 601 LINE",
"542 601 LINE",
"542 409 LINE",
"277 409 LINE SMOOTH",
"208 409 OFFCURVE",
"157 352 OFFCURVE",
"157 290 CURVE SMOOTH",
"157 186 OFFCURVE",
"279 72 OFFCURVE",
"399 72 CURVE SMOOTH",
"487 72 OFFCURVE",
"556 139 OFFCURVE",
"556 218 CURVE SMOOTH",
"556 280 OFFCURVE",
"511 330 OFFCURVE",
"467 363 CURVE",
"527 402 LINE",
"582 362 OFFCURVE",
"632 299 OFFCURVE"
);
}
);
};
layerId = "90FEB760-6DE5-46E5-A8E9-582C63BAB3AD";
name = Regular;
width = 683;
}
);
},
{
export = 0;
glyphname = "ddha-deva.001";
lastChange = "2014-08-27 12:04:38 +0100";
layers = (
{
background = {
anchors = (
{
name = DVAnchor0;
position = "{408, 47}";
},
{
name = DVAnchor3;
position = "{517, 658}";
}
);
paths = (
{
closed = 1;
nodes = (
"495 244 CURVE SMOOTH",
"457 244 OFFCURVE",
"427 218 OFFCURVE",
"427 184 CURVE SMOOTH",
"427 138 OFFCURVE",
"449 102 OFFCURVE",
"479 79 CURVE",
"530 88 OFFCURVE",
"570 127 OFFCURVE",
"570 178 CURVE SMOOTH",
"570 215 OFFCURVE",
"537 244 OFFCURVE"
);
},
{
closed = 1;
nodes = (
"80 297 CURVE SMOOTH",
"80 387 OFFCURVE",
"153 469 OFFCURVE",
"253 469 CURVE SMOOTH",
"472 469 LINE",
"472 601 LINE",
"16 601 LINE",
"16 660 LINE",
"704 660 LINE",
"704 601 LINE",
"547 601 LINE",
"547 402 LINE",
"253 402 LINE SMOOTH",
"195 402 OFFCURVE",
"155 350 OFFCURVE",
"155 297 CURVE SMOOTH",
"155 191 OFFCURVE",
"290 81 OFFCURVE",
"404 72 CURVE",
"372 95 OFFCURVE",
"351 136 OFFCURVE",
"351 184 CURVE SMOOTH",
"351 252 OFFCURVE",
"417 310 OFFCURVE",
"495 310 CURVE SMOOTH",
"576 310 OFFCURVE",
"646 249 OFFCURVE",
"646 178 CURVE SMOOTH",
"646 79 OFFCURVE",
"523 13 OFFCURVE",
"404 13 CURVE SMOOTH",
"245 13 OFFCURVE",
"80 158 OFFCURVE"
);
}
);
};
layerId = "90FEB760-6DE5-46E5-A8E9-582C63BAB3AD";
name = Regular;
width = 682;
}
);
},
{
export = 0;
glyphname = "nna-deva.001";
lastChange = "2014-08-27 12:04:38 +0100";
layers = (
{
background = {
anchors = (
{
name = DVAnchor0;
position = "{631, 29}";
},
{
name = DVAnchor3;
position = "{644, 658}";
}
);
paths = (
{
closed = 1;
nodes = (
"178 323 LINE SMOOTH",
"178 270 OFFCURVE",
"225 224 OFFCURVE",
"285 224 CURVE SMOOTH",
"342 224 OFFCURVE",
"383 272 OFFCURVE",
"383 323 CURVE SMOOTH",
"383 601 LINE",
"178 601 LINE"
);
},
{
closed = 1;
nodes = (
"459 323 LINE SMOOTH",
"459 236 OFFCURVE",
"382 159 OFFCURVE",
"285 159 CURVE SMOOTH",
"183 159 OFFCURVE",
"104 234 OFFCURVE",
"104 323 CURVE SMOOTH",
"104 601 LINE",
"16 601 LINE",
"16 660 LINE",
"806 660 LINE",
"806 601 LINE",
"678 601 LINE",
"678 0 LINE",
"602 0 LINE",
"602 601 LINE",
"459 601 LINE"
);
}
);
};
layerId = "90FEB760-6DE5-46E5-A8E9-582C63BAB3AD";
name = Regular;
width = 785;
}
);
},
{
export = 0;
glyphname = "na-deva.001";
lastChange = "2014-08-27 12:04:38 +0100";
layers = (
{
background = {
anchors = (
{
name = DVAnchor3;
position = "{547, 658}";
}
);
paths = (
{
closed = 1;
nodes = (
"242 271 LINE SMOOTH",
"242 251 OFFCURVE",
"226 231 OFFCURVE",
"205 231 CURVE SMOOTH",
"187 231 OFFCURVE",
"158 254 OFFCURVE",
"116 300 CURVE SMOOTH",
"74 346 OFFCURVE",
"54 378 OFFCURVE",
"54 395 CURVE SMOOTH",
"54 416 OFFCURVE",
"82 429 OFFCURVE",
"107 429 CURVE SMOOTH",
"506 429 LINE",
"506 601 LINE",
"16 601 LINE",
"16 660 LINE",
"711 660 LINE",
"711 601 LINE",
"582 601 LINE",
"582 0 LINE",
"506 0 LINE",
"506 363 LINE",
"287 363 LINE SMOOTH",
"268 363 OFFCURVE",
"242 353 OFFCURVE",
"242 337 CURVE SMOOTH"
);
}
);
};
layerId = "90FEB760-6DE5-46E5-A8E9-582C63BAB3AD";
name = Regular;
width = 689;
}
);
},
{
export = 0;
glyphname = "nnna-deva.001";
lastChange = "2014-08-27 12:04:38 +0100";
layers = (
{
background = {
anchors = (
{
name = DVAnchor3;
position = "{544, 660}";
}
);
components = (
{
name = nadeva;
transform = "{1, 0, 0, 1, 31, 0}";
}
);
paths = (
{
closed = 1;
nodes = (
"287 -7 LINE",
"227 40 LINE",
"287 92 LINE",
"349 40 LINE"
);
}
);
};
layerId = "90FEB760-6DE5-46E5-A8E9-582C63BAB3AD";
name = Regular;
width = 689;
}
);
},
{
export = 0;
glyphname = "ma-deva.001";
lastChange = "2014-08-27 12:04:38 +0100";
layers = (
{
background = {
anchors = (
{
name = DVAnchor3;
position = "{538, 658}";
}
);
paths = (
{
closed = 1;
nodes = (
"227 383 LINE",
"500 383 LINE",
"500 601 LINE",
"227 601 LINE"
);
},
{
closed = 1;
nodes = (
"54 350 CURVE SMOOTH",
"54 367 OFFCURVE",
"72 383 OFFCURVE",
"91 383 CURVE SMOOTH",
"152 383 LINE",
"152 601 LINE",
"16 601 LINE",
"16 660 LINE",
"704 660 LINE",
"704 601 LINE",
"574 601 LINE",
"574 0 LINE",
"500 0 LINE",
"500 317 LINE",
"227 317 LINE",
"227 271 LINE SMOOTH",
"227 255 OFFCURVE",
"220 231 OFFCURVE",
"205 231 CURVE SMOOTH",
"187 231 OFFCURVE",
"158 247 OFFCURVE",
"116 280 CURVE SMOOTH",
"74 313 OFFCURVE",
"54 337 OFFCURVE"
);
}
);
};
layerId = "90FEB760-6DE5-46E5-A8E9-582C63BAB3AD";
name = Regular;
width = 682;
}
);
},
{
export = 0;
glyphname = "ra-deva.001";
lastChange = "2014-08-27 12:04:38 +0100";
layers = (
{
background = {
anchors = (
{
name = DVAnchor3;
position = "{407, 658}";
}
);
paths = (
{
closed = 1;
nodes = (
"281 370 CURVE SMOOTH",
"328 370 OFFCURVE",
"363 407 OFFCURVE",
"363 449 CURVE SMOOTH",
"363 601 LINE",
"16 601 LINE",
"16 660 LINE",
"542 660 LINE",
"542 601 LINE",
"439 601 LINE",
"439 449 LINE SMOOTH",
"439 370 OFFCURVE",
"369 303 OFFCURVE",
"281 303 CURVE SMOOTH",
"259 303 OFFCURVE",
"240 310 OFFCURVE",
"219 317 CURVE",
"288 213 OFFCURVE",
"379 123 OFFCURVE",
"484 47 CURVE",
"439 0 LINE",
"280 116 OFFCURVE",
"147 269 OFFCURVE",
"54 442 CURVE",
"122 475 LINE",
"144 420 OFFCURVE",
"202 370 OFFCURVE"
);
}
);
};
layerId = "90FEB760-6DE5-46E5-A8E9-582C63BAB3AD";
name = Regular;
width = 520;
}
);
},
{
export = 0;
glyphname = "rra-deva.001";
lastChange = "2014-08-27 12:04:38 +0100";
layers = (
{
background = {
anchors = (
{
name = DVAnchor3;
position = "{411, 659}";
}
);
components = (
{
name = radeva;
transform = "{1, 0, 0, 1, 31, 0}";
}
);
paths = (
{
closed = 1;
nodes = (
"173 -7 LINE",
"113 40 LINE",
"173 92 LINE",
"233 40 LINE"
);
}
);
};
layerId = "90FEB760-6DE5-46E5-A8E9-582C63BAB3AD";
name = Regular;
width = 527;
}
);
},
{
export = 0;
glyphname = "lla-deva.001";
lastChange = "2014-08-27 12:04:38 +0100";
layers = (
{
background = {
anchors = (
{
name = DVAnchor0;
position = "{629, 100}";
},
{
name = DVAnchor3;
position = "{620, 658}";
}
);
paths = (
{
closed = 1;
nodes = (
"738 277 CURVE SMOOTH",
"738 343 OFFCURVE",
"695 415 OFFCURVE",
"624 415 CURVE SMOOTH",
"553 415 OFFCURVE",
"506 335 OFFCURVE",
"488 277 CURVE",
"506 233 OFFCURVE",
"528 198 OFFCURVE",
"553 171 CURVE SMOOTH",
"579 145 OFFCURVE",
"602 132 OFFCURVE",
"624 132 CURVE SMOOTH",
"697 132 OFFCURVE",
"738 209 OFFCURVE"
);
},
{
closed = 1;
nodes = (
"157 272 CURVE SMOOTH",
"157 203 OFFCURVE",
"210 139 OFFCURVE",
"285 139 CURVE SMOOTH",
"307 139 OFFCURVE",
"330 151 OFFCURVE",
"354 175 CURVE SMOOTH",
"378 199 OFFCURVE",
"397 231 OFFCURVE",
"413 271 CURVE",
"396 329 OFFCURVE",
"354 415 OFFCURVE",
"285 415 CURVE SMOOTH",
"207 415 OFFCURVE",
"157 342 OFFCURVE"
);
},
{
closed = 1;
nodes = (
"451 357 CURVE",
"474 409 OFFCURVE",
"516 465 OFFCURVE",
"579 475 CURVE",
"579 601 LINE",
"16 601 LINE",
"16 660 LINE",
"880 660 LINE",
"880 601 LINE",
"655 601 LINE",
"655 475 LINE",
"749 461 OFFCURVE",
"814 374 OFFCURVE",
"814 277 CURVE SMOOTH",
"814 174 OFFCURVE",
"738 72 OFFCURVE",
"624 72 CURVE SMOOTH",
"542 72 OFFCURVE",
"481 146 OFFCURVE",
"451 204 CURVE",
"421 148 OFFCURVE",
"363 72 OFFCURVE",
"285 72 CURVE SMOOTH",
"167 72 OFFCURVE",
"81 166 OFFCURVE",
"81 272 CURVE SMOOTH",
"81 378 OFFCURVE",
"166 475 OFFCURVE",
"285 475 CURVE SMOOTH",
"368 475 OFFCURVE",
"426 415 OFFCURVE"
);
}
);
};
layerId = "90FEB760-6DE5-46E5-A8E9-582C63BAB3AD";
name = Regular;
width = 859;
}
);
},
{
export = 0;
glyphname = "llla-deva.001";
lastChange = "2014-08-27 12:04:38 +0100";
layers = (
{
background = {
anchors = (
{
name = DVAnchor0;
position = "{658, 97}";
},
{
name = DVAnchor3;
position = "{615, 658}";
}
);
components = (
{
name = lladeva;
transform = "{1, 0, 0, 1, 31, 0}";
}
);
paths = (
{
closed = 1;
nodes = (
"451 -20 LINE",
"391 33 LINE",
"451 86 LINE",
"511 33 LINE"
);
}
);
};
layerId = "90FEB760-6DE5-46E5-A8E9-582C63BAB3AD";
name = Regular;
width = 857;
}
);
},
{
export = 0;
glyphname = "sha-deva.001";
lastChange = "2014-08-27 12:04:38 +0100";
layers = (
{
background = {
anchors = (
{
name = DVAnchor3;
position = "{650, 658}";
}
);
paths = (
{
closed = 1;
nodes = (
"459 601 LINE",
"459 660 LINE",
"814 660 LINE",
"814 601 LINE",
"686 601 LINE",
"686 0 LINE",
"610 0 LINE",
"610 601 LINE"
);
},
{
closed = 1;
nodes = (
"178 521 CURVE SMOOTH",
"178 482 OFFCURVE",
"211 449 OFFCURVE",
"254 449 CURVE SMOOTH",
"312 449 OFFCURVE",
"356 485 OFFCURVE",
"376 521 CURVE",
"359 560 OFFCURVE",
"323 607 OFFCURVE",
"269 607 CURVE SMOOTH",
"218 607 OFFCURVE",
"178 567 OFFCURVE"
);
},
{
closed = 1;
nodes = (
"467 449 CURVE SMOOTH",
"467 324 OFFCURVE",
"369 204 OFFCURVE",
"232 204 CURVE",
"451 47 LINE",
"405 0 LINE",
"66 251 LINE",
"104 297 LINE",
"126 281 OFFCURVE",
"143 270 OFFCURVE",
"156 262 CURVE SMOOTH",
"169 255 OFFCURVE",
"179 251 OFFCURVE",
"186 251 CURVE SMOOTH",
"304 251 OFFCURVE",
"391 345 OFFCURVE",
"391 449 CURVE",
"368 412 OFFCURVE",
"316 383 OFFCURVE",
"254 383 CURVE SMOOTH",
"171 383 OFFCURVE",
"104 448 OFFCURVE",
"104 521 CURVE SMOOTH",
"104 604 OFFCURVE",
"176 673 OFFCURVE",
"269 673 CURVE SMOOTH",
"389 673 OFFCURVE",
"467 558 OFFCURVE"
);
}
);
};
layerId = "90FEB760-6DE5-46E5-A8E9-582C63BAB3AD";
name = Regular;
width = 793;
}
);
},
{
export = 0;
glyphname = "sa-deva.001";
lastChange = "2014-08-27 12:04:38 +0100";
layers = (
{
background = {
anchors = (
{
name = DVAnchor3;
position = "{684, 659}";
}
);
paths = (
{
closed = 1;
nodes = (
"232 357 CURVE SMOOTH",
"274 357 OFFCURVE",
"308 385 OFFCURVE",
"308 422 CURVE SMOOTH",
"308 601 LINE",
"16 601 LINE",
"16 660 LINE",
"851 660 LINE",
"851 601 LINE",
"723 601 LINE",
"723 0 LINE",
"647 0 LINE",
"647 317 LINE",
"325 317 LINE",
"304 304 OFFCURVE",
"281 297 OFFCURVE",
"254 297 CURVE SMOOTH",
"244 297 OFFCURVE",
"231 300 OFFCURVE",
"224 303 CURVE",
"451 27 LINE",
"391 -7 LINE",
"50 415 LINE",
"112 455 LINE",
"134 413 OFFCURVE",
"175 357 OFFCURVE"
);
},
{
closed = 1;
nodes = (
"376 383 CURVE",
"647 383 LINE",
"647 601 LINE",
"383 601 LINE",
"383 422 LINE SMOOTH",
"383 408 OFFCURVE",
"380 395 OFFCURVE"
);
}
);
};
layerId = "90FEB760-6DE5-46E5-A8E9-582C63BAB3AD";
name = Regular;
width = 830;
}
);
},
{
export = 0;
glyphname = "ha-deva.001";
lastChange = "2014-08-27 12:04:38 +0100";
layers = (
{
background = {
anchors = (
{
name = DVAnchor0;
position = "{411, 2}";
},
{
name = DVAnchor3;
position = "{486, 660}";
}
);
paths = (
{
closed = 1;
nodes = (
"100 422 CURVE SMOOTH",
"100 472 OFFCURVE",
"155 508 OFFCURVE",
"214 508 CURVE SMOOTH",
"448 508 LINE",
"448 601 LINE",
"16 601 LINE",
"16 660 LINE",
"645 660 LINE",
"645 601 LINE",
"523 601 LINE",
"523 442 LINE",
"214 442 LINE SMOOTH",
"198 442 OFFCURVE",
"176 435 OFFCURVE",
"176 422 CURVE SMOOTH",
"176 378 OFFCURVE",
"220 346 OFFCURVE",
"259 330 CURVE",
"290 341 OFFCURVE",
"329 350 OFFCURVE",
"372 350 CURVE SMOOTH",
"476 350 OFFCURVE",
"577 292 OFFCURVE",
"577 204 CURVE SMOOTH",
"577 156 OFFCURVE",
"552 117 OFFCURVE",
"515 99 CURVE",
"455 145 LINE",
"478 156 OFFCURVE",
"501 176 OFFCURVE",
"501 204 CURVE SMOOTH",
"501 255 OFFCURVE",
"434 283 OFFCURVE",
"372 283 CURVE SMOOTH",
"282 283 OFFCURVE",
"176 244 OFFCURVE",
"176 171 CURVE SMOOTH",
"176 70 OFFCURVE",
"375 27 OFFCURVE",
"509 27 CURVE",
"493 -33 LINE",
"321 -33 OFFCURVE",
"100 36 OFFCURVE",
"100 171 CURVE SMOOTH",
"100 230 OFFCURVE",
"138 274 OFFCURVE",
"183 297 CURVE",
"144 326 OFFCURVE",
"100 369 OFFCURVE"
);
}
);
};
layerId = "90FEB760-6DE5-46E5-A8E9-582C63BAB3AD";
name = Regular;
width = 624;
}
);
},
{
export = 0;
glyphname = "qa-deva.001";
lastChange = "2014-08-27 12:04:38 +0100";
layers = (
{
background = {
anchors = (
{
name = DVAnchor0;
position = "{469, 23}";
},
{
name = DVAnchor3;
position = "{468, 658}";
}
);
components = (
{
name = kadeva;
transform = "{1, 0, 0, 1, 31, 0}";
}
);
paths = (
{
closed = 1;
nodes = (
"262 -13 LINE",
"201 40 LINE",
"262 92 LINE",
"323 40 LINE"
);
}
);
};
layerId = "90FEB760-6DE5-46E5-A8E9-582C63BAB3AD";
name = Regular;
width = 880;
}
);
},
{
export = 0;
glyphname = "khha-deva.001";
lastChange = "2014-08-27 12:04:38 +0100";
layers = (
{
background = {
anchors = (
{
name = DVAnchor3;
position = "{833, 658}";
}
);
components = (
{
name = khadeva;
transform = "{1, 0, 0, 1, 31, 0}";
}
);
paths = (
{
closed = 1;
nodes = (
"149 -13 LINE",
"81 40 LINE",
"149 92 LINE",
"217 40 LINE"
);
}
);
};
layerId = "90FEB760-6DE5-46E5-A8E9-582C63BAB3AD";
name = Regular;
width = 974;
}
);
},
{
export = 0;
glyphname = "ghha-deva.001";
lastChange = "2014-08-27 12:04:38 +0100";
layers = (
{
background = {
anchors = (
{
name = DVAnchor3;
position = "{476, 660}";
}
);
components = (
{
name = gadeva;
transform = "{1, 0, 0, 1, 31, 0}";
}
);
paths = (
{
closed = 1;
nodes = (
"181 -13 LINE",
"121 40 LINE",
"181 92 LINE",
"241 40 LINE"
);
}
);
};
layerId = "90FEB760-6DE5-46E5-A8E9-582C63BAB3AD";
name = Regular;
width = 612;
}
);
},
{
export = 0;
glyphname = "za-deva.001";
lastChange = "2014-08-27 12:04:38 +0100";
layers = (
{
background = {
anchors = (
{
name = DVAnchor3;
position = "{715, 658}";
}
);
components = (
{
name = jadeva;
transform = "{1, 0, 0, 1, 31, 0}";
}
);
paths = (
{
closed = 1;
nodes = (
"236 -13 LINE",
"168 40 LINE",
"236 92 LINE",
"304 40 LINE"
);
}
);
};
layerId = "90FEB760-6DE5-46E5-A8E9-582C63BAB3AD";
name = Regular;
width = 857;
}
);
},
{
export = 0;
glyphname = "dddha-deva.001";
lastChange = "2014-08-27 12:04:38 +0100";
layers = (
{
background = {
anchors = (
{
name = DVAnchor0;
position = "{493, 50}";
},
{
name = DVAnchor3;
position = "{601, 658}";
}
);
components = (
{
name = ddadeva;
transform = "{1, 0, 0, 1, 31, 0}";
}
);
paths = (
{
closed = 1;
nodes = (
"468 -132 LINE",
"400 -86 LINE",
"468 -40 LINE",
"536 -86 LINE"
);
}
);
};
layerId = "90FEB760-6DE5-46E5-A8E9-582C63BAB3AD";
name = Regular;
width = 743;
}
);
},
{
export = 0;
glyphname = "rha-deva.001";
lastChange = "2014-08-27 12:04:38 +0100";
layers = (
{
background = {
anchors = (
{
name = DVAnchor0;
position = "{408, 57}";
},
{
name = DVAnchor3;
position = "{515, 658}";
}
);
components = (
{
name = ddhadeva;
transform = "{1, 0, 0, 1, 31, 0}";
}
);
paths = (
{
closed = 1;
nodes = (
"395 -132 LINE",
"327 -86 LINE",
"395 -40 LINE",
"463 -86 LINE"
);
}
);
};
layerId = "90FEB760-6DE5-46E5-A8E9-582C63BAB3AD";
name = Regular;
width = 674;
}
);
},
{
export = 0;
glyphname = "fa-deva.001";
lastChange = "2014-08-27 12:04:38 +0100";
layers = (
{
background = {
anchors = (
{
name = DVAnchor0;
position = "{462, 21}";
},
{
name = DVAnchor3;
position = "{461, 658}";
}
);
components = (
{
name = phadeva;
transform = "{1, 0, 0, 1, 32, 0}";
}
);
paths = (
{
closed = 1;
nodes = (
"226 -7 LINE",
"166 43 LINE",
"226 92 LINE",
"286 43 LINE"
);
}
);
};
layerId = "90FEB760-6DE5-46E5-A8E9-582C63BAB3AD";
name = Regular;
width = 893;
}
);
},
{
export = 0;
glyphname = "yya-deva.001";
lastChange = "2014-08-27 12:04:38 +0100";
layers = (
{
background = {
anchors = (
{
name = DVAnchor3;
position = "{559, 659}";
}
);
components = (
{
name = yadeva;
transform = "{1, 0, 0, 1, 31, 0}";
}
);
paths = (
{
closed = 1;
nodes = (
"217 -7 LINE",
"157 40 LINE",
"217 92 LINE",
"277 40 LINE"
);
}
);
};
layerId = "90FEB760-6DE5-46E5-A8E9-582C63BAB3AD";
name = Regular;
width = 702;
}
);
},
{
export = 0;
glyphname = "sha-deva.mr.001";
lastChange = "2014-08-27 12:04:38 +0100";
layers = (
{
background = {
anchors = (
{
name = DVAnchor3;
position = "{650, 657}";
}
);
paths = (
{
closed = 1;
nodes = (
"104 421 LINE",
"153 452 OFFCURVE",
"188 472 OFFCURVE",
"247 480 CURVE",
"247 600 LINE",
"16 600 LINE",
"16 659 LINE",
"814 659 LINE",
"814 600 LINE",
"686 600 LINE",
"686 -1 LINE",
"610 -1 LINE",
"610 600 LINE",
"323 600 LINE",
"323 482 LINE",
"403 470 OFFCURVE",
"473 407 OFFCURVE",
"473 330 CURVE SMOOTH",
"473 256 OFFCURVE",
"408 184 OFFCURVE",
"346 166 CURVE",
"466 37 LINE",
"401 -2 LINE",
"265 145 LINE",
"255 141 OFFCURVE",
"246 140 OFFCURVE",
"237 140 CURVE SMOOTH",
"192 140 OFFCURVE",
"148 162 OFFCURVE",
"148 201 CURVE SMOOTH",
"148 228 OFFCURVE",
"180 246 OFFCURVE",
"211 246 CURVE SMOOTH",
"245 246 OFFCURVE",
"278 230 OFFCURVE",
"296 215 CURVE",
"345 230 OFFCURVE",
"395 274 OFFCURVE",
"395 330 CURVE SMOOTH",
"395 378 OFFCURVE",
"349 417 OFFCURVE",
"293 417 CURVE SMOOTH",
"233 417 OFFCURVE",
"196 397 OFFCURVE",
"154 370 CURVE"
);
}
);
};
layerId = "90FEB760-6DE5-46E5-A8E9-582C63BAB3AD";
name = Regular;
width = 793;
}
);
},
{
export = 0;
glyphname = "jha-deva.np.001";
lastChange = "2014-08-27 12:04:38 +0100";
layers = (
{
background = {
anchors = (
{
name = DVAnchor3;
position = "{628, 658}";
}
);
paths = (
{
closed = 1;
nodes = (
"301 204 CURVE SMOOTH",
"273 204 OFFCURVE",
"166 299 OFFCURVE",
"166 323 CURVE SMOOTH",
"166 339 OFFCURVE",
"184 350 OFFCURVE",
"203 350 CURVE SMOOTH",
"264 350 LINE",
"264 541 LINE SMOOTH",
"264 576 OFFCURVE",
"235 607 OFFCURVE",
"195 607 CURVE SMOOTH",
"162 607 OFFCURVE",
"127 589 OFFCURVE",
"127 561 CURVE SMOOTH",
"127 530 OFFCURVE",
"159 508 OFFCURVE",
"195 508 CURVE",
"195 442 LINE",
"119 442 OFFCURVE",
"53 495 OFFCURVE",
"53 561 CURVE SMOOTH",
"53 625 OFFCURVE",
"121 673 OFFCURVE",
"195 673 CURVE SMOOTH",
"275 673 OFFCURVE",
"340 612 OFFCURVE",
"340 541 CURVE SMOOTH",
"340 350 LINE",
"588 350 LINE",
"588 601 LINE",
"392 601 LINE",
"392 660 LINE",
"1083 659 LINE",
"1083 600 LINE",
"664 601 LINE",
"664 430 LINE",
"698 465 OFFCURVE",
"753 496 OFFCURVE",
"822 496 CURVE SMOOTH",
"930 496 OFFCURVE",
"1010 408 OFFCURVE",
"1010 311 CURVE SMOOTH",
"1010 217 OFFCURVE",
"965 143 OFFCURVE",
"911 86 CURVE",
"844 120 LINE",
"895 164 OFFCURVE",
"934 229 OFFCURVE",
"934 311 CURVE SMOOTH",
"934 371 OFFCURVE",
"888 429 OFFCURVE",
"822 429 CURVE SMOOTH",
"754 429 OFFCURVE",
"701 389 OFFCURVE",
"664 352 CURVE",
"664 0 LINE",
"588 0 LINE",
"588 283 LINE",
"340 283 LINE",
"340 231 LINE SMOOTH",
"340 215 OFFCURVE",
"320 204 OFFCURVE"
);
}
);
};
layerId = "90FEB760-6DE5-46E5-A8E9-582C63BAB3AD";
name = Regular;
width = 1061;
}
);
},
{
export = 0;
glyphname = "ga-deva.002";
lastChange = "2014-08-27 12:04:55 +0100";
layers = (
{
background = {
anchors = (
{
name = DVAnchor3;
position = "{469, 658}";
}
);
paths = (
{
closed = 1;
nodes = (
"135 415 LINE SMOOTH",
"153 415 OFFCURVE",
"166 432 OFFCURVE",
"166 449 CURVE SMOOTH",
"166 601 LINE",
"16 601 LINE",
"16 660 LINE",
"633 660 LINE",
"633 601 LINE",
"505 601 LINE",
"505 0 LINE",
"430 0 LINE",
"430 601 LINE",
"241 601 LINE",
"241 277 LINE SMOOTH",
"241 258 OFFCURVE",
"225 238 OFFCURVE",
"203 238 CURVE SMOOTH",
"185 238 OFFCURVE",
"155 258 OFFCURVE",
"114 300 CURVE SMOOTH",
"73 341 OFFCURVE",
"53 371 OFFCURVE",
"53 389 CURVE SMOOTH",
"53 403 OFFCURVE",
"67 415 OFFCURVE",
"82 415 CURVE SMOOTH"
);
}
);
};
layerId = "90FEB760-6DE5-46E5-A8E9-582C63BAB3AD";
name = Regular;
width = 612;
}
);
},
{
export = 0;
glyphname = "gha-deva.002";
lastChange = "2014-08-27 12:04:55 +0100";
layers = (
{
background = {
anchors = (
{
name = DVAnchor3;
position = "{605, 658}";
}
);
paths = (
{
closed = 1;
nodes = (
"186 277 CURVE SMOOTH",
"186 218 OFFCURVE",
"259 178 OFFCURVE",
"331 178 CURVE SMOOTH",
"431 178 OFFCURVE",
"510 240 OFFCURVE",
"564 297 CURVE",
"564 601 LINE",
"217 601 LINE",
"188 587 OFFCURVE",
"164 557 OFFCURVE",
"164 521 CURVE SMOOTH",
"164 469 OFFCURVE",
"230 435 OFFCURVE",
"292 435 CURVE SMOOTH",
"391 435 LINE",
"413 377 LINE",
"345 377 LINE SMOOTH",
"271 377 OFFCURVE",
"186 338 OFFCURVE"
);
},
{
closed = 1;
nodes = (
"89 521 CURVE SMOOTH",
"89 554 OFFCURVE",
"107 580 OFFCURVE",
"126 601 CURVE",
"16 601 LINE",
"16 660 LINE",
"768 660 LINE",
"768 601 LINE",
"640 601 LINE",
"640 0 LINE",
"564 0 LINE",
"564 211 LINE",
"508 162 OFFCURVE",
"428 112 OFFCURVE",
"331 112 CURVE SMOOTH",
"217 112 OFFCURVE",
"112 181 OFFCURVE",
"112 277 CURVE SMOOTH",
"112 333 OFFCURVE",
"150 374 OFFCURVE",
"194 395 CURVE",
"138 413 OFFCURVE",
"89 459 OFFCURVE"
);
}
);
};
layerId = "90FEB760-6DE5-46E5-A8E9-582C63BAB3AD";
name = Regular;
width = 747;
}
);
},
{
export = 0;
glyphname = "nga-deva.002";
lastChange = "2014-08-27 12:04:55 +0100";
layers = (
{
background = {
anchors = (
{
name = DVAnchor0;
position = "{478, 50}";
},
{
name = DVAnchor3;
position = "{597, 658}";
}
);
paths = (
{
closed = 1;
nodes = (
"829 377 CURVE SMOOTH",
"829 350 OFFCURVE",
"802 330 OFFCURVE",
"771 330 CURVE SMOOTH",
"742 330 OFFCURVE",
"715 352 OFFCURVE",
"715 377 CURVE SMOOTH",
"715 401 OFFCURVE",
"743 422 OFFCURVE",
"771 422 CURVE SMOOTH",
"801 422 OFFCURVE",
"829 402 OFFCURVE"
);
},
{
closed = 1;
nodes = (
"262 409 CURVE SMOOTH",
"262 459 OFFCURVE",
"317 495 OFFCURVE",
"376 495 CURVE SMOOTH",
"556 495 LINE",
"556 601 LINE",
"16 601 LINE",
"16 660 LINE",
"860 660 LINE",
"860 601 LINE",
"632 601 LINE",
"632 435 LINE",
"376 435 LINE SMOOTH",
"358 435 OFFCURVE",
"337 424 OFFCURVE",
"337 409 CURVE SMOOTH",
"337 376 OFFCURVE",
"413 297 OFFCURVE",
"451 297 CURVE SMOOTH",
"481 297 OFFCURVE",
"564 330 OFFCURVE",
"595 330 CURVE SMOOTH",
"658 330 OFFCURVE",
"708 280 OFFCURVE",
"708 224 CURVE SMOOTH",
"708 112 OFFCURVE",
"608 13 OFFCURVE",
"481 13 CURVE SMOOTH",
"409 13 OFFCURVE",
"334 39 OFFCURVE",
"257 93 CURVE SMOOTH",
"180 146 OFFCURVE",
"111 218 OFFCURVE",
"50 310 CURVE",
"112 350 LINE",
"167 266 OFFCURVE",
"227 200 OFFCURVE",
"293 152 CURVE SMOOTH",
"359 103 OFFCURVE",
"422 79 OFFCURVE",
"481 79 CURVE SMOOTH",
"566 79 OFFCURVE",
"632 148 OFFCURVE",
"632 224 CURVE SMOOTH",
"632 243 OFFCURVE",
"616 264 OFFCURVE",
"595 264 CURVE SMOOTH",
"564 264 OFFCURVE",
"481 231 OFFCURVE",
"451 231 CURVE SMOOTH",
"420 231 OFFCURVE",
"381 253 OFFCURVE",
"333 298 CURVE SMOOTH",
"286 343 OFFCURVE",
"262 380 OFFCURVE"
);
}
);
};
layerId = "90FEB760-6DE5-46E5-A8E9-582C63BAB3AD";
name = Regular;
width = 839;
}
);
},
{
export = 0;
glyphname = "ca-deva.002";
lastChange = "2014-08-27 12:04:55 +0100";
layers = (
{
background = {
anchors = (
{
name = DVAnchor3;
position = "{602, 658}";
}
);
paths = (
{
closed = 1;
nodes = (
"256 277 CURVE SMOOTH",
"256 226 OFFCURVE",
"304 184 OFFCURVE",
"362 184 CURVE SMOOTH",
"394 184 OFFCURVE",
"428 198 OFFCURVE",
"464 225 CURVE SMOOTH",
"501 253 OFFCURVE",
"534 290 OFFCURVE",
"565 337 CURVE",
"565 601 LINE",
"16 601 LINE",
"16 660 LINE",
"770 660 LINE",
"770 601 LINE",
"641 601 LINE",
"641 0 LINE",
"565 0 LINE",
"565 238 LINE",
"521 183 OFFCURVE",
"452 119 OFFCURVE",
"362 119 CURVE SMOOTH",
"262 119 OFFCURVE",
"181 190 OFFCURVE",
"181 277 CURVE SMOOTH",
"181 344 OFFCURVE",
"214 397 OFFCURVE",
"264 422 CURVE",
"45 422 LINE",
"45 489 LINE",
"490 489 LINE",
"490 422 LINE",
"385 422 LINE",
"320 401 OFFCURVE",
"256 350 OFFCURVE"
);
}
);
};
layerId = "90FEB760-6DE5-46E5-A8E9-582C63BAB3AD";
name = Regular;
width = 749;
}
);
},
{
export = 0;
glyphname = "cha-deva.002";
lastChange = "2014-08-27 12:04:55 +0100";
layers = (
{
background = {
anchors = (
{
name = DVAnchor0;
position = "{396, 60}";
},
{
name = DVAnchor3;
position = "{628, 658}";
}
);
paths = (
{
closed = 1;
nodes = (
"624 435 CURVE SMOOTH",
"578 435 OFFCURVE",
"542 398 OFFCURVE",
"542 357 CURVE SMOOTH",
"542 294 OFFCURVE",
"580 246 OFFCURVE",
"624 218 CURVE",
"673 247 OFFCURVE",
"715 298 OFFCURVE",
"715 363 CURVE SMOOTH",
"715 405 OFFCURVE",
"674 435 OFFCURVE"
);
},
{
closed = 1;
nodes = (
"201 218 CURVE SMOOTH",
"201 145 OFFCURVE",
"295 99 OFFCURVE",
"383 99 CURVE SMOOTH",
"462 99 OFFCURVE",
"524 130 OFFCURVE",
"572 165 CURVE",
"518 212 OFFCURVE",
"467 275 OFFCURVE",
"467 357 CURVE SMOOTH",
"467 429 OFFCURVE",
"516 491 OFFCURVE",
"587 501 CURVE",
"587 601 LINE",
"224 601 LINE",
"193 578 OFFCURVE",
"164 545 OFFCURVE",
"164 501 CURVE SMOOTH",
"164 446 OFFCURVE",
"233 409 OFFCURVE",
"300 409 CURVE SMOOTH",
"383 409 LINE",
"383 343 LINE",
"323 343 LINE SMOOTH",
"252 343 OFFCURVE",
"201 282 OFFCURVE"
);
},
{
closed = 1;
nodes = (
"663 501 LINE",
"733 490 OFFCURVE",
"791 434 OFFCURVE",
"791 363 CURVE SMOOTH",
"791 285 OFFCURVE",
"747 211 OFFCURVE",
"659 140 CURVE SMOOTH",
"571 68 OFFCURVE",
"479 33 OFFCURVE",
"383 33 CURVE SMOOTH",
"253 33 OFFCURVE",
"126 109 OFFCURVE",
"126 218 CURVE SMOOTH",
"126 286 OFFCURVE",
"162 341 OFFCURVE",
"209 370 CURVE",
"152 392 OFFCURVE",
"89 437 OFFCURVE",
"89 501 CURVE SMOOTH",
"89 544 OFFCURVE",
"105 583 OFFCURVE",
"134 601 CURVE",
"16 601 LINE",
"16 660 LINE",
"851 660 LINE",
"851 601 LINE",
"663 601 LINE"
);
}
);
};
layerId = "90FEB760-6DE5-46E5-A8E9-582C63BAB3AD";
name = Regular;
width = 830;
}
);
},
{
export = 0;
glyphname = "ja-deva.002";
lastChange = "2014-08-27 12:04:55 +0100";
layers = (
{
background = {
anchors = (
{
name = DVAnchor3;
position = "{707, 658}";
}
);
paths = (
{
closed = 1;
nodes = (
"547 231 CURVE SMOOTH",
"547 149 OFFCURVE",
"475 79 OFFCURVE",
"382 79 CURVE SMOOTH",
"327 79 OFFCURVE",
"270 111 OFFCURVE",
"211 175 CURVE SMOOTH",
"152 239 OFFCURVE",
"101 323 OFFCURVE",
"57 429 CURVE",
"125 455 LINE",
"164 361 OFFCURVE",
"206 286 OFFCURVE",
"253 229 CURVE SMOOTH",
"300 173 OFFCURVE",
"343 145 OFFCURVE",
"382 145 CURVE SMOOTH",
"433 145 OFFCURVE",
"472 185 OFFCURVE",
"472 231 CURVE SMOOTH",
"472 327 OFFCURVE",
"408 405 OFFCURVE",
"344 462 CURVE",
"669 462 LINE",
"669 601 LINE",
"16 601 LINE",
"16 660 LINE",
"873 660 LINE",
"873 601 LINE",
"745 601 LINE",
"745 0 LINE",
"669 0 LINE",
"669 395 LINE",
"487 395 LINE",
"523 353 OFFCURVE",
"547 299 OFFCURVE"
);
}
);
};
layerId = "90FEB760-6DE5-46E5-A8E9-582C63BAB3AD";
name = Regular;
width = 851;
}
);
},
{
export = 0;
glyphname = "jha-deva.002";
lastChange = "2014-08-27 12:04:55 +0100";
layers = (
{
background = {
anchors = (
{
name = DVAnchor3;
position = "{712, 658}";
}
);
paths = (
{
closed = 1;
nodes = (
"249 323 CURVE SMOOTH",
"275 323 OFFCURVE",
"351 350 OFFCURVE",
"377 350 CURVE SMOOTH",
"435 350 OFFCURVE",
"457 321 OFFCURVE",
"505 310 CURVE SMOOTH",
"525 306 OFFCURVE",
"548 303 OFFCURVE",
"573 303 CURVE SMOOTH",
"609 303 OFFCURVE",
"641 317 OFFCURVE",
"672 330 CURVE",
"672 601 LINE",
"460 601 LINE",
"460 442 LINE",
"195 442 LINE SMOOTH",
"180 442 OFFCURVE",
"158 435 OFFCURVE",
"158 422 CURVE SMOOTH",
"158 394 OFFCURVE",
"217 323 OFFCURVE"
);
},
{
closed = 1;
nodes = (
"301 72 CURVE",
"342 43 OFFCURVE",
"383 15 OFFCURVE",
"430 0 CURVE",
"392 -47 LINE",
"328 -21 OFFCURVE",
"272 13 OFFCURVE",
"226 53 CURVE",
"162 53 OFFCURVE",
"82 81 OFFCURVE",
"82 132 CURVE SMOOTH",
"82 162 OFFCURVE",
"109 184 OFFCURVE",
"143 184 CURVE SMOOTH",
"197 184 OFFCURVE",
"239 152 OFFCURVE",
"264 119 CURVE",
"336 130 OFFCURVE",
"414 175 OFFCURVE",
"414 244 CURVE SMOOTH",
"414 263 OFFCURVE",
"398 283 OFFCURVE",
"377 283 CURVE SMOOTH",
"351 283 OFFCURVE",
"275 258 OFFCURVE",
"249 258 CURVE SMOOTH",
"222 258 OFFCURVE",
"187 278 OFFCURVE",
"145 320 CURVE SMOOTH",
"103 361 OFFCURVE",
"82 395 OFFCURVE",
"82 422 CURVE SMOOTH",
"82 472 OFFCURVE",
"137 508 OFFCURVE",
"195 508 CURVE SMOOTH",
"385 508 LINE",
"385 601 LINE",
"16 601 LINE",
"16 660 LINE",
"875 660 LINE",
"875 601 LINE",
"747 601 LINE",
"747 0 LINE",
"672 0 LINE",
"672 264 LINE",
"643 253 OFFCURVE",
"610 244 OFFCURVE",
"573 244 CURVE SMOOTH",
"541 244 OFFCURVE",
"515 249 OFFCURVE",
"490 258 CURVE",
"490 150 OFFCURVE",
"410 89 OFFCURVE"
);
}
);
};
layerId = "90FEB760-6DE5-46E5-A8E9-582C63BAB3AD";
name = Regular;
width = 855;
}
);
},
{
export = 0;
glyphname = "nya-deva.002";
lastChange = "2014-08-27 12:04:55 +0100";
layers = (
{
background = {
anchors = (
{
name = DVAnchor3;
position = "{715, 658}";
}
);
paths = (
{
closed = 1;
nodes = (
"497 290 CURVE",
"479 200 OFFCURVE",
"394 119 OFFCURVE",
"278 119 CURVE SMOOTH",
"177 119 OFFCURVE",
"100 183 OFFCURVE",
"53 244 CURVE",
"105 290 LINE",
"138 240 OFFCURVE",
"199 184 OFFCURVE",
"278 184 CURVE SMOOTH",
"358 184 OFFCURVE",
"422 247 OFFCURVE",
"422 317 CURVE SMOOTH",
"422 376 OFFCURVE",
"368 429 OFFCURVE",
"301 429 CURVE SMOOTH",
"246 429 OFFCURVE",
"200 405 OFFCURVE",
"173 377 CURVE",
"121 429 LINE",
"163 466 OFFCURVE",
"223 495 OFFCURVE",
"301 495 CURVE SMOOTH",
"400 495 OFFCURVE",
"476 429 OFFCURVE",
"497 357 CURVE",
"511 342 OFFCURVE",
"541 337 OFFCURVE",
"573 337 CURVE SMOOTH",
"617 337 OFFCURVE",
"655 346 OFFCURVE",
"679 363 CURVE",
"679 601 LINE",
"16 601 LINE",
"16 660 LINE",
"883 660 LINE",
"883 601 LINE",
"755 601 LINE",
"755 0 LINE",
"679 0 LINE",
"679 290 LINE",
"647 281 OFFCURVE",
"610 271 OFFCURVE",
"573 271 CURVE SMOOTH",
"544 271 OFFCURVE",
"520 281 OFFCURVE"
);
}
);
};
layerId = "90FEB760-6DE5-46E5-A8E9-582C63BAB3AD";
name = Regular;
width = 862;
}
);
},
{
export = 0;
glyphname = "tta-deva.002";
lastChange = "2014-08-27 12:04:55 +0100";
layers = (
{
background = {
anchors = (
{
name = DVAnchor0;
position = "{399, 45}";
},
{
name = DVAnchor3;
position = "{509, 658}";
}
);
paths = (
{
closed = 1;
nodes = (
"656 126 LINE",
"613 61 OFFCURVE",
"515 13 OFFCURVE",
"400 13 CURVE SMOOTH",
"226 13 OFFCURVE",
"82 138 OFFCURVE",
"82 290 CURVE SMOOTH",
"82 384 OFFCURVE",
"158 469 OFFCURVE",
"264 469 CURVE SMOOTH",
"468 469 LINE",
"468 601 LINE",
"16 601 LINE",
"16 660 LINE",
"688 660 LINE",
"688 601 LINE",
"543 601 LINE",
"543 402 LINE",
"264 402 LINE SMOOTH",
"201 402 OFFCURVE",
"158 347 OFFCURVE",
"158 290 CURVE SMOOTH",
"158 175 OFFCURVE",
"268 79 OFFCURVE",
"400 79 CURVE SMOOTH",
"490 79 OFFCURVE",
"561 119 OFFCURVE",
"596 171 CURVE"
);
}
);
};
layerId = "90FEB760-6DE5-46E5-A8E9-582C63BAB3AD";
name = Regular;
width = 667;
}
);
},
{
export = 0;
glyphname = "ttha-deva.002";
lastChange = "2014-08-27 12:04:55 +0100";
layers = (
{
background = {
anchors = (
{
name = DVAnchor0;
position = "{389, 39}";
},
{
name = DVAnchor3;
position = "{510, 658}";
}
);
paths = (
{
closed = 1;
nodes = (
"632 218 CURVE SMOOTH",
"632 104 OFFCURVE",
"528 7 OFFCURVE",
"399 7 CURVE SMOOTH",
"320 7 OFFCURVE",
"247 37 OFFCURVE",
"181 96 CURVE SMOOTH",
"114 155 OFFCURVE",
"81 220 OFFCURVE",
"81 290 CURVE SMOOTH",
"81 389 OFFCURVE",
"166 475 OFFCURVE",
"277 475 CURVE SMOOTH",
"467 475 LINE",
"467 601 LINE",
"16 601 LINE",
"16 660 LINE",
"705 660 LINE",
"705 601 LINE",
"542 601 LINE",
"542 409 LINE",
"277 409 LINE SMOOTH",
"208 409 OFFCURVE",
"157 352 OFFCURVE",
"157 290 CURVE SMOOTH",
"157 186 OFFCURVE",
"279 72 OFFCURVE",
"399 72 CURVE SMOOTH",
"487 72 OFFCURVE",
"556 139 OFFCURVE",
"556 218 CURVE SMOOTH",
"556 280 OFFCURVE",
"511 330 OFFCURVE",
"467 363 CURVE",
"527 402 LINE",
"582 362 OFFCURVE",
"632 299 OFFCURVE"
);
}
);
};
layerId = "90FEB760-6DE5-46E5-A8E9-582C63BAB3AD";
name = Regular;
width = 683;
}
);
},
{
export = 0;
glyphname = "ddha-deva.002";
lastChange = "2014-08-27 12:04:55 +0100";
layers = (
{
background = {
anchors = (
{
name = DVAnchor0;
position = "{408, 47}";
},
{
name = DVAnchor3;
position = "{517, 658}";
}
);
paths = (
{
closed = 1;
nodes = (
"495 244 CURVE SMOOTH",
"457 244 OFFCURVE",
"427 218 OFFCURVE",
"427 184 CURVE SMOOTH",
"427 138 OFFCURVE",
"449 102 OFFCURVE",
"479 79 CURVE",
"530 88 OFFCURVE",
"570 127 OFFCURVE",
"570 178 CURVE SMOOTH",
"570 215 OFFCURVE",
"537 244 OFFCURVE"
);
},
{
closed = 1;
nodes = (
"80 297 CURVE SMOOTH",
"80 387 OFFCURVE",
"153 469 OFFCURVE",
"253 469 CURVE SMOOTH",
"472 469 LINE",
"472 601 LINE",
"16 601 LINE",
"16 660 LINE",
"704 660 LINE",
"704 601 LINE",
"547 601 LINE",
"547 402 LINE",
"253 402 LINE SMOOTH",
"195 402 OFFCURVE",
"155 350 OFFCURVE",
"155 297 CURVE SMOOTH",
"155 191 OFFCURVE",
"290 81 OFFCURVE",
"404 72 CURVE",
"372 95 OFFCURVE",
"351 136 OFFCURVE",
"351 184 CURVE SMOOTH",
"351 252 OFFCURVE",
"417 310 OFFCURVE",
"495 310 CURVE SMOOTH",
"576 310 OFFCURVE",
"646 249 OFFCURVE",
"646 178 CURVE SMOOTH",
"646 79 OFFCURVE",
"523 13 OFFCURVE",
"404 13 CURVE SMOOTH",
"245 13 OFFCURVE",
"80 158 OFFCURVE"
);
}
);
};
layerId = "90FEB760-6DE5-46E5-A8E9-582C63BAB3AD";
name = Regular;
width = 682;
}
);
},
{
export = 0;
glyphname = "nna-deva.002";
lastChange = "2014-08-27 12:04:55 +0100";
layers = (
{
background = {
anchors = (
{
name = DVAnchor0;
position = "{631, 29}";
},
{
name = DVAnchor3;
position = "{644, 658}";
}
);
paths = (
{
closed = 1;
nodes = (
"178 323 LINE SMOOTH",
"178 270 OFFCURVE",
"225 224 OFFCURVE",
"285 224 CURVE SMOOTH",
"342 224 OFFCURVE",
"383 272 OFFCURVE",
"383 323 CURVE SMOOTH",
"383 601 LINE",
"178 601 LINE"
);
},
{
closed = 1;
nodes = (
"459 323 LINE SMOOTH",
"459 236 OFFCURVE",
"382 159 OFFCURVE",
"285 159 CURVE SMOOTH",
"183 159 OFFCURVE",
"104 234 OFFCURVE",
"104 323 CURVE SMOOTH",
"104 601 LINE",
"16 601 LINE",
"16 660 LINE",
"806 660 LINE",
"806 601 LINE",
"678 601 LINE",
"678 0 LINE",
"602 0 LINE",
"602 601 LINE",
"459 601 LINE"
);
}
);
};
layerId = "90FEB760-6DE5-46E5-A8E9-582C63BAB3AD";
name = Regular;
width = 785;
}
);
},
{
export = 0;
glyphname = "na-deva.002";
lastChange = "2014-08-27 12:04:55 +0100";
layers = (
{
background = {
anchors = (
{
name = DVAnchor3;
position = "{547, 658}";
}
);
paths = (
{
closed = 1;
nodes = (
"242 271 LINE SMOOTH",
"242 251 OFFCURVE",
"226 231 OFFCURVE",
"205 231 CURVE SMOOTH",
"187 231 OFFCURVE",
"158 254 OFFCURVE",
"116 300 CURVE SMOOTH",
"74 346 OFFCURVE",
"54 378 OFFCURVE",
"54 395 CURVE SMOOTH",
"54 416 OFFCURVE",
"82 429 OFFCURVE",
"107 429 CURVE SMOOTH",
"506 429 LINE",
"506 601 LINE",
"16 601 LINE",
"16 660 LINE",
"711 660 LINE",
"711 601 LINE",
"582 601 LINE",
"582 0 LINE",
"506 0 LINE",
"506 363 LINE",
"287 363 LINE SMOOTH",
"268 363 OFFCURVE",
"242 353 OFFCURVE",
"242 337 CURVE SMOOTH"
);
}
);
};
layerId = "90FEB760-6DE5-46E5-A8E9-582C63BAB3AD";
name = Regular;
width = 689;
}
);
},
{
export = 0;
glyphname = "nnna-deva.002";
lastChange = "2014-08-27 12:04:55 +0100";
layers = (
{
background = {
anchors = (
{
name = DVAnchor3;
position = "{544, 660}";
}
);
components = (
{
name = nadeva;
transform = "{1, 0, 0, 1, 31, 0}";
}
);
paths = (
{
closed = 1;
nodes = (
"287 -7 LINE",
"227 40 LINE",
"287 92 LINE",
"349 40 LINE"
);
}
);
};
layerId = "90FEB760-6DE5-46E5-A8E9-582C63BAB3AD";
name = Regular;
width = 689;
}
);
},
{
export = 0;
glyphname = "ma-deva.002";
lastChange = "2014-08-27 12:04:55 +0100";
layers = (
{
background = {
anchors = (
{
name = DVAnchor3;
position = "{538, 658}";
}
);
paths = (
{
closed = 1;
nodes = (
"227 383 LINE",
"500 383 LINE",
"500 601 LINE",
"227 601 LINE"
);
},
{
closed = 1;
nodes = (
"54 350 CURVE SMOOTH",
"54 367 OFFCURVE",
"72 383 OFFCURVE",
"91 383 CURVE SMOOTH",
"152 383 LINE",
"152 601 LINE",
"16 601 LINE",
"16 660 LINE",
"704 660 LINE",
"704 601 LINE",
"574 601 LINE",
"574 0 LINE",
"500 0 LINE",
"500 317 LINE",
"227 317 LINE",
"227 271 LINE SMOOTH",
"227 255 OFFCURVE",
"220 231 OFFCURVE",
"205 231 CURVE SMOOTH",
"187 231 OFFCURVE",
"158 247 OFFCURVE",
"116 280 CURVE SMOOTH",
"74 313 OFFCURVE",
"54 337 OFFCURVE"
);
}
);
};
layerId = "90FEB760-6DE5-46E5-A8E9-582C63BAB3AD";
name = Regular;
width = 682;
}
);
},
{
export = 0;
glyphname = "ra-deva.002";
lastChange = "2014-08-27 12:04:55 +0100";
layers = (
{
background = {
anchors = (
{
name = DVAnchor3;
position = "{407, 658}";
}
);
paths = (
{
closed = 1;
nodes = (
"281 370 CURVE SMOOTH",
"328 370 OFFCURVE",
"363 407 OFFCURVE",
"363 449 CURVE SMOOTH",
"363 601 LINE",
"16 601 LINE",
"16 660 LINE",
"542 660 LINE",
"542 601 LINE",
"439 601 LINE",
"439 449 LINE SMOOTH",
"439 370 OFFCURVE",
"369 303 OFFCURVE",
"281 303 CURVE SMOOTH",
"259 303 OFFCURVE",
"240 310 OFFCURVE",
"219 317 CURVE",
"288 213 OFFCURVE",
"379 123 OFFCURVE",
"484 47 CURVE",
"439 0 LINE",
"280 116 OFFCURVE",
"147 269 OFFCURVE",
"54 442 CURVE",
"122 475 LINE",
"144 420 OFFCURVE",
"202 370 OFFCURVE"
);
}
);
};
layerId = "90FEB760-6DE5-46E5-A8E9-582C63BAB3AD";
name = Regular;
width = 520;
}
);
},
{
export = 0;
glyphname = "rra-deva.002";
lastChange = "2014-08-27 12:04:55 +0100";
layers = (
{
background = {
anchors = (
{
name = DVAnchor3;
position = "{411, 659}";
}
);
components = (
{
name = radeva;
transform = "{1, 0, 0, 1, 31, 0}";
}
);
paths = (
{
closed = 1;
nodes = (
"173 -7 LINE",
"113 40 LINE",
"173 92 LINE",
"233 40 LINE"
);
}
);
};
layerId = "90FEB760-6DE5-46E5-A8E9-582C63BAB3AD";
name = Regular;
width = 527;
}
);
},
{
export = 0;
glyphname = "lla-deva.002";
lastChange = "2014-08-27 12:04:55 +0100";
layers = (
{
background = {
anchors = (
{
name = DVAnchor0;
position = "{629, 100}";
},
{
name = DVAnchor3;
position = "{620, 658}";
}
);
paths = (
{
closed = 1;
nodes = (
"738 277 CURVE SMOOTH",
"738 343 OFFCURVE",
"695 415 OFFCURVE",
"624 415 CURVE SMOOTH",
"553 415 OFFCURVE",
"506 335 OFFCURVE",
"488 277 CURVE",
"506 233 OFFCURVE",
"528 198 OFFCURVE",
"553 171 CURVE SMOOTH",
"579 145 OFFCURVE",
"602 132 OFFCURVE",
"624 132 CURVE SMOOTH",
"697 132 OFFCURVE",
"738 209 OFFCURVE"
);
},
{
closed = 1;
nodes = (
"157 272 CURVE SMOOTH",
"157 203 OFFCURVE",
"210 139 OFFCURVE",
"285 139 CURVE SMOOTH",
"307 139 OFFCURVE",
"330 151 OFFCURVE",
"354 175 CURVE SMOOTH",
"378 199 OFFCURVE",
"397 231 OFFCURVE",
"413 271 CURVE",
"396 329 OFFCURVE",
"354 415 OFFCURVE",
"285 415 CURVE SMOOTH",
"207 415 OFFCURVE",
"157 342 OFFCURVE"
);
},
{
closed = 1;
nodes = (
"451 357 CURVE",
"474 409 OFFCURVE",
"516 465 OFFCURVE",
"579 475 CURVE",
"579 601 LINE",
"16 601 LINE",
"16 660 LINE",
"880 660 LINE",
"880 601 LINE",
"655 601 LINE",
"655 475 LINE",
"749 461 OFFCURVE",
"814 374 OFFCURVE",
"814 277 CURVE SMOOTH",
"814 174 OFFCURVE",
"738 72 OFFCURVE",
"624 72 CURVE SMOOTH",
"542 72 OFFCURVE",
"481 146 OFFCURVE",
"451 204 CURVE",
"421 148 OFFCURVE",
"363 72 OFFCURVE",
"285 72 CURVE SMOOTH",
"167 72 OFFCURVE",
"81 166 OFFCURVE",
"81 272 CURVE SMOOTH",
"81 378 OFFCURVE",
"166 475 OFFCURVE",
"285 475 CURVE SMOOTH",
"368 475 OFFCURVE",
"426 415 OFFCURVE"
);
}
);
};
layerId = "90FEB760-6DE5-46E5-A8E9-582C63BAB3AD";
name = Regular;
width = 859;
}
);
},
{
export = 0;
glyphname = "llla-deva.002";
lastChange = "2014-08-27 12:04:55 +0100";
layers = (
{
background = {
anchors = (
{
name = DVAnchor0;
position = "{658, 97}";
},
{
name = DVAnchor3;
position = "{615, 658}";
}
);
components = (
{
name = lladeva;
transform = "{1, 0, 0, 1, 31, 0}";
}
);
paths = (
{
closed = 1;
nodes = (
"451 -20 LINE",
"391 33 LINE",
"451 86 LINE",
"511 33 LINE"
);
}
);
};
layerId = "90FEB760-6DE5-46E5-A8E9-582C63BAB3AD";
name = Regular;
width = 857;
}
);
},
{
export = 0;
glyphname = "sha-deva.002";
lastChange = "2014-08-27 12:04:55 +0100";
layers = (
{
background = {
anchors = (
{
name = DVAnchor3;
position = "{650, 658}";
}
);
paths = (
{
closed = 1;
nodes = (
"459 601 LINE",
"459 660 LINE",
"814 660 LINE",
"814 601 LINE",
"686 601 LINE",
"686 0 LINE",
"610 0 LINE",
"610 601 LINE"
);
},
{
closed = 1;
nodes = (
"178 521 CURVE SMOOTH",
"178 482 OFFCURVE",
"211 449 OFFCURVE",
"254 449 CURVE SMOOTH",
"312 449 OFFCURVE",
"356 485 OFFCURVE",
"376 521 CURVE",
"359 560 OFFCURVE",
"323 607 OFFCURVE",
"269 607 CURVE SMOOTH",
"218 607 OFFCURVE",
"178 567 OFFCURVE"
);
},
{
closed = 1;
nodes = (
"467 449 CURVE SMOOTH",
"467 324 OFFCURVE",
"369 204 OFFCURVE",
"232 204 CURVE",
"451 47 LINE",
"405 0 LINE",
"66 251 LINE",
"104 297 LINE",
"126 281 OFFCURVE",
"143 270 OFFCURVE",
"156 262 CURVE SMOOTH",
"169 255 OFFCURVE",
"179 251 OFFCURVE",
"186 251 CURVE SMOOTH",
"304 251 OFFCURVE",
"391 345 OFFCURVE",
"391 449 CURVE",
"368 412 OFFCURVE",
"316 383 OFFCURVE",
"254 383 CURVE SMOOTH",
"171 383 OFFCURVE",
"104 448 OFFCURVE",
"104 521 CURVE SMOOTH",
"104 604 OFFCURVE",
"176 673 OFFCURVE",
"269 673 CURVE SMOOTH",
"389 673 OFFCURVE",
"467 558 OFFCURVE"
);
}
);
};
layerId = "90FEB760-6DE5-46E5-A8E9-582C63BAB3AD";
name = Regular;
width = 793;
}
);
},
{
export = 0;
glyphname = "sa-deva.002";
lastChange = "2014-08-27 12:04:55 +0100";
layers = (
{
background = {
anchors = (
{
name = DVAnchor3;
position = "{684, 659}";
}
);
paths = (
{
closed = 1;
nodes = (
"232 357 CURVE SMOOTH",
"274 357 OFFCURVE",
"308 385 OFFCURVE",
"308 422 CURVE SMOOTH",
"308 601 LINE",
"16 601 LINE",
"16 660 LINE",
"851 660 LINE",
"851 601 LINE",
"723 601 LINE",
"723 0 LINE",
"647 0 LINE",
"647 317 LINE",
"325 317 LINE",
"304 304 OFFCURVE",
"281 297 OFFCURVE",
"254 297 CURVE SMOOTH",
"244 297 OFFCURVE",
"231 300 OFFCURVE",
"224 303 CURVE",
"451 27 LINE",
"391 -7 LINE",
"50 415 LINE",
"112 455 LINE",
"134 413 OFFCURVE",
"175 357 OFFCURVE"
);
},
{
closed = 1;
nodes = (
"376 383 CURVE",
"647 383 LINE",
"647 601 LINE",
"383 601 LINE",
"383 422 LINE SMOOTH",
"383 408 OFFCURVE",
"380 395 OFFCURVE"
);
}
);
};
layerId = "90FEB760-6DE5-46E5-A8E9-582C63BAB3AD";
name = Regular;
width = 830;
}
);
},
{
export = 0;
glyphname = "ha-deva.002";
lastChange = "2014-08-27 12:04:55 +0100";
layers = (
{
background = {
anchors = (
{
name = DVAnchor0;
position = "{411, 2}";
},
{
name = DVAnchor3;
position = "{486, 660}";
}
);
paths = (
{
closed = 1;
nodes = (
"100 422 CURVE SMOOTH",
"100 472 OFFCURVE",
"155 508 OFFCURVE",
"214 508 CURVE SMOOTH",
"448 508 LINE",
"448 601 LINE",
"16 601 LINE",
"16 660 LINE",
"645 660 LINE",
"645 601 LINE",
"523 601 LINE",
"523 442 LINE",
"214 442 LINE SMOOTH",
"198 442 OFFCURVE",
"176 435 OFFCURVE",
"176 422 CURVE SMOOTH",
"176 378 OFFCURVE",
"220 346 OFFCURVE",
"259 330 CURVE",
"290 341 OFFCURVE",
"329 350 OFFCURVE",
"372 350 CURVE SMOOTH",
"476 350 OFFCURVE",
"577 292 OFFCURVE",
"577 204 CURVE SMOOTH",
"577 156 OFFCURVE",
"552 117 OFFCURVE",
"515 99 CURVE",
"455 145 LINE",
"478 156 OFFCURVE",
"501 176 OFFCURVE",
"501 204 CURVE SMOOTH",
"501 255 OFFCURVE",
"434 283 OFFCURVE",
"372 283 CURVE SMOOTH",
"282 283 OFFCURVE",
"176 244 OFFCURVE",
"176 171 CURVE SMOOTH",
"176 70 OFFCURVE",
"375 27 OFFCURVE",
"509 27 CURVE",
"493 -33 LINE",
"321 -33 OFFCURVE",
"100 36 OFFCURVE",
"100 171 CURVE SMOOTH",
"100 230 OFFCURVE",
"138 274 OFFCURVE",
"183 297 CURVE",
"144 326 OFFCURVE",
"100 369 OFFCURVE"
);
}
);
};
layerId = "90FEB760-6DE5-46E5-A8E9-582C63BAB3AD";
name = Regular;
width = 624;
}
);
},
{
export = 0;
glyphname = "qa-deva.002";
lastChange = "2014-08-27 12:04:55 +0100";
layers = (
{
background = {
anchors = (
{
name = DVAnchor0;
position = "{469, 23}";
},
{
name = DVAnchor3;
position = "{468, 658}";
}
);
components = (
{
name = kadeva;
transform = "{1, 0, 0, 1, 31, 0}";
}
);
paths = (
{
closed = 1;
nodes = (
"262 -13 LINE",
"201 40 LINE",
"262 92 LINE",
"323 40 LINE"
);
}
);
};
layerId = "90FEB760-6DE5-46E5-A8E9-582C63BAB3AD";
name = Regular;
width = 880;
}
);
},
{
export = 0;
glyphname = "khha-deva.002";
lastChange = "2014-08-27 12:04:55 +0100";
layers = (
{
background = {
anchors = (
{
name = DVAnchor3;
position = "{833, 658}";
}
);
components = (
{
name = khadeva;
transform = "{1, 0, 0, 1, 31, 0}";
}
);
paths = (
{
closed = 1;
nodes = (
"149 -13 LINE",
"81 40 LINE",
"149 92 LINE",
"217 40 LINE"
);
}
);
};
layerId = "90FEB760-6DE5-46E5-A8E9-582C63BAB3AD";
name = Regular;
width = 974;
}
);
},
{
export = 0;
glyphname = "ghha-deva.002";
lastChange = "2014-08-27 12:04:55 +0100";
layers = (
{
background = {
anchors = (
{
name = DVAnchor3;
position = "{476, 660}";
}
);
components = (
{
name = gadeva;
transform = "{1, 0, 0, 1, 31, 0}";
}
);
paths = (
{
closed = 1;
nodes = (
"181 -13 LINE",
"121 40 LINE",
"181 92 LINE",
"241 40 LINE"
);
}
);
};
layerId = "90FEB760-6DE5-46E5-A8E9-582C63BAB3AD";
name = Regular;
width = 612;
}
);
},
{
export = 0;
glyphname = "za-deva.002";
lastChange = "2014-08-27 12:04:55 +0100";
layers = (
{
background = {
anchors = (
{
name = DVAnchor3;
position = "{715, 658}";
}
);
components = (
{
name = jadeva;
transform = "{1, 0, 0, 1, 31, 0}";
}
);
paths = (
{
closed = 1;
nodes = (
"236 -13 LINE",
"168 40 LINE",
"236 92 LINE",
"304 40 LINE"
);
}
);
};
layerId = "90FEB760-6DE5-46E5-A8E9-582C63BAB3AD";
name = Regular;
width = 857;
}
);
},
{
export = 0;
glyphname = "dddha-deva.002";
lastChange = "2014-08-27 12:04:55 +0100";
layers = (
{
background = {
anchors = (
{
name = DVAnchor0;
position = "{493, 50}";
},
{
name = DVAnchor3;
position = "{601, 658}";
}
);
components = (
{
name = ddadeva;
transform = "{1, 0, 0, 1, 31, 0}";
}
);
paths = (
{
closed = 1;
nodes = (
"468 -132 LINE",
"400 -86 LINE",
"468 -40 LINE",
"536 -86 LINE"
);
}
);
};
layerId = "90FEB760-6DE5-46E5-A8E9-582C63BAB3AD";
name = Regular;
width = 743;
}
);
},
{
export = 0;
glyphname = "rha-deva.002";
lastChange = "2014-08-27 12:04:55 +0100";
layers = (
{
background = {
anchors = (
{
name = DVAnchor0;
position = "{408, 57}";
},
{
name = DVAnchor3;
position = "{515, 658}";
}
);
components = (
{
name = ddhadeva;
transform = "{1, 0, 0, 1, 31, 0}";
}
);
paths = (
{
closed = 1;
nodes = (
"395 -132 LINE",
"327 -86 LINE",
"395 -40 LINE",
"463 -86 LINE"
);
}
);
};
layerId = "90FEB760-6DE5-46E5-A8E9-582C63BAB3AD";
name = Regular;
width = 674;
}
);
},
{
export = 0;
glyphname = "fa-deva.002";
lastChange = "2014-08-27 12:04:55 +0100";
layers = (
{
background = {
anchors = (
{
name = DVAnchor0;
position = "{462, 21}";
},
{
name = DVAnchor3;
position = "{461, 658}";
}
);
components = (
{
name = phadeva;
transform = "{1, 0, 0, 1, 32, 0}";
}
);
paths = (
{
closed = 1;
nodes = (
"226 -7 LINE",
"166 43 LINE",
"226 92 LINE",
"286 43 LINE"
);
}
);
};
layerId = "90FEB760-6DE5-46E5-A8E9-582C63BAB3AD";
name = Regular;
width = 893;
}
);
},
{
export = 0;
glyphname = "yya-deva.002";
lastChange = "2014-08-27 12:04:55 +0100";
layers = (
{
background = {
anchors = (
{
name = DVAnchor3;
position = "{559, 659}";
}
);
components = (
{
name = yadeva;
transform = "{1, 0, 0, 1, 31, 0}";
}
);
paths = (
{
closed = 1;
nodes = (
"217 -7 LINE",
"157 40 LINE",
"217 92 LINE",
"277 40 LINE"
);
}
);
};
layerId = "90FEB760-6DE5-46E5-A8E9-582C63BAB3AD";
name = Regular;
width = 702;
}
);
},
{
export = 0;
glyphname = "sha-deva.mr.002";
lastChange = "2014-08-27 12:04:55 +0100";
layers = (
{
background = {
anchors = (
{
name = DVAnchor3;
position = "{650, 657}";
}
);
paths = (
{
closed = 1;
nodes = (
"104 421 LINE",
"153 452 OFFCURVE",
"188 472 OFFCURVE",
"247 480 CURVE",
"247 600 LINE",
"16 600 LINE",
"16 659 LINE",
"814 659 LINE",
"814 600 LINE",
"686 600 LINE",
"686 -1 LINE",
"610 -1 LINE",
"610 600 LINE",
"323 600 LINE",
"323 482 LINE",
"403 470 OFFCURVE",
"473 407 OFFCURVE",
"473 330 CURVE SMOOTH",
"473 256 OFFCURVE",
"408 184 OFFCURVE",
"346 166 CURVE",
"466 37 LINE",
"401 -2 LINE",
"265 145 LINE",
"255 141 OFFCURVE",
"246 140 OFFCURVE",
"237 140 CURVE SMOOTH",
"192 140 OFFCURVE",
"148 162 OFFCURVE",
"148 201 CURVE SMOOTH",
"148 228 OFFCURVE",
"180 246 OFFCURVE",
"211 246 CURVE SMOOTH",
"245 246 OFFCURVE",
"278 230 OFFCURVE",
"296 215 CURVE",
"345 230 OFFCURVE",
"395 274 OFFCURVE",
"395 330 CURVE SMOOTH",
"395 378 OFFCURVE",
"349 417 OFFCURVE",
"293 417 CURVE SMOOTH",
"233 417 OFFCURVE",
"196 397 OFFCURVE",
"154 370 CURVE"
);
}
);
};
layerId = "90FEB760-6DE5-46E5-A8E9-582C63BAB3AD";
name = Regular;
width = 793;
}
);
},
{
export = 0;
glyphname = "jha-deva.np.002";
lastChange = "2014-08-27 12:04:55 +0100";
layers = (
{
background = {
anchors = (
{
name = DVAnchor3;
position = "{628, 658}";
}
);
paths = (
{
closed = 1;
nodes = (
"301 204 CURVE SMOOTH",
"273 204 OFFCURVE",
"166 299 OFFCURVE",
"166 323 CURVE SMOOTH",
"166 339 OFFCURVE",
"184 350 OFFCURVE",
"203 350 CURVE SMOOTH",
"264 350 LINE",
"264 541 LINE SMOOTH",
"264 576 OFFCURVE",
"235 607 OFFCURVE",
"195 607 CURVE SMOOTH",
"162 607 OFFCURVE",
"127 589 OFFCURVE",
"127 561 CURVE SMOOTH",
"127 530 OFFCURVE",
"159 508 OFFCURVE",
"195 508 CURVE",
"195 442 LINE",
"119 442 OFFCURVE",
"53 495 OFFCURVE",
"53 561 CURVE SMOOTH",
"53 625 OFFCURVE",
"121 673 OFFCURVE",
"195 673 CURVE SMOOTH",
"275 673 OFFCURVE",
"340 612 OFFCURVE",
"340 541 CURVE SMOOTH",
"340 350 LINE",
"588 350 LINE",
"588 601 LINE",
"392 601 LINE",
"392 660 LINE",
"1083 659 LINE",
"1083 600 LINE",
"664 601 LINE",
"664 430 LINE",
"698 465 OFFCURVE",
"753 496 OFFCURVE",
"822 496 CURVE SMOOTH",
"930 496 OFFCURVE",
"1010 408 OFFCURVE",
"1010 311 CURVE SMOOTH",
"1010 217 OFFCURVE",
"965 143 OFFCURVE",
"911 86 CURVE",
"844 120 LINE",
"895 164 OFFCURVE",
"934 229 OFFCURVE",
"934 311 CURVE SMOOTH",
"934 371 OFFCURVE",
"888 429 OFFCURVE",
"822 429 CURVE SMOOTH",
"754 429 OFFCURVE",
"701 389 OFFCURVE",
"664 352 CURVE",
"664 0 LINE",
"588 0 LINE",
"588 283 LINE",
"340 283 LINE",
"340 231 LINE SMOOTH",
"340 215 OFFCURVE",
"320 204 OFFCURVE"
);
}
);
};
layerId = "90FEB760-6DE5-46E5-A8E9-582C63BAB3AD";
name = Regular;
width = 1061;
}
);
},
{
glyphname = ddadeva_viramadeva_ddadeva;
lastChange = "2014-08-27 12:07:10 +0100";
layers = (
{
anchors = (
{
name = DVAnchor0;
position = "{373, -113}";
}
);
layerId = "90FEB760-6DE5-46E5-A8E9-582C63BAB3AD";
name = Regular;
paths = (
{
closed = 1;
nodes = (
"-10 660 LINE",
"-10 604 LINE",
"706 604 LINE",
"706 660 LINE"
);
},
{
closed = 1;
nodes = (
"505 627 LINE",
"505 461 LINE",
"575 461 LINE",
"575 627 LINE"
);
},
{
closed = 1;
nodes = (
"226.581 191.928 LINE",
"179.713 189.428 OFFCURVE",
"140 161.795 OFFCURVE",
"140 113 CURVE SMOOTH",
"140 35.486 OFFCURVE",
"230.892 2 OFFCURVE",
"308 2 CURVE SMOOTH",
"387.152 2 OFFCURVE",
"470.152 31 OFFCURVE",
"505 31 CURVE SMOOTH",
"537.261 31 OFFCURVE",
"554.094 21.936 OFFCURVE",
"552.998 -13.156 CURVE SMOOTH",
"551.926 -54.933 OFFCURVE",
"482.337 -95 OFFCURVE",
"369 -95 CURVE SMOOTH",
"229.452 -95 OFFCURVE",
"145.474 -58.228 OFFCURVE",
"91.546 33.505 CURVE",
"48.736 -0.071 LINE",
"107.158 -86.358 OFFCURVE",
"191.327 -148 OFFCURVE",
"371 -148 CURVE SMOOTH",
"505.915 -148 OFFCURVE",
"614 -98.783 OFFCURVE",
"614 4 CURVE SMOOTH",
"614 83.022 OFFCURVE",
"566.431 94 OFFCURVE",
"524 94 CURVE SMOOTH",
"468.93 94 OFFCURVE",
"385.93 62 OFFCURVE",
"328 62 CURVE SMOOTH",
"247.566 62 OFFCURVE",
"204 89.229 OFFCURVE",
"204 121 CURVE SMOOTH",
"204 140.87 OFFCURVE",
"219.356 160.885 OFFCURVE",
"262.925 167.451 CURVE"
);
},
{
closed = 1;
nodes = (
"266 517 LINE SMOOTH",
"181.373 517 OFFCURVE",
"144 471.218 OFFCURVE",
"144 418 CURVE SMOOTH",
"144 329.434 OFFCURVE",
"230.928 296 OFFCURVE",
"308 296 CURVE SMOOTH",
"387.152 296 OFFCURVE",
"470.152 325 OFFCURVE",
"505 325 CURVE SMOOTH",
"537.261 325 OFFCURVE",
"554.094 315.936 OFFCURVE",
"552.998 280.844 CURVE SMOOTH",
"551.926 239.067 OFFCURVE",
"482.337 199 OFFCURVE",
"369 199 CURVE SMOOTH",
"229.452 199 OFFCURVE",
"145.474 235.772 OFFCURVE",
"91.546 327.505 CURVE",
"48.736 293.929 LINE",
"107.158 207.642 OFFCURVE",
"191.327 146 OFFCURVE",
"371 146 CURVE SMOOTH",
"505.915 146 OFFCURVE",
"614 195.217 OFFCURVE",
"614 298 CURVE SMOOTH",
"614 377.022 OFFCURVE",
"566.431 388 OFFCURVE",
"524 388 CURVE SMOOTH",
"468.93 388 OFFCURVE",
"385.93 356 OFFCURVE",
"328 356 CURVE SMOOTH",
"271.218 356 OFFCURVE",
"214 374.353 OFFCURVE",
"214 414 CURVE SMOOTH",
"214 445.557 OFFCURVE",
"235.383 461 OFFCURVE",
"271 461 CURVE SMOOTH",
"538 461 LINE",
"538 517 LINE"
);
}
);
width = 696;
}
);
},
{
glyphname = radeva_viramadeva;
lastChange = "2014-08-27 12:05:06 +0100";
layers = (
{
anchors = (
{
name = _DVAnchor3;
position = "{-166, 660}";
}
);
layerId = "90FEB760-6DE5-46E5-A8E9-582C63BAB3AD";
name = Regular;
paths = (
{
closed = 1;
nodes = (
"-146 1047 OFFCURVE",
"-354 894 OFFCURVE",
"-260 749 CURVE SMOOTH",
"-194 647 LINE",
"-130 647 LINE",
"-199 759 LINE SMOOTH",
"-268 872 OFFCURVE",
"-131 947 OFFCURVE",
"-42 870 CURVE",
"-13 922 LINE"
);
}
);
width = 0;
}
);
},
{
export = 0;
glyphname = tadeva_viramadeva_radeva;
lastChange = "2014-08-27 12:05:06 +0100";
layers = (
{
anchors = (
{
name = DVAnchor3;
position = "{465, 660}";
}
);
layerId = "90FEB760-6DE5-46E5-A8E9-582C63BAB3AD";
name = Regular;
paths = (
{
closed = 1;
nodes = (
"430 627 LINE",
"430 0 LINE",
"500 0 LINE",
"500 627 LINE"
);
},
{
closed = 1;
nodes = (
"-10 660 LINE",
"-10 604 LINE",
"639 604 LINE",
"639 660 LINE"
);
},
{
closed = 1;
nodes = (
"93 496 OFFCURVE",
"37 440 OFFCURVE",
"23 371 CURVE",
"81 337 LINE",
"96 415 OFFCURVE",
"132 436 OFFCURVE",
"181 436 CURVE SMOOTH",
"275 436 OFFCURVE",
"313 307 OFFCURVE",
"473 307 CURVE",
"473 363 LINE",
"346 363 OFFCURVE",
"330 496 OFFCURVE",
"183 496 CURVE SMOOTH"
);
},
{
closed = 1;
nodes = (
"120 118 LINE",
"154 69 LINE",
"463 257 LINE",
"431 308 LINE"
);
}
);
width = 629;
}
);
},
{
export = 0;
glyphname = "ra-deva_halant-deva.alt.001";
lastChange = "2014-08-27 12:04:38 +0100";
layers = (
{
background = {
paths = (
{
closed = 1;
nodes = (
"16 601 LINE",
"16 660 LINE",
"372 660 LINE",
"372 601 LINE"
);
},
{
closed = 1;
nodes = (
"387 317 LINE",
"351 301 OFFCURVE",
"309 290 OFFCURVE",
"259 290 CURVE SMOOTH",
"179 290 OFFCURVE",
"107 320 OFFCURVE",
"48 350 CURVE",
"48 409 LINE",
"113 382 OFFCURVE",
"180 357 OFFCURVE",
"259 357 CURVE SMOOTH",
"305 357 OFFCURVE",
"348 374 OFFCURVE",
"387 389 CURVE"
);
}
);
};
layerId = "90FEB760-6DE5-46E5-A8E9-582C63BAB3AD";
name = Regular;
width = 351;
}
);
},
{
export = 0;
glyphname = "sha-deva_halant-deva.alt.001";
lastChange = "2014-08-27 12:04:38 +0100";
layers = (
{
background = {
paths = (
{
closed = 1;
nodes = (
"269 613 CURVE SMOOTH",
"229 613 OFFCURVE",
"193 589 OFFCURVE",
"193 554 CURVE SMOOTH",
"193 509 OFFCURVE",
"238 474 OFFCURVE",
"277 455 CURVE",
"313 476 OFFCURVE",
"352 510 OFFCURVE",
"352 554 CURVE SMOOTH",
"352 590 OFFCURVE",
"313 613 OFFCURVE"
);
},
{
closed = 1;
nodes = (
"428 554 CURVE SMOOTH",
"428 502 OFFCURVE",
"384 458 OFFCURVE",
"345 429 CURVE",
"548 323 LINE",
"548 251 LINE",
"277 389 LINE",
"208 340 OFFCURVE",
"139 297 OFFCURVE",
"58 264 CURVE",
"20 310 LINE",
"95 348 OFFCURVE",
"160 381 OFFCURVE",
"216 422 CURVE",
"167 447 OFFCURVE",
"118 493 OFFCURVE",
"118 554 CURVE SMOOTH",
"118 624 OFFCURVE",
"189 680 OFFCURVE",
"269 680 CURVE SMOOTH",
"352 680 OFFCURVE",
"428 625 OFFCURVE"
);
}
);
};
layerId = "90FEB760-6DE5-46E5-A8E9-582C63BAB3AD";
name = Regular;
width = 415;
}
);
},
{
export = 0;
glyphname = "ka-deva_halant-deva_ladeva.001";
lastChange = "2014-08-27 12:04:38 +0100";
layers = (
{
background = {
anchors = (
{
name = DVAnchor0;
position = "{656, -110}";
},
{
name = DVAnchor3;
position = "{478, 659}";
}
);
paths = (
{
closed = 1;
nodes = (
"281 244 CURVE SMOOTH",
"358 244 OFFCURVE",
"419 285 OFFCURVE",
"439 337 CURVE",
"439 601 LINE",
"16 601 LINE",
"16 660 LINE",
"909 660 LINE",
"909 601 LINE",
"514 601 LINE",
"514 469 LINE",
"545 500 OFFCURVE",
"596 528 OFFCURVE",
"658 528 CURVE SMOOTH",
"764 528 OFFCURVE",
"839 437 OFFCURVE",
"839 343 CURVE SMOOTH",
"839 274 OFFCURVE",
"797 219 OFFCURVE",
"749 184 CURVE",
"688 224 LINE",
"725 251 OFFCURVE",
"764 292 OFFCURVE",
"764 343 CURVE SMOOTH",
"764 401 OFFCURVE",
"721 462 OFFCURVE",
"658 462 CURVE SMOOTH",
"582 462 OFFCURVE",
"514 410 OFFCURVE",
"514 350 CURVE SMOOTH",
"514 99 LINE",
"538 120 OFFCURVE",
"580 132 OFFCURVE",
"628 132 CURVE SMOOTH",
"707 132 OFFCURVE",
"779 81 OFFCURVE",
"779 13 CURVE SMOOTH",
"779 -66 OFFCURVE",
"704 -124 OFFCURVE",
"636 -152 CURVE",
"590 -99 LINE",
"643 -83 OFFCURVE",
"704 -43 OFFCURVE",
"704 13 CURVE SMOOTH",
"704 45 OFFCURVE",
"666 66 OFFCURVE",
"628 66 CURVE SMOOTH",
"558 66 OFFCURVE",
"506 17 OFFCURVE",
"477 -27 CURVE",
"409 13 LINE",
"415 27 OFFCURVE",
"426 41 OFFCURVE",
"439 47 CURVE",
"412 56 OFFCURVE",
"383 66 OFFCURVE",
"349 66 CURVE SMOOTH",
"292 66 OFFCURVE",
"235 35 OFFCURVE",
"235 -13 CURVE SMOOTH",
"235 -62 OFFCURVE",
"328 -89 OFFCURVE",
"386 -99 CURVE",
"371 -159 LINE",
"279 -144 OFFCURVE",
"159 -96 OFFCURVE",
"159 -13 CURVE SMOOTH",
"159 68 OFFCURVE",
"252 126 OFFCURVE",
"349 126 CURVE SMOOTH",
"385 126 OFFCURVE",
"414 117 OFFCURVE",
"439 106 CURVE",
"439 238 LINE",
"401 205 OFFCURVE",
"349 178 OFFCURVE",
"281 178 CURVE SMOOTH",
"169 178 OFFCURVE",
"76 255 OFFCURVE",
"76 353 CURVE SMOOTH",
"76 450 OFFCURVE",
"169 528 OFFCURVE",
"281 528 CURVE SMOOTH",
"328 528 OFFCURVE",
"368 521 OFFCURVE",
"401 508 CURVE",
"378 449 LINE",
"353 458 OFFCURVE",
"319 462 OFFCURVE",
"281 462 CURVE SMOOTH",
"211 462 OFFCURVE",
"152 411 OFFCURVE",
"152 350 CURVE SMOOTH",
"152 291 OFFCURVE",
"212 244 OFFCURVE"
);
}
);
};
layerId = "90FEB760-6DE5-46E5-A8E9-582C63BAB3AD";
name = Regular;
width = 887;
}
);
},
{
export = 0;
glyphname = "ka-deva_halant-deva.001";
lastChange = "2014-08-27 12:04:38 +0100";
layers = (
{
background = {
paths = (
{
closed = 1;
nodes = (
"286 204 CURVE SMOOTH",
"348 204 OFFCURVE",
"395 256 OFFCURVE",
"422 297 CURVE",
"422 601 LINE",
"16 601 LINE",
"16 660 LINE",
"709 660 LINE",
"709 601 LINE",
"497 601 LINE",
"497 422 LINE",
"529 462 OFFCURVE",
"585 495 OFFCURVE",
"656 495 CURVE SMOOTH",
"681 495 OFFCURVE",
"702 489 OFFCURVE",
"724 482 CURVE",
"724 409 LINE",
"708 424 OFFCURVE",
"685 435 OFFCURVE",
"656 435 CURVE SMOOTH",
"571 435 OFFCURVE",
"497 371 OFFCURVE",
"497 303 CURVE SMOOTH",
"497 0 LINE",
"422 0 LINE",
"422 198 LINE",
"389 168 OFFCURVE",
"344 139 OFFCURVE",
"286 139 CURVE SMOOTH",
"174 139 OFFCURVE",
"75 213 OFFCURVE",
"75 310 CURVE SMOOTH",
"75 413 OFFCURVE",
"176 495 OFFCURVE",
"294 495 CURVE SMOOTH",
"326 495 OFFCURVE",
"352 490 OFFCURVE",
"377 482 CURVE",
"369 422 LINE",
"349 431 OFFCURVE",
"323 435 OFFCURVE",
"294 435 CURVE SMOOTH",
"216 435 OFFCURVE",
"150 378 OFFCURVE",
"150 310 CURVE SMOOTH",
"150 250 OFFCURVE",
"216 204 OFFCURVE"
);
}
);
};
layerId = "90FEB760-6DE5-46E5-A8E9-582C63BAB3AD";
name = Regular;
width = 688;
}
);
},
{
export = 0;
glyphname = "ka-deva_halant-deva_ka-deva.001";
lastChange = "2014-08-27 12:04:38 +0100";
layers = (
{
background = {
anchors = (
{
name = DVAnchor0;
position = "{487, 31}";
},
{
name = DVAnchor3;
position = "{485, 660}";
}
);
paths = (
{
closed = 1;
nodes = (
"687 455 CURVE SMOOTH",
"610 455 OFFCURVE",
"550 415 OFFCURVE",
"520 370 CURVE",
"520 277 LINE",
"553 311 OFFCURVE",
"610 337 OFFCURVE",
"679 337 CURVE SMOOTH",
"702 337 OFFCURVE",
"728 337 OFFCURVE",
"740 330 CURVE",
"759 344 OFFCURVE",
"770 366 OFFCURVE",
"770 395 CURVE SMOOTH",
"770 432 OFFCURVE",
"730 455 OFFCURVE"
);
},
{
closed = 1;
nodes = (
"166 191 CURVE SMOOTH",
"166 160 OFFCURVE",
"223 145 OFFCURVE",
"264 145 CURVE SMOOTH",
"347 145 OFFCURVE",
"413 183 OFFCURVE",
"445 231 CURVE",
"445 297 LINE",
"410 283 OFFCURVE",
"369 279 OFFCURVE",
"317 271 CURVE SMOOTH",
"262 261 OFFCURVE",
"166 236 OFFCURVE"
);
},
{
closed = 1;
nodes = (
"294 323 CURVE SMOOTH",
"359 323 OFFCURVE",
"412 341 OFFCURVE",
"445 370 CURVE",
"445 601 LINE",
"16 601 LINE",
"16 660 LINE",
"928 660 LINE",
"928 601 LINE",
"520 601 LINE",
"520 449 LINE",
"557 486 OFFCURVE",
"615 521 OFFCURVE",
"687 521 CURVE SMOOTH",
"769 521 OFFCURVE",
"846 466 OFFCURVE",
"846 395 CURVE SMOOTH",
"846 352 OFFCURVE",
"825 313 OFFCURVE",
"800 290 CURVE",
"824 278 OFFCURVE",
"846 250 OFFCURVE",
"846 218 CURVE SMOOTH",
"846 145 OFFCURVE",
"780 87 OFFCURVE",
"724 47 CURVE",
"679 99 LINE",
"725 121 OFFCURVE",
"770 162 OFFCURVE",
"770 218 CURVE SMOOTH",
"770 254 OFFCURVE",
"729 277 OFFCURVE",
"687 277 CURVE SMOOTH",
"616 277 OFFCURVE",
"557 237 OFFCURVE",
"520 198 CURVE",
"520 0 LINE",
"445 0 LINE",
"445 152 LINE",
"407 113 OFFCURVE",
"343 86 OFFCURVE",
"264 86 CURVE SMOOTH",
"182 86 OFFCURVE",
"90 125 OFFCURVE",
"90 191 CURVE SMOOTH",
"90 238 OFFCURVE",
"137 270 OFFCURVE",
"181 283 CURVE",
"134 299 OFFCURVE",
"90 337 OFFCURVE",
"90 389 CURVE SMOOTH",
"90 467 OFFCURVE",
"192 514 OFFCURVE",
"286 514 CURVE SMOOTH",
"342 514 OFFCURVE",
"392 492 OFFCURVE",
"430 469 CURVE",
"392 422 LINE",
"364 440 OFFCURVE",
"329 455 OFFCURVE",
"286 455 CURVE SMOOTH",
"232 455 OFFCURVE",
"166 433 OFFCURVE",
"166 389 CURVE SMOOTH",
"166 345 OFFCURVE",
"238 323 OFFCURVE"
);
}
);
};
layerId = "90FEB760-6DE5-46E5-A8E9-582C63BAB3AD";
name = Regular;
width = 907;
}
);
},
{
export = 0;
glyphname = "ka-deva_halant-deva_ta-deva.001";
lastChange = "2014-08-27 12:04:38 +0100";
layers = (
{
background = {
anchors = (
{
name = DVAnchor0;
position = "{526, 23}";
},
{
name = DVAnchor3;
position = "{523, 658}";
}
);
paths = (
{
closed = 1;
nodes = (
"127 251 CURVE SMOOTH",
"127 301 OFFCURVE",
"151 346 OFFCURVE",
"188 363 CURVE",
"53 363 LINE",
"53 422 LINE",
"483 422 LINE",
"483 601 LINE",
"16 601 LINE",
"16 660 LINE",
"969 660 LINE",
"969 601 LINE",
"559 601 LINE",
"559 395 LINE",
"589 415 OFFCURVE",
"635 429 OFFCURVE",
"687 429 CURVE SMOOTH",
"801 429 OFFCURVE",
"898 350 OFFCURVE",
"898 251 CURVE SMOOTH",
"898 160 OFFCURVE",
"870 83 OFFCURVE",
"823 33 CURVE",
"762 59 LINE",
"800 106 OFFCURVE",
"823 172 OFFCURVE",
"823 251 CURVE SMOOTH",
"823 315 OFFCURVE",
"760 370 OFFCURVE",
"687 370 CURVE SMOOTH",
"631 370 OFFCURVE",
"584 351 OFFCURVE",
"559 323 CURVE",
"559 0 LINE",
"483 0 LINE",
"483 363 LINE",
"301 363 LINE",
"246 355 OFFCURVE",
"203 307 OFFCURVE",
"203 251 CURVE SMOOTH",
"203 157 OFFCURVE",
"303 87 OFFCURVE",
"385 47 CURVE",
"346 0 LINE",
"279 34 OFFCURVE",
"226 74 OFFCURVE",
"186 119 CURVE SMOOTH",
"147 164 OFFCURVE",
"127 208 OFFCURVE"
);
}
);
};
layerId = "90FEB760-6DE5-46E5-A8E9-582C63BAB3AD";
name = Regular;
width = 948;
}
);
},
{
export = 0;
glyphname = "ka-deva_halant-deva_ra-deva.001";
lastChange = "2014-08-27 12:04:38 +0100";
layers = (
{
background = {
anchors = (
{
name = DVAnchor0;
position = "{478, 31}";
},
{
name = DVAnchor3;
position = "{480, 660}";
}
);
paths = (
{
closed = 1;
nodes = (
"294 204 CURVE SMOOTH",
"363 204 OFFCURVE",
"417 248 OFFCURVE",
"445 290 CURVE",
"445 601 LINE",
"16 601 LINE",
"16 660 LINE",
"919 660 LINE",
"919 601 LINE",
"520 601 LINE",
"520 422 LINE",
"549 465 OFFCURVE",
"605 501 OFFCURVE",
"679 501 CURVE SMOOTH",
"781 501 OFFCURVE",
"852 415 OFFCURVE",
"852 323 CURVE SMOOTH",
"852 220 OFFCURVE",
"782 139 OFFCURVE",
"709 86 CURVE",
"641 126 LINE",
"708 167 OFFCURVE",
"777 235 OFFCURVE",
"777 323 CURVE SMOOTH",
"777 378 OFFCURVE",
"739 435 OFFCURVE",
"679 435 CURVE SMOOTH",
"597 435 OFFCURVE",
"539 371 OFFCURVE",
"520 310 CURVE",
"520 0 LINE",
"445 0 LINE",
"445 192 LINE",
"121 -20 LINE",
"75 27 LINE",
"259 140 LINE",
"170 150 OFFCURVE",
"98 223 OFFCURVE",
"98 310 CURVE SMOOTH",
"98 416 OFFCURVE",
"202 501 OFFCURVE",
"324 501 CURVE SMOOTH",
"353 501 OFFCURVE",
"384 499 OFFCURVE",
"400 489 CURVE",
"385 422 LINE",
"368 431 OFFCURVE",
"349 435 OFFCURVE",
"324 435 CURVE SMOOTH",
"244 435 OFFCURVE",
"173 379 OFFCURVE",
"173 310 CURVE SMOOTH",
"173 253 OFFCURVE",
"228 204 OFFCURVE"
);
}
);
};
layerId = "90FEB760-6DE5-46E5-A8E9-582C63BAB3AD";
name = Regular;
width = 898;
}
);
},
{
export = 0;
glyphname = "ka-deva_halant-deva_va-deva.001";
lastChange = "2014-08-27 12:04:38 +0100";
layers = (
{
background = {
anchors = (
{
name = DVAnchor0;
position = "{483, 23}";
},
{
name = DVAnchor3;
position = "{488, 660}";
}
);
paths = (
{
closed = 1;
nodes = (
"186 119 CURVE SMOOTH",
"186 89 OFFCURVE",
"213 66 OFFCURVE",
"247 66 CURVE SMOOTH",
"338 66 OFFCURVE",
"406 127 OFFCURVE",
"444 184 CURVE",
"444 271 LINE",
"369 259 OFFCURVE",
"307 239 OFFCURVE",
"259 211 CURVE SMOOTH",
"211 182 OFFCURVE",
"186 151 OFFCURVE"
);
},
{
closed = 1;
nodes = (
"300 297 CURVE SMOOTH",
"362 297 OFFCURVE",
"413 325 OFFCURVE",
"444 357 CURVE",
"444 601 LINE",
"16 601 LINE",
"16 660 LINE",
"914 660 LINE",
"914 601 LINE",
"519 601 LINE",
"519 442 LINE",
"554 487 OFFCURVE",
"614 528 OFFCURVE",
"692 528 CURVE SMOOTH",
"783 528 OFFCURVE",
"851 451 OFFCURVE",
"851 370 CURVE SMOOTH",
"851 267 OFFCURVE",
"768 186 OFFCURVE",
"686 145 CURVE",
"640 198 LINE",
"706 231 OFFCURVE",
"775 290 OFFCURVE",
"775 370 CURVE SMOOTH",
"775 415 OFFCURVE",
"743 462 OFFCURVE",
"692 462 CURVE SMOOTH",
"605 462 OFFCURVE",
"545 387 OFFCURVE",
"519 323 CURVE",
"519 0 LINE",
"444 0 LINE",
"444 99 LINE",
"398 53 OFFCURVE",
"333 7 OFFCURVE",
"247 7 CURVE SMOOTH",
"174 7 OFFCURVE",
"112 56 OFFCURVE",
"112 119 CURVE SMOOTH",
"112 184 OFFCURVE",
"164 236 OFFCURVE",
"224 251 CURVE",
"158 266 OFFCURVE",
"104 325 OFFCURVE",
"104 395 CURVE SMOOTH",
"104 486 OFFCURVE",
"195 554 OFFCURVE",
"300 554 CURVE SMOOTH",
"349 554 OFFCURVE",
"390 540 OFFCURVE",
"421 521 CURVE",
"391 469 LINE",
"366 480 OFFCURVE",
"336 489 OFFCURVE",
"300 489 CURVE SMOOTH",
"237 489 OFFCURVE",
"178 449 OFFCURVE",
"178 395 CURVE SMOOTH",
"178 340 OFFCURVE",
"236 297 OFFCURVE"
);
}
);
};
layerId = "90FEB760-6DE5-46E5-A8E9-582C63BAB3AD";
name = Regular;
width = 892;
}
);
},
{
export = 0;
glyphname = "ka-deva_halant-deva_ssa-deva.001";
lastChange = "2014-08-27 12:04:38 +0100";
layers = (
{
background = {
anchors = (
{
name = DVAnchor3;
position = "{630, 660}";
}
);
paths = (
{
closed = 1;
nodes = (
"285 613 CURVE SMOOTH",
"239 613 OFFCURVE",
"203 581 OFFCURVE",
"203 541 CURVE SMOOTH",
"203 504 OFFCURVE",
"246 474 OFFCURVE",
"278 455 CURVE",
"319 469 OFFCURVE",
"369 499 OFFCURVE",
"369 541 CURVE SMOOTH",
"369 581 OFFCURVE",
"331 613 OFFCURVE"
);
},
{
closed = 1;
nodes = (
"475 395 CURVE SMOOTH",
"519 395 OFFCURVE",
"555 413 OFFCURVE",
"588 429 CURVE",
"588 601 LINE",
"513 601 LINE",
"513 660 LINE",
"792 660 LINE",
"792 601 LINE",
"664 601 LINE",
"664 0 LINE",
"588 0 LINE",
"588 363 LINE",
"558 347 OFFCURVE",
"520 337 OFFCURVE",
"475 337 CURVE SMOOTH",
"398 337 OFFCURVE",
"334 361 OFFCURVE",
"278 389 CURVE",
"221 376 OFFCURVE",
"158 335 OFFCURVE",
"158 277 CURVE SMOOTH",
"158 212 OFFCURVE",
"229 165 OFFCURVE",
"306 165 CURVE",
"300 176 OFFCURVE",
"294 184 OFFCURVE",
"294 194 CURVE SMOOTH",
"294 229 OFFCURVE",
"328 258 OFFCURVE",
"369 258 CURVE SMOOTH",
"411 258 OFFCURVE",
"445 228 OFFCURVE",
"445 191 CURVE SMOOTH",
"445 158 OFFCURVE",
"426 131 OFFCURVE",
"400 119 CURVE",
"475 7 LINE",
"414 -27 LINE",
"324 106 LINE",
"202 106 OFFCURVE",
"82 175 OFFCURVE",
"82 277 CURVE SMOOTH",
"82 350 OFFCURVE",
"152 401 OFFCURVE",
"218 422 CURVE",
"177 449 OFFCURVE",
"127 488 OFFCURVE",
"127 541 CURVE SMOOTH",
"127 616 OFFCURVE",
"201 680 OFFCURVE",
"286 680 CURVE SMOOTH",
"372 680 OFFCURVE",
"445 616 OFFCURVE",
"445 541 CURVE SMOOTH",
"445 486 OFFCURVE",
"399 445 OFFCURVE",
"354 422 CURVE",
"389 408 OFFCURVE",
"430 395 OFFCURVE"
);
}
);
};
layerId = "90FEB760-6DE5-46E5-A8E9-582C63BAB3AD";
name = Regular;
width = 771;
}
);
},
{
export = 0;
glyphname = "kha-deva_halant-deva.001";
lastChange = "2014-08-27 12:04:38 +0100";
layers = (
{
background = {
paths = (
{
closed = 1;
nodes = (
"806 290 LINE",
"768 257 OFFCURVE",
"711 231 OFFCURVE",
"640 231 CURVE SMOOTH",
"550 231 OFFCURVE",
"473 292 OFFCURVE",
"473 370 CURVE SMOOTH",
"473 451 OFFCURVE",
"553 514 OFFCURVE",
"647 514 CURVE SMOOTH",
"696 514 OFFCURVE",
"736 505 OFFCURVE",
"768 489 CURVE",
"738 429 LINE",
"713 440 OFFCURVE",
"683 449 OFFCURVE",
"647 449 CURVE SMOOTH",
"595 449 OFFCURVE",
"549 414 OFFCURVE",
"549 370 CURVE SMOOTH",
"549 327 OFFCURVE",
"591 297 OFFCURVE",
"640 297 CURVE SMOOTH",
"712 297 OFFCURVE",
"770 331 OFFCURVE",
"806 370 CURVE"
);
},
{
closed = 1;
nodes = (
"232 357 CURVE SMOOTH",
"269 357 OFFCURVE",
"292 388 OFFCURVE",
"292 422 CURVE SMOOTH",
"292 601 LINE",
"16 601 LINE",
"16 660 LINE",
"791 660 LINE",
"791 601 LINE",
"368 601 LINE",
"368 422 LINE SMOOTH",
"368 356 OFFCURVE",
"313 290 OFFCURVE",
"240 290 CURVE SMOOTH",
"217 290 OFFCURVE",
"194 293 OFFCURVE",
"186 303 CURVE",
"223 179 OFFCURVE",
"331 59 OFFCURVE",
"496 59 CURVE SMOOTH",
"636 59 OFFCURVE",
"744 126 OFFCURVE",
"806 204 CURVE",
"806 126 LINE",
"740 56 OFFCURVE",
"632 0 OFFCURVE",
"496 0 CURVE SMOOTH",
"247 0 OFFCURVE",
"107 222 OFFCURVE",
"66 429 CURVE",
"118 455 LINE",
"140 416 OFFCURVE",
"180 357 OFFCURVE"
);
}
);
};
layerId = "90FEB760-6DE5-46E5-A8E9-582C63BAB3AD";
name = Regular;
width = 770;
}
);
},
{
export = 0;
glyphname = "kha-deva_halant-deva_ra-deva.001";
lastChange = "2014-08-27 12:04:38 +0100";
layers = (
{
background = {
anchors = (
{
name = DVAnchor0;
position = "{816, 15}";
}
);
paths = (
{
closed = 1;
nodes = (
"176 323 CURVE",
"211 206 OFFCURVE",
"327 99 OFFCURVE",
"486 99 CURVE SMOOTH",
"516 99 OFFCURVE",
"556 107 OFFCURVE",
"604 124 CURVE SMOOTH",
"652 140 OFFCURVE",
"709 165 OFFCURVE",
"773 198 CURVE",
"773 271 LINE",
"739 245 OFFCURVE",
"693 224 OFFCURVE",
"637 224 CURVE SMOOTH",
"548 224 OFFCURVE",
"470 286 OFFCURVE",
"470 363 CURVE SMOOTH",
"470 441 OFFCURVE",
"553 501 OFFCURVE",
"645 501 CURVE SMOOTH",
"685 501 OFFCURVE",
"721 493 OFFCURVE",
"750 482 CURVE",
"728 422 LINE",
"706 433 OFFCURVE",
"678 442 OFFCURVE",
"645 442 CURVE SMOOTH",
"593 442 OFFCURVE",
"546 407 OFFCURVE",
"546 363 CURVE SMOOTH",
"546 319 OFFCURVE",
"587 283 OFFCURVE",
"637 283 CURVE SMOOTH",
"693 283 OFFCURVE",
"737 311 OFFCURVE",
"773 337 CURVE",
"773 601 LINE",
"358 601 LINE",
"358 455 LINE SMOOTH",
"358 382 OFFCURVE",
"302 310 OFFCURVE",
"222 310 CURVE SMOOTH",
"206 310 OFFCURVE",
"191 317 OFFCURVE"
);
},
{
closed = 1;
nodes = (
"206 370 CURVE SMOOTH",
"252 370 OFFCURVE",
"282 412 OFFCURVE",
"282 455 CURVE SMOOTH",
"282 601 LINE",
"16 601 LINE",
"16 660 LINE",
"977 660 LINE",
"977 601 LINE",
"848 601 LINE",
"848 0 LINE",
"773 0 LINE",
"773 132 LINE",
"222 -106 LINE",
"191 -53 LINE",
"426 47 LINE",
"203 80 OFFCURVE",
"121 245 OFFCURVE",
"63 429 CURVE",
"116 462 LINE",
"130 424 OFFCURVE",
"160 370 OFFCURVE"
);
}
);
};
layerId = "90FEB760-6DE5-46E5-A8E9-582C63BAB3AD";
name = Regular;
width = 956;
}
);
},
{
export = 0;
glyphname = "ga-deva_halant-deva.001";
lastChange = "2014-08-27 12:04:38 +0100";
layers = (
{
background = {
paths = (
{
closed = 1;
nodes = (
"143 409 LINE SMOOTH",
"161 409 OFFCURVE",
"173 432 OFFCURVE",
"173 449 CURVE SMOOTH",
"173 601 LINE",
"16 601 LINE",
"16 660 LINE",
"333 660 LINE",
"333 601 LINE",
"249 601 LINE",
"249 264 LINE SMOOTH",
"249 246 OFFCURVE",
"237 224 OFFCURVE",
"218 224 CURVE SMOOTH",
"198 224 OFFCURVE",
"165 244 OFFCURVE",
"120 283 CURVE SMOOTH",
"75 323 OFFCURVE",
"53 352 OFFCURVE",
"53 370 CURVE SMOOTH",
"53 387 OFFCURVE",
"64 409 OFFCURVE",
"82 409 CURVE SMOOTH"
);
}
);
};
layerId = "90FEB760-6DE5-46E5-A8E9-582C63BAB3AD";
name = Regular;
width = 312;
}
);
},
{
export = 0;
glyphname = "ga-deva_halant-deva_na-deva.001";
lastChange = "2014-08-27 12:04:38 +0100";
layers = (
{
background = {
paths = (
{
closed = 1;
nodes = (
"121 429 CURVE SMOOTH",
"153 429 OFFCURVE",
"173 441 OFFCURVE",
"173 469 CURVE SMOOTH",
"173 601 LINE",
"16 601 LINE",
"16 660 LINE",
"641 660 LINE",
"641 601 LINE",
"513 601 LINE",
"513 0 LINE",
"437 0 LINE",
"437 258 LINE",
"246 134 LINE",
"242 129 OFFCURVE",
"241 124 OFFCURVE",
"241 119 CURVE SMOOTH",
"241 114 OFFCURVE",
"260 103 OFFCURVE",
"264 99 CURVE SMOOTH",
"273 89 OFFCURVE",
"278 77 OFFCURVE",
"278 59 CURVE SMOOTH",
"278 43 OFFCURVE",
"253 33 OFFCURVE",
"233 33 CURVE SMOOTH",
"212 33 OFFCURVE",
"167 31 OFFCURVE",
"150 33 CURVE SMOOTH",
"115 38 OFFCURVE",
"67 55 OFFCURVE",
"67 86 CURVE SMOOTH",
"67 99 OFFCURVE",
"128 140 OFFCURVE",
"135 145 CURVE SMOOTH",
"437 337 LINE",
"437 601 LINE",
"249 601 LINE",
"249 323 LINE SMOOTH",
"249 305 OFFCURVE",
"237 283 OFFCURVE",
"218 283 CURVE SMOOTH",
"181 283 OFFCURVE",
"75 370 OFFCURVE",
"75 402 CURVE SMOOTH",
"75 422 OFFCURVE",
"95 429 OFFCURVE"
);
}
);
};
layerId = "90FEB760-6DE5-46E5-A8E9-582C63BAB3AD";
name = Regular;
width = 620;
}
);
},
{
export = 0;
glyphname = "ga-deva_halant-deva_ra-deva.001";
lastChange = "2014-08-27 12:04:38 +0100";
layers = (
{
background = {
paths = (
{
closed = 1;
nodes = (
"149 415 LINE SMOOTH",
"167 415 OFFCURVE",
"178 432 OFFCURVE",
"178 449 CURVE SMOOTH",
"178 601 LINE",
"16 601 LINE",
"16 660 LINE",
"647 660 LINE",
"647 601 LINE",
"519 601 LINE",
"519 0 LINE",
"444 0 LINE",
"444 180 LINE",
"96 20 LINE",
"66 72 LINE",
"444 247 LINE",
"444 601 LINE",
"254 601 LINE",
"254 277 LINE SMOOTH",
"254 258 OFFCURVE",
"238 238 OFFCURVE",
"217 238 CURVE SMOOTH",
"197 238 OFFCURVE",
"167 258 OFFCURVE",
"127 300 CURVE SMOOTH",
"86 341 OFFCURVE",
"66 371 OFFCURVE",
"66 389 CURVE SMOOTH",
"66 403 OFFCURVE",
"81 415 OFFCURVE",
"96 415 CURVE SMOOTH"
);
}
);
};
layerId = "90FEB760-6DE5-46E5-A8E9-582C63BAB3AD";
name = Regular;
width = 626;
}
);
},
{
export = 0;
glyphname = "gha-deva_halant-deva.001";
lastChange = "2014-08-27 12:04:38 +0100";
layers = (
{
background = {
paths = (
{
closed = 1;
nodes = (
"82 514 CURVE SMOOTH",
"82 548 OFFCURVE",
"102 577 OFFCURVE",
"121 601 CURVE",
"16 601 LINE",
"16 660 LINE",
"588 660 LINE",
"588 601 LINE",
"210 601 LINE",
"184 581 OFFCURVE",
"158 552 OFFCURVE",
"158 514 CURVE SMOOTH",
"158 466 OFFCURVE",
"207 429 OFFCURVE",
"264 429 CURVE SMOOTH",
"392 429 LINE",
"430 370 LINE",
"324 370 LINE SMOOTH",
"258 370 OFFCURVE",
"203 321 OFFCURVE",
"203 264 CURVE SMOOTH",
"203 210 OFFCURVE",
"274 178 OFFCURVE",
"340 178 CURVE SMOOTH",
"377 178 OFFCURVE",
"419 189 OFFCURVE",
"465 211 CURVE SMOOTH",
"511 232 OFFCURVE",
"557 263 OFFCURVE",
"604 303 CURVE",
"604 224 LINE",
"554 188 OFFCURVE",
"507 161 OFFCURVE",
"462 141 CURVE SMOOTH",
"417 122 OFFCURVE",
"376 112 OFFCURVE",
"340 112 CURVE SMOOTH",
"232 112 OFFCURVE",
"127 173 OFFCURVE",
"127 264 CURVE SMOOTH",
"127 318 OFFCURVE",
"155 362 OFFCURVE",
"195 383 CURVE",
"135 397 OFFCURVE",
"82 449 OFFCURVE"
);
}
);
};
layerId = "90FEB760-6DE5-46E5-A8E9-582C63BAB3AD";
name = Regular;
width = 568;
}
);
},
{
export = 0;
glyphname = "gha-deva_halant-deva_ra-deva.001";
lastChange = "2014-08-27 12:04:38 +0100";
layers = (
{
background = {
paths = (
{
closed = 1;
nodes = (
"195 277 CURVE SMOOTH",
"195 218 OFFCURVE",
"268 178 OFFCURVE",
"340 178 CURVE SMOOTH",
"440 178 OFFCURVE",
"519 240 OFFCURVE",
"573 297 CURVE",
"573 601 LINE",
"226 601 LINE",
"197 587 OFFCURVE",
"173 557 OFFCURVE",
"173 521 CURVE SMOOTH",
"173 469 OFFCURVE",
"239 435 OFFCURVE",
"301 435 CURVE SMOOTH",
"400 435 LINE",
"422 377 LINE",
"354 377 LINE SMOOTH",
"280 377 OFFCURVE",
"195 338 OFFCURVE"
);
},
{
closed = 1;
nodes = (
"98 521 CURVE SMOOTH",
"98 554 OFFCURVE",
"116 580 OFFCURVE",
"135 601 CURVE",
"16 601 LINE",
"16 660 LINE",
"777 660 LINE",
"777 601 LINE",
"649 601 LINE",
"649 0 LINE",
"573 0 LINE",
"573 199 LINE",
"150 -33 LINE",
"105 20 LINE",
"286 115 LINE",
"197 128 OFFCURVE",
"121 190 OFFCURVE",
"121 277 CURVE SMOOTH",
"121 333 OFFCURVE",
"159 374 OFFCURVE",
"203 395 CURVE",
"147 413 OFFCURVE",
"98 459 OFFCURVE"
);
}
);
};
layerId = "90FEB760-6DE5-46E5-A8E9-582C63BAB3AD";
name = Regular;
width = 756;
}
);
},
{
export = 0;
glyphname = "nga-deva_halant-deva.001";
lastChange = "2014-08-27 12:04:38 +0100";
layers = (
{
background = {
paths = (
{
closed = 1;
nodes = (
"428 -86 LINE",
"399 -33 LINE",
"481 0 LINE",
"754 -178 LINE",
"708 -218 LINE",
"481 -59 LINE"
);
},
{
closed = 1;
nodes = (
"836 377 CURVE SMOOTH",
"836 350 OFFCURVE",
"807 330 OFFCURVE",
"775 330 CURVE SMOOTH",
"744 330 OFFCURVE",
"715 350 OFFCURVE",
"715 377 CURVE SMOOTH",
"715 402 OFFCURVE",
"745 422 OFFCURVE",
"775 422 CURVE SMOOTH",
"807 422 OFFCURVE",
"836 403 OFFCURVE"
);
},
{
closed = 1;
nodes = (
"247 435 CURVE SMOOTH",
"247 472 OFFCURVE",
"287 495 OFFCURVE",
"331 495 CURVE SMOOTH",
"556 495 LINE",
"556 601 LINE",
"16 601 LINE",
"16 660 LINE",
"866 660 LINE",
"866 601 LINE",
"632 601 LINE",
"632 435 LINE",
"376 435 LINE SMOOTH",
"358 435 OFFCURVE",
"337 424 OFFCURVE",
"337 409 CURVE SMOOTH",
"337 376 OFFCURVE",
"413 297 OFFCURVE",
"451 297 CURVE SMOOTH",
"481 297 OFFCURVE",
"564 330 OFFCURVE",
"595 330 CURVE SMOOTH",
"658 330 OFFCURVE",
"708 280 OFFCURVE",
"708 224 CURVE SMOOTH",
"708 112 OFFCURVE",
"608 13 OFFCURVE",
"481 13 CURVE SMOOTH",
"411 13 OFFCURVE",
"337 40 OFFCURVE",
"258 94 CURVE SMOOTH",
"179 148 OFFCURVE",
"110 220 OFFCURVE",
"50 310 CURVE",
"112 350 LINE",
"171 261 OFFCURVE",
"231 193 OFFCURVE",
"293 148 CURVE SMOOTH",
"355 102 OFFCURVE",
"418 79 OFFCURVE",
"481 79 CURVE SMOOTH",
"566 79 OFFCURVE",
"632 148 OFFCURVE",
"632 224 CURVE SMOOTH",
"632 243 OFFCURVE",
"616 264 OFFCURVE",
"595 264 CURVE SMOOTH",
"564 264 OFFCURVE",
"481 231 OFFCURVE",
"451 231 CURVE SMOOTH",
"417 231 OFFCURVE",
"375 257 OFFCURVE",
"324 308 CURVE SMOOTH",
"272 360 OFFCURVE",
"247 402 OFFCURVE"
);
}
);
};
layerId = "90FEB760-6DE5-46E5-A8E9-582C63BAB3AD";
name = Regular;
width = 845;
}
);
},
{
export = 0;
glyphname = "nga-deva_halant-deva_ka-deva.001";
lastChange = "2014-08-27 12:04:38 +0100";
layers = (
{
background = {
anchors = (
{
name = DVAnchor0;
position = "{420, -137}";
},
{
name = DVAnchor3;
position = "{583, 658}";
}
);
paths = (
{
closed = 1;
nodes = (
"814 415 CURVE SMOOTH",
"814 391 OFFCURVE",
"788 370 OFFCURVE",
"760 370 CURVE SMOOTH",
"734 370 OFFCURVE",
"708 392 OFFCURVE",
"708 415 CURVE SMOOTH",
"708 440 OFFCURVE",
"733 462 OFFCURVE",
"760 462 CURVE SMOOTH",
"789 462 OFFCURVE",
"814 440 OFFCURVE"
);
},
{
closed = 1;
nodes = (
"178 429 CURVE SMOOTH",
"178 479 OFFCURVE",
"234 514 OFFCURVE",
"292 514 CURVE SMOOTH",
"542 514 LINE",
"542 601 LINE",
"16 601 LINE",
"16 660 LINE",
"848 660 LINE",
"848 601 LINE",
"618 601 LINE",
"618 455 LINE",
"292 455 LINE SMOOTH",
"275 455 OFFCURVE",
"254 444 OFFCURVE",
"254 429 CURVE SMOOTH",
"254 401 OFFCURVE",
"327 363 OFFCURVE",
"360 363 CURVE SMOOTH",
"414 363 OFFCURVE",
"461 395 OFFCURVE",
"511 395 CURVE SMOOTH",
"592 395 OFFCURVE",
"663 340 OFFCURVE",
"663 271 CURVE SMOOTH",
"663 187 OFFCURVE",
"552 132 OFFCURVE",
"451 132 CURVE",
"451 33 LINE",
"493 60 OFFCURVE",
"542 86 OFFCURVE",
"602 86 CURVE SMOOTH",
"671 86 OFFCURVE",
"746 50 OFFCURVE",
"746 -7 CURVE SMOOTH",
"746 -73 OFFCURVE",
"661 -119 OFFCURVE",
"595 -139 CURVE",
"556 -86 LINE",
"600 -73 OFFCURVE",
"670 -46 OFFCURVE",
"670 -7 CURVE SMOOTH",
"670 18 OFFCURVE",
"634 33 OFFCURVE",
"602 33 CURVE SMOOTH",
"588 33 OFFCURVE",
"568 27 OFFCURVE",
"543 16 CURVE SMOOTH",
"517 5 OFFCURVE",
"486 -12 OFFCURVE",
"451 -33 CURVE",
"451 -165 LINE",
"383 -165 LINE",
"383 -66 LINE",
"346 -94 OFFCURVE",
"290 -112 OFFCURVE",
"224 -112 CURVE SMOOTH",
"149 -112 OFFCURVE",
"66 -75 OFFCURVE",
"66 -13 CURVE SMOOTH",
"66 52 OFFCURVE",
"140 99 OFFCURVE",
"217 99 CURVE SMOOTH",
"268 99 OFFCURVE",
"312 83 OFFCURVE",
"337 59 CURVE",
"292 13 LINE",
"272 28 OFFCURVE",
"249 40 OFFCURVE",
"217 40 CURVE SMOOTH",
"177 40 OFFCURVE",
"134 20 OFFCURVE",
"134 -13 CURVE SMOOTH",
"134 -40 OFFCURVE",
"188 -53 OFFCURVE",
"224 -53 CURVE SMOOTH",
"294 -53 OFFCURVE",
"349 -23 OFFCURVE",
"383 13 CURVE",
"383 132 LINE",
"241 132 OFFCURVE",
"131 203 OFFCURVE",
"58 277 CURVE",
"112 317 LINE",
"173 241 OFFCURVE",
"285 184 OFFCURVE",
"428 184 CURVE SMOOTH",
"501 184 OFFCURVE",
"587 218 OFFCURVE",
"587 277 CURVE SMOOTH",
"587 312 OFFCURVE",
"551 337 OFFCURVE",
"511 337 CURVE SMOOTH",
"465 337 OFFCURVE",
"414 297 OFFCURVE",
"360 297 CURVE SMOOTH",
"293 297 OFFCURVE",
"178 371 OFFCURVE"
);
}
);
};
layerId = "90FEB760-6DE5-46E5-A8E9-582C63BAB3AD";
name = Regular;
width = 828;
}
);
},
{
export = 0;
glyphname = "nga-deva_halant-deva_kha-deva.001";
lastChange = "2014-08-27 12:04:38 +0100";
layers = (
{
background = {
anchors = (
{
name = DVAnchor0;
position = "{569, -89}";
},
{
name = DVAnchor3;
position = "{603, 658}";
}
);
paths = (
{
closed = 1;
nodes = (
"824 409 CURVE SMOOTH",
"824 387 OFFCURVE",
"797 370 OFFCURVE",
"771 370 CURVE SMOOTH",
"745 370 OFFCURVE",
"718 387 OFFCURVE",
"718 409 CURVE SMOOTH",
"718 433 OFFCURVE",
"744 455 OFFCURVE",
"771 455 CURVE SMOOTH",
"799 455 OFFCURVE",
"824 433 OFFCURVE"
);
},
{
closed = 1;
nodes = (
"190 429 CURVE SMOOTH",
"190 479 OFFCURVE",
"244 514 OFFCURVE",
"303 514 CURVE SMOOTH",
"560 514 LINE",
"560 601 LINE",
"16 601 LINE",
"16 660 LINE",
"855 660 LINE",
"855 601 LINE",
"636 601 LINE",
"636 455 LINE",
"303 455 LINE SMOOTH",
"285 455 OFFCURVE",
"265 444 OFFCURVE",
"265 429 CURVE SMOOTH",
"265 402 OFFCURVE",
"339 363 OFFCURVE",
"371 363 CURVE SMOOTH",
"417 363 OFFCURVE",
"468 376 OFFCURVE",
"507 388 CURVE SMOOTH",
"523 393 OFFCURVE",
"533 395 OFFCURVE",
"537 395 CURVE SMOOTH",
"616 395 OFFCURVE",
"688 345 OFFCURVE",
"688 277 CURVE SMOOTH",
"688 218 OFFCURVE",
"645 175 OFFCURVE",
"597 152 CURVE",
"597 -119 LINE",
"529 -119 LINE",
"529 -27 LINE",
"507 -50 OFFCURVE",
"474 -72 OFFCURVE",
"431 -72 CURVE SMOOTH",
"372 -72 OFFCURVE",
"310 -40 OFFCURVE",
"310 9 CURVE SMOOTH",
"310 59 OFFCURVE",
"372 92 OFFCURVE",
"431 92 CURVE SMOOTH",
"457 92 OFFCURVE",
"477 87 OFFCURVE",
"500 79 CURVE",
"477 33 LINE",
"464 37 OFFCURVE",
"449 40 OFFCURVE",
"431 40 CURVE SMOOTH",
"407 40 OFFCURVE",
"378 29 OFFCURVE",
"378 9 CURVE SMOOTH",
"378 -10 OFFCURVE",
"408 -20 OFFCURVE",
"431 -20 CURVE SMOOTH",
"477 -20 OFFCURVE",
"510 16 OFFCURVE",
"529 47 CURVE",
"529 132 LINE",
"508 126 OFFCURVE",
"486 119 OFFCURVE",
"462 119 CURVE SMOOTH",
"397 119 OFFCURVE",
"338 129 OFFCURVE",
"287 145 CURVE",
"287 89 OFFCURVE",
"256 20 OFFCURVE",
"197 20 CURVE SMOOTH",
"181 20 OFFCURVE",
"168 25 OFFCURVE",
"159 33 CURVE",
"188 -21 OFFCURVE",
"245 -68 OFFCURVE",
"318 -79 CURVE",
"287 -132 LINE",
"167 -113 OFFCURVE",
"84 -11 OFFCURVE",
"62 99 CURVE",
"130 112 LINE",
"130 91 OFFCURVE",
"151 72 OFFCURVE",
"175 72 CURVE SMOOTH",
"211 72 OFFCURVE",
"227 134 OFFCURVE",
"227 171 CURVE",
"172 198 OFFCURVE",
"123 236 OFFCURVE",
"84 277 CURVE",
"114 317 LINE",
"188 239 OFFCURVE",
"309 178 OFFCURVE",
"462 178 CURVE SMOOTH",
"535 178 OFFCURVE",
"613 217 OFFCURVE",
"613 277 CURVE SMOOTH",
"613 309 OFFCURVE",
"575 330 OFFCURVE",
"537 330 CURVE SMOOTH",
"502 330 OFFCURVE",
"460 306 OFFCURVE",
"420 300 CURVE SMOOTH",
"407 298 OFFCURVE",
"393 297 OFFCURVE",
"378 297 CURVE SMOOTH",
"305 297 OFFCURVE",
"190 367 OFFCURVE"
);
}
);
};
layerId = "90FEB760-6DE5-46E5-A8E9-582C63BAB3AD";
name = Regular;
width = 834;
}
);
},
{
export = 0;
glyphname = "nga-deva_halant-deva_ga-deva.001";
lastChange = "2014-08-27 12:04:38 +0100";
layers = (
{
background = {
anchors = (
{
name = DVAnchor0;
position = "{542, -89}";
},
{
name = DVAnchor3;
position = "{564, 659}";
}
);
paths = (
{
closed = 1;
nodes = (
"788 415 CURVE SMOOTH",
"788 392 OFFCURVE",
"762 370 OFFCURVE",
"736 370 CURVE SMOOTH",
"708 370 OFFCURVE",
"682 391 OFFCURVE",
"682 415 CURVE SMOOTH",
"682 438 OFFCURVE",
"709 455 OFFCURVE",
"736 455 CURVE SMOOTH",
"761 455 OFFCURVE",
"788 437 OFFCURVE"
);
},
{
closed = 1;
nodes = (
"146 429 CURVE SMOOTH",
"146 480 OFFCURVE",
"206 514 OFFCURVE",
"267 514 CURVE SMOOTH",
"523 514 LINE",
"523 601 LINE",
"16 601 LINE",
"16 660 LINE",
"818 660 LINE",
"818 601 LINE",
"599 601 LINE",
"599 455 LINE",
"267 455 LINE SMOOTH",
"247 455 OFFCURVE",
"222 445 OFFCURVE",
"222 429 CURVE SMOOTH",
"222 400 OFFCURVE",
"307 363 OFFCURVE",
"342 363 CURVE SMOOTH",
"404 363 OFFCURVE",
"461 389 OFFCURVE",
"523 389 CURVE SMOOTH",
"594 389 OFFCURVE",
"645 327 OFFCURVE",
"645 264 CURVE SMOOTH",
"645 215 OFFCURVE",
"608 177 OFFCURVE",
"569 159 CURVE",
"569 -119 LINE",
"501 -119 LINE",
"501 132 LINE",
"478 127 OFFCURVE",
"449 126 OFFCURVE",
"418 126 CURVE SMOOTH",
"376 126 OFFCURVE",
"339 130 OFFCURVE",
"304 139 CURVE",
"304 -40 LINE SMOOTH",
"304 -53 OFFCURVE",
"296 -72 OFFCURVE",
"282 -72 CURVE SMOOTH",
"253 -72 OFFCURVE",
"154 -12 OFFCURVE",
"154 13 CURVE SMOOTH",
"154 24 OFFCURVE",
"169 33 OFFCURVE",
"183 33 CURVE SMOOTH",
"222 33 LINE SMOOTH",
"230 33 OFFCURVE",
"236 39 OFFCURVE",
"236 47 CURVE SMOOTH",
"236 159 LINE",
"160 182 OFFCURVE",
"94 221 OFFCURVE",
"48 271 CURVE",
"93 310 LINE",
"170 243 OFFCURVE",
"279 184 OFFCURVE",
"418 184 CURVE SMOOTH",
"483 184 OFFCURVE",
"569 212 OFFCURVE",
"569 264 CURVE SMOOTH",
"569 293 OFFCURVE",
"553 330 OFFCURVE",
"523 330 CURVE SMOOTH",
"458 330 OFFCURVE",
"401 303 OFFCURVE",
"335 303 CURVE SMOOTH",
"263 303 OFFCURVE",
"146 369 OFFCURVE"
);
}
);
};
layerId = "90FEB760-6DE5-46E5-A8E9-582C63BAB3AD";
name = Regular;
width = 797;
}
);
},
{
export = 0;
glyphname = "nga-deva_halant-deva_gha-deva.001";
lastChange = "2014-08-27 12:04:38 +0100";
layers = (
{
background = {
anchors = (
{
name = DVAnchor0;
position = "{532, -116}";
},
{
name = DVAnchor3;
position = "{569, 660}";
}
);
paths = (
{
closed = 1;
nodes = (
"787 405 CURVE SMOOTH",
"787 384 OFFCURVE",
"762 370 OFFCURVE",
"737 370 CURVE SMOOTH",
"713 370 OFFCURVE",
"688 385 OFFCURVE",
"688 405 CURVE SMOOTH",
"688 427 OFFCURVE",
"712 442 OFFCURVE",
"737 442 CURVE SMOOTH",
"762 442 OFFCURVE",
"787 427 OFFCURVE"
);
},
{
closed = 1;
nodes = (
"281 -40 CURVE SMOOTH",
"281 -65 OFFCURVE",
"317 -79 OFFCURVE",
"349 -79 CURVE SMOOTH",
"405 -79 OFFCURVE",
"452 -35 OFFCURVE",
"484 0 CURVE",
"484 132 LINE",
"462 122 OFFCURVE",
"436 119 OFFCURVE",
"401 119 CURVE SMOOTH",
"363 119 OFFCURVE",
"323 120 OFFCURVE",
"303 132 CURVE",
"265 132 OFFCURVE",
"227 112 OFFCURVE",
"227 79 CURVE SMOOTH",
"227 52 OFFCURVE",
"262 33 OFFCURVE",
"295 33 CURVE",
"311 41 OFFCURVE",
"327 47 OFFCURVE",
"349 47 CURVE",
"363 0 LINE",
"328 0 OFFCURVE",
"281 -13 OFFCURVE"
);
},
{
closed = 1;
nodes = (
"159 429 CURVE SMOOTH",
"159 479 OFFCURVE",
"214 514 OFFCURVE",
"273 514 CURVE SMOOTH",
"529 514 LINE",
"529 601 LINE",
"16 601 LINE",
"16 660 LINE",
"814 660 LINE",
"814 601 LINE",
"605 601 LINE",
"605 455 LINE",
"273 455 LINE SMOOTH",
"255 455 OFFCURVE",
"235 444 OFFCURVE",
"235 429 CURVE SMOOTH",
"235 401 OFFCURVE",
"307 363 OFFCURVE",
"341 363 CURVE SMOOTH",
"375 363 OFFCURVE",
"488 389 OFFCURVE",
"522 389 CURVE SMOOTH",
"591 389 OFFCURVE",
"642 332 OFFCURVE",
"642 271 CURVE SMOOTH",
"642 210 OFFCURVE",
"603 162 OFFCURVE",
"552 145 CURVE",
"552 -145 LINE",
"484 -145 LINE",
"484 -79 LINE",
"455 -110 OFFCURVE",
"407 -139 OFFCURVE",
"349 -139 CURVE SMOOTH",
"280 -139 OFFCURVE",
"205 -103 OFFCURVE",
"205 -47 CURVE SMOOTH",
"205 -22 OFFCURVE",
"220 3 OFFCURVE",
"242 7 CURVE",
"198 13 OFFCURVE",
"159 44 OFFCURVE",
"159 86 CURVE SMOOTH",
"159 123 OFFCURVE",
"189 154 OFFCURVE",
"227 159 CURVE",
"209 161 OFFCURVE",
"185 173 OFFCURVE",
"154 193 CURVE SMOOTH",
"123 213 OFFCURVE",
"87 241 OFFCURVE",
"46 277 CURVE",
"99 317 LINE",
"165 247 OFFCURVE",
"269 184 OFFCURVE",
"401 184 CURVE SMOOTH",
"474 184 OFFCURVE",
"568 213 OFFCURVE",
"568 271 CURVE SMOOTH",
"568 300 OFFCURVE",
"546 330 OFFCURVE",
"514 330 CURVE SMOOTH",
"479 330 OFFCURVE",
"376 303 OFFCURVE",
"341 303 CURVE SMOOTH",
"270 303 OFFCURVE",
"159 369 OFFCURVE"
);
}
);
};
layerId = "90FEB760-6DE5-46E5-A8E9-582C63BAB3AD";
name = Regular;
width = 793;
}
);
},
{
export = 0;
glyphname = "nga-deva_halant-deva_ma-deva.001";
lastChange = "2014-08-27 12:04:38 +0100";
layers = (
{
background = {
anchors = (
{
name = DVAnchor0;
position = "{593, -105}";
},
{
name = DVAnchor3;
position = "{594, 659}";
}
);
paths = (
{
closed = 1;
nodes = (
"818 409 CURVE SMOOTH",
"818 386 OFFCURVE",
"799 363 OFFCURVE",
"773 363 CURVE SMOOTH",
"741 363 OFFCURVE",
"713 382 OFFCURVE",
"713 409 CURVE SMOOTH",
"713 435 OFFCURVE",
"742 455 OFFCURVE",
"773 455 CURVE SMOOTH",
"798 455 OFFCURVE",
"818 432 OFFCURVE"
);
},
{
closed = 1;
nodes = (
"441 126 CURVE SMOOTH",
"406 126 OFFCURVE",
"372 128 OFFCURVE",
"342 132 CURVE",
"342 7 LINE",
"546 7 LINE",
"546 139 LINE",
"513 131 OFFCURVE",
"479 126 OFFCURVE"
);
},
{
closed = 1;
nodes = (
"183 429 CURVE SMOOTH",
"183 479 OFFCURVE",
"238 514 OFFCURVE",
"296 514 CURVE SMOOTH",
"554 514 LINE",
"554 601 LINE",
"16 601 LINE",
"16 660 LINE",
"850 660 LINE",
"850 601 LINE",
"629 601 LINE",
"629 455 LINE",
"296 455 LINE SMOOTH",
"279 455 OFFCURVE",
"259 444 OFFCURVE",
"259 429 CURVE SMOOTH",
"259 404 OFFCURVE",
"313 370 OFFCURVE",
"342 370 CURVE SMOOTH",
"380 370 OFFCURVE",
"500 389 OFFCURVE",
"538 389 CURVE SMOOTH",
"611 389 OFFCURVE",
"674 340 OFFCURVE",
"674 277 CURVE SMOOTH",
"674 230 OFFCURVE",
"655 188 OFFCURVE",
"622 171 CURVE",
"622 -145 LINE",
"546 -145 LINE",
"546 -47 LINE",
"342 -47 LINE",
"342 -106 LINE SMOOTH",
"342 -113 OFFCURVE",
"335 -119 OFFCURVE",
"327 -119 CURVE SMOOTH",
"303 -119 OFFCURVE",
"206 -34 OFFCURVE",
"206 -13 CURVE SMOOTH",
"206 -1 OFFCURVE",
"222 7 OFFCURVE",
"236 7 CURVE SMOOTH",
"274 7 LINE",
"274 152 LINE",
"181 174 OFFCURVE",
"102 219 OFFCURVE",
"48 277 CURVE",
"100 323 LINE",
"176 245 OFFCURVE",
"300 184 OFFCURVE",
"455 184 CURVE SMOOTH",
"522 184 OFFCURVE",
"599 216 OFFCURVE",
"599 271 CURVE SMOOTH",
"599 301 OFFCURVE",
"573 323 OFFCURVE",
"538 323 CURVE SMOOTH",
"500 323 OFFCURVE",
"380 303 OFFCURVE",
"342 303 CURVE SMOOTH",
"286 303 OFFCURVE",
"183 381 OFFCURVE"
);
}
);
};
layerId = "90FEB760-6DE5-46E5-A8E9-582C63BAB3AD";
name = Regular;
width = 829;
}
);
},
{
export = 0;
glyphname = "ca-deva_halant-deva.001";
lastChange = "2014-08-27 12:04:38 +0100";
layers = (
{
background = {
paths = (
{
closed = 1;
nodes = (
"16 601 LINE",
"16 660 LINE",
"588 660 LINE",
"588 601 LINE"
);
},
{
closed = 1;
nodes = (
"256 277 CURVE SMOOTH",
"256 226 OFFCURVE",
"304 184 OFFCURVE",
"362 184 CURVE SMOOTH",
"396 184 OFFCURVE",
"435 202 OFFCURVE",
"478 237 CURVE SMOOTH",
"521 273 OFFCURVE",
"563 321 OFFCURVE",
"604 383 CURVE",
"604 277 LINE",
"565 228 OFFCURVE",
"524 189 OFFCURVE",
"481 161 CURVE SMOOTH",
"438 133 OFFCURVE",
"399 119 OFFCURVE",
"362 119 CURVE SMOOTH",
"262 119 OFFCURVE",
"181 190 OFFCURVE",
"181 277 CURVE SMOOTH",
"181 343 OFFCURVE",
"216 394 OFFCURVE",
"264 422 CURVE",
"45 422 LINE",
"45 489 LINE",
"483 489 LINE",
"483 422 LINE",
"392 422 LINE",
"330 397 OFFCURVE",
"256 346 OFFCURVE"
);
}
);
};
layerId = "90FEB760-6DE5-46E5-A8E9-582C63BAB3AD";
name = Regular;
width = 568;
}
);
},
{
export = 0;
glyphname = "ca-deva_halant-deva_ca-deva.001";
lastChange = "2014-08-27 12:04:38 +0100";
layers = (
{
background = {
paths = (
{
closed = 1;
nodes = (
"359 152 CURVE SMOOTH",
"468 152 OFFCURVE",
"543 255 OFFCURVE",
"578 337 CURVE",
"578 601 LINE",
"16 601 LINE",
"16 660 LINE",
"782 660 LINE",
"782 601 LINE",
"654 601 LINE",
"654 0 LINE",
"578 0 LINE",
"578 231 LINE",
"535 166 OFFCURVE",
"460 92 OFFCURVE",
"359 92 CURVE SMOOTH",
"284 92 OFFCURVE",
"208 135 OFFCURVE",
"208 198 CURVE SMOOTH",
"208 220 OFFCURVE",
"218 237 OFFCURVE",
"231 251 CURVE",
"57 251 LINE",
"57 317 LINE",
"223 317 LINE",
"213 328 OFFCURVE",
"208 344 OFFCURVE",
"208 363 CURVE SMOOTH",
"208 393 OFFCURVE",
"229 417 OFFCURVE",
"253 429 CURVE",
"57 429 LINE",
"57 495 LINE",
"472 495 LINE",
"472 429 LINE",
"374 429 LINE",
"335 419 OFFCURVE",
"276 397 OFFCURVE",
"276 363 CURVE SMOOTH",
"276 342 OFFCURVE",
"290 327 OFFCURVE",
"306 317 CURVE",
"442 317 LINE",
"442 251 LINE",
"328 251 LINE",
"304 243 OFFCURVE",
"276 224 OFFCURVE",
"276 198 CURVE SMOOTH",
"276 168 OFFCURVE",
"321 152 OFFCURVE"
);
}
);
};
layerId = "90FEB760-6DE5-46E5-A8E9-582C63BAB3AD";
name = Regular;
width = 760;
}
);
},
{
export = 0;
glyphname = "ca-deva_halant-deva_ra-deva.001";
lastChange = "2014-08-27 12:04:38 +0100";
layers = (
{
background = {
paths = (
{
closed = 1;
nodes = (
"256 277 CURVE SMOOTH",
"256 226 OFFCURVE",
"304 184 OFFCURVE",
"362 184 CURVE SMOOTH",
"384 184 OFFCURVE",
"413 195 OFFCURVE",
"448 216 CURVE SMOOTH",
"483 236 OFFCURVE",
"522 266 OFFCURVE",
"565 303 CURVE",
"565 601 LINE",
"16 601 LINE",
"16 660 LINE",
"770 660 LINE",
"770 601 LINE",
"641 601 LINE",
"641 0 LINE",
"565 0 LINE",
"565 214 LINE",
"173 -33 LINE",
"127 20 LINE",
"306 124 LINE",
"236 140 OFFCURVE",
"181 202 OFFCURVE",
"181 277 CURVE SMOOTH",
"181 344 OFFCURVE",
"214 397 OFFCURVE",
"264 422 CURVE",
"45 422 LINE",
"45 489 LINE",
"490 489 LINE",
"490 422 LINE",
"385 422 LINE",
"320 401 OFFCURVE",
"256 350 OFFCURVE"
);
}
);
};
layerId = "90FEB760-6DE5-46E5-A8E9-582C63BAB3AD";
name = Regular;
width = 749;
}
);
},
{
export = 0;
glyphname = "cha-deva_halant-deva.001";
lastChange = "2014-08-27 12:04:38 +0100";
layers = (
{
background = {
paths = (
{
closed = 1;
nodes = (
"624 435 CURVE SMOOTH",
"578 435 OFFCURVE",
"542 398 OFFCURVE",
"542 357 CURVE SMOOTH",
"542 294 OFFCURVE",
"580 246 OFFCURVE",
"624 218 CURVE",
"673 247 OFFCURVE",
"715 298 OFFCURVE",
"715 363 CURVE SMOOTH",
"715 405 OFFCURVE",
"674 435 OFFCURVE"
);
},
{
closed = 1;
nodes = (
"624 501 CURVE SMOOTH",
"714 501 OFFCURVE",
"791 440 OFFCURVE",
"791 363 CURVE SMOOTH",
"791 285 OFFCURVE",
"747 211 OFFCURVE",
"659 140 CURVE SMOOTH",
"571 68 OFFCURVE",
"479 33 OFFCURVE",
"383 33 CURVE SMOOTH",
"253 33 OFFCURVE",
"126 109 OFFCURVE",
"126 218 CURVE SMOOTH",
"126 286 OFFCURVE",
"162 341 OFFCURVE",
"209 370 CURVE",
"152 392 OFFCURVE",
"89 437 OFFCURVE",
"89 501 CURVE SMOOTH",
"89 544 OFFCURVE",
"105 583 OFFCURVE",
"134 601 CURVE",
"16 601 LINE",
"16 660 LINE",
"851 660 LINE",
"851 601 LINE",
"224 601 LINE",
"193 578 OFFCURVE",
"164 545 OFFCURVE",
"164 501 CURVE SMOOTH",
"164 446 OFFCURVE",
"233 409 OFFCURVE",
"300 409 CURVE SMOOTH",
"383 409 LINE",
"383 343 LINE",
"323 343 LINE SMOOTH",
"252 343 OFFCURVE",
"201 282 OFFCURVE",
"201 218 CURVE SMOOTH",
"201 145 OFFCURVE",
"295 99 OFFCURVE",
"383 99 CURVE SMOOTH",
"462 99 OFFCURVE",
"524 130 OFFCURVE",
"572 165 CURVE",
"518 212 OFFCURVE",
"467 275 OFFCURVE",
"467 357 CURVE SMOOTH",
"467 435 OFFCURVE",
"536 501 OFFCURVE"
);
}
);
};
layerId = "90FEB760-6DE5-46E5-A8E9-582C63BAB3AD";
name = Regular;
width = 830;
}
);
},
{
export = 0;
glyphname = "cha-deva_halant-deva_va-deva.001";
lastChange = "2014-08-27 12:04:38 +0100";
layers = (
{
background = {
anchors = (
{
name = DVAnchor0;
position = "{544, -102}";
}
);
paths = (
{
closed = 1;
nodes = (
"604 501 CURVE SMOOTH",
"564 501 OFFCURVE",
"520 482 OFFCURVE",
"520 449 CURVE SMOOTH",
"520 401 OFFCURVE",
"563 368 OFFCURVE",
"604 350 CURVE",
"643 368 OFFCURVE",
"679 406 OFFCURVE",
"679 455 CURVE SMOOTH",
"679 484 OFFCURVE",
"640 501 OFFCURVE"
);
},
{
closed = 1;
nodes = (
"203 363 CURVE SMOOTH",
"203 310 OFFCURVE",
"294 283 OFFCURVE",
"362 283 CURVE SMOOTH",
"432 283 OFFCURVE",
"493 295 OFFCURVE",
"536 317 CURVE",
"491 346 OFFCURVE",
"445 389 OFFCURVE",
"445 449 CURVE SMOOTH",
"445 508 OFFCURVE",
"500 550 OFFCURVE",
"559 561 CURVE",
"559 601 LINE",
"210 601 LINE",
"185 592 OFFCURVE",
"150 573 OFFCURVE",
"150 548 CURVE SMOOTH",
"150 509 OFFCURVE",
"234 495 OFFCURVE",
"286 495 CURVE SMOOTH",
"354 495 LINE",
"354 435 LINE",
"301 435 LINE SMOOTH",
"250 435 OFFCURVE",
"203 406 OFFCURVE"
);
},
{
closed = 1;
nodes = (
"75 548 CURVE SMOOTH",
"75 568 OFFCURVE",
"91 586 OFFCURVE",
"105 601 CURVE",
"16 601 LINE",
"16 660 LINE",
"805 660 LINE",
"805 601 LINE",
"633 601 LINE",
"633 561 LINE",
"696 555 OFFCURVE",
"755 513 OFFCURVE",
"755 455 CURVE SMOOTH",
"755 382 OFFCURVE",
"645 285 OFFCURVE",
"581 264 CURVE",
"581 -132 LINE",
"505 -132 LINE",
"505 -27 LINE",
"469 -58 OFFCURVE",
"410 -79 OFFCURVE",
"340 -79 CURVE SMOOTH",
"245 -79 OFFCURVE",
"143 -31 OFFCURVE",
"143 47 CURVE SMOOTH",
"143 128 OFFCURVE",
"242 184 OFFCURVE",
"340 184 CURVE SMOOTH",
"379 184 OFFCURVE",
"409 177 OFFCURVE",
"437 165 CURVE",
"437 92 LINE",
"411 108 OFFCURVE",
"379 119 OFFCURVE",
"340 119 CURVE SMOOTH",
"286 119 OFFCURVE",
"226 95 OFFCURVE",
"226 53 CURVE SMOOTH",
"226 8 OFFCURVE",
"285 -20 OFFCURVE",
"340 -20 CURVE SMOOTH",
"412 -20 OFFCURVE",
"470 15 OFFCURVE",
"505 53 CURVE",
"505 238 LINE",
"456 231 OFFCURVE",
"410 223 OFFCURVE",
"362 223 CURVE SMOOTH",
"252 223 OFFCURVE",
"121 274 OFFCURVE",
"121 363 CURVE SMOOTH",
"121 406 OFFCURVE",
"147 440 OFFCURVE",
"181 455 CURVE",
"135 469 OFFCURVE",
"75 501 OFFCURVE"
);
}
);
};
layerId = "90FEB760-6DE5-46E5-A8E9-582C63BAB3AD";
name = Regular;
width = 784;
}
);
},
{
export = 0;
glyphname = "ja-deva_halant-deva.001";
lastChange = "2014-08-27 12:04:38 +0100";
layers = (
{
background = {
paths = (
{
closed = 1;
nodes = (
"16 601 LINE",
"16 660 LINE",
"714 660 LINE",
"714 601 LINE"
);
},
{
closed = 1;
nodes = (
"563 231 CURVE SMOOTH",
"563 146 OFFCURVE",
"492 72 OFFCURVE",
"396 72 CURVE SMOOTH",
"340 72 OFFCURVE",
"281 106 OFFCURVE",
"219 172 CURVE SMOOTH",
"156 238 OFFCURVE",
"102 326 OFFCURVE",
"57 435 CURVE",
"125 462 LINE",
"164 367 OFFCURVE",
"208 290 OFFCURVE",
"258 232 CURVE SMOOTH",
"308 174 OFFCURVE",
"354 145 OFFCURVE",
"396 145 CURVE SMOOTH",
"449 145 OFFCURVE",
"487 185 OFFCURVE",
"487 231 CURVE SMOOTH",
"487 326 OFFCURVE",
"423 400 OFFCURVE",
"359 455 CURVE",
"729 455 LINE",
"729 395 LINE",
"495 395 LINE",
"534 355 OFFCURVE",
"563 300 OFFCURVE"
);
}
);
};
layerId = "90FEB760-6DE5-46E5-A8E9-582C63BAB3AD";
name = Regular;
width = 693;
}
);
},
{
export = 0;
glyphname = "ja-deva_halant-deva_ja-deva.001";
lastChange = "2014-08-27 12:04:38 +0100";
layers = (
{
background = {
paths = (
{
closed = 1;
nodes = (
"537 159 CURVE SMOOTH",
"537 85 OFFCURVE",
"470 20 OFFCURVE",
"386 20 CURVE SMOOTH",
"249 20 OFFCURVE",
"148 107 OFFCURVE",
"91 191 CURVE",
"152 224 LINE",
"192 150 OFFCURVE",
"274 72 OFFCURVE",
"386 72 CURVE SMOOTH",
"435 72 OFFCURVE",
"469 114 OFFCURVE",
"469 159 CURVE SMOOTH",
"469 188 OFFCURVE",
"441 212 OFFCURVE",
"417 224 CURVE",
"718 357 LINE",
"718 442 LINE",
"439 442 LINE",
"451 434 OFFCURVE",
"454 410 OFFCURVE",
"454 389 CURVE SMOOTH",
"454 323 OFFCURVE",
"393 264 OFFCURVE",
"318 264 CURVE SMOOTH",
"270 264 OFFCURVE",
"222 285 OFFCURVE",
"175 327 CURVE SMOOTH",
"128 369 OFFCURVE",
"90 425 OFFCURVE",
"62 495 CURVE",
"130 508 LINE",
"152 453 OFFCURVE",
"180 408 OFFCURVE",
"214 374 CURVE SMOOTH",
"247 340 OFFCURVE",
"279 323 OFFCURVE",
"310 323 CURVE SMOOTH",
"356 323 OFFCURVE",
"378 378 OFFCURVE",
"378 422 CURVE SMOOTH",
"378 455 OFFCURVE",
"360 481 OFFCURVE",
"341 501 CURVE",
"718 501 LINE",
"718 601 LINE",
"16 601 LINE",
"16 660 LINE",
"923 660 LINE",
"923 601 LINE",
"793 601 LINE",
"793 0 LINE",
"718 0 LINE",
"718 290 LINE",
"522 204 LINE",
"531 194 OFFCURVE",
"537 177 OFFCURVE"
);
}
);
};
layerId = "90FEB760-6DE5-46E5-A8E9-582C63BAB3AD";
name = Regular;
width = 901;
}
);
},
{
export = 0;
glyphname = "ja-deva_halant-deva_nya-deva.001";
lastChange = "2014-08-27 12:04:38 +0100";
layers = (
{
background = {
anchors = (
{
name = DVAnchor3;
position = "{688, 659}";
}
);
paths = (
{
closed = 1;
nodes = (
"98 423 CURVE SMOOTH",
"98 473 OFFCURVE",
"152 508 OFFCURVE",
"210 508 CURVE SMOOTH",
"649 508 LINE",
"649 601 LINE",
"16 601 LINE",
"16 660 LINE",
"852 660 LINE",
"852 601 LINE",
"724 601 LINE",
"724 0 LINE",
"649 0 LINE",
"649 442 LINE",
"210 442 LINE SMOOTH",
"195 442 OFFCURVE",
"173 435 OFFCURVE",
"173 422 CURVE SMOOTH",
"173 388 OFFCURVE",
"248 310 OFFCURVE",
"286 310 CURVE SMOOTH",
"340 310 OFFCURVE",
"379 337 OFFCURVE",
"430 337 CURVE SMOOTH",
"482 337 OFFCURVE",
"513 280 OFFCURVE",
"513 231 CURVE SMOOTH",
"513 137 OFFCURVE",
"406 72 OFFCURVE",
"294 72 CURVE",
"315 32 OFFCURVE",
"375 9 OFFCURVE",
"437 0 CURVE",
"385 -47 LINE",
"317 -30 OFFCURVE",
"258 3 OFFCURVE",
"218 47 CURVE",
"152 47 OFFCURVE",
"75 78 OFFCURVE",
"75 132 CURVE SMOOTH",
"75 165 OFFCURVE",
"105 191 OFFCURVE",
"143 191 CURVE SMOOTH",
"154 191 OFFCURVE",
"168 185 OFFCURVE",
"187 172 CURVE SMOOTH",
"206 159 OFFCURVE",
"226 141 OFFCURVE",
"249 119 CURVE",
"329 126 OFFCURVE",
"437 163 OFFCURVE",
"437 231 CURVE SMOOTH",
"437 252 OFFCURVE",
"422 277 OFFCURVE",
"400 277 CURVE SMOOTH",
"362 277 OFFCURVE",
"321 251 OFFCURVE",
"278 251 CURVE SMOOTH",
"247 251 OFFCURVE",
"209 272 OFFCURVE",
"164 314 CURVE SMOOTH",
"120 356 OFFCURVE",
"98 393 OFFCURVE"
);
}
);
};
layerId = "90FEB760-6DE5-46E5-A8E9-582C63BAB3AD";
name = Regular;
width = 832;
}
);
},
{
export = 0;
glyphname = "ja-deva_halant-deva_ra-deva.001";
lastChange = "2014-08-27 12:04:38 +0100";
layers = (
{
background = {
paths = (
{
closed = 1;
nodes = (
"378 218 CURVE SMOOTH",
"420 218 OFFCURVE",
"454 247 OFFCURVE",
"454 283 CURVE SMOOTH",
"454 309 OFFCURVE",
"444 337 OFFCURVE",
"425 368 CURVE SMOOTH",
"405 399 OFFCURVE",
"377 430 OFFCURVE",
"341 462 CURVE",
"665 462 LINE",
"665 601 LINE",
"16 601 LINE",
"16 660 LINE",
"869 660 LINE",
"869 601 LINE",
"741 601 LINE",
"741 0 LINE",
"665 0 LINE",
"665 152 LINE",
"310 -13 LINE",
"281 40 LINE",
"665 211 LINE",
"665 395 LINE",
"477 395 LINE",
"502 365 OFFCURVE",
"529 326 OFFCURVE",
"529 283 CURVE SMOOTH",
"529 212 OFFCURVE",
"460 152 OFFCURVE",
"378 152 CURVE SMOOTH",
"315 152 OFFCURVE",
"254 177 OFFCURVE",
"195 227 CURVE SMOOTH",
"136 278 OFFCURVE",
"89 345 OFFCURVE",
"54 429 CURVE",
"122 455 LINE",
"152 383 OFFCURVE",
"191 325 OFFCURVE",
"237 282 CURVE SMOOTH",
"284 239 OFFCURVE",
"331 218 OFFCURVE"
);
}
);
};
layerId = "90FEB760-6DE5-46E5-A8E9-582C63BAB3AD";
name = Regular;
width = 848;
}
);
},
{
export = 0;
glyphname = "jha-deva_halant-deva.001";
lastChange = "2014-08-27 12:04:38 +0100";
layers = (
{
background = {
paths = (
{
closed = 1;
nodes = (
"340 72 CURVE",
"374 47 OFFCURVE",
"420 24 OFFCURVE",
"468 0 CURVE",
"422 -47 LINE",
"417 -39 OFFCURVE",
"398 -28 OFFCURVE",
"366 -12 CURVE SMOOTH",
"333 4 OFFCURVE",
"304 21 OFFCURVE",
"278 40 CURVE",
"197 40 OFFCURVE",
"75 65 OFFCURVE",
"75 126 CURVE SMOOTH",
"75 157 OFFCURVE",
"107 178 OFFCURVE",
"143 178 CURVE SMOOTH",
"205 178 OFFCURVE",
"253 143 OFFCURVE",
"278 106 CURVE",
"350 123 OFFCURVE",
"453 165 OFFCURVE",
"453 231 CURVE SMOOTH",
"453 261 OFFCURVE",
"426 283 OFFCURVE",
"392 283 CURVE SMOOTH",
"365 283 OFFCURVE",
"290 251 OFFCURVE",
"264 251 CURVE SMOOTH",
"236 251 OFFCURVE",
"200 272 OFFCURVE",
"156 316 CURVE SMOOTH",
"112 359 OFFCURVE",
"90 394 OFFCURVE",
"90 422 CURVE SMOOTH",
"90 468 OFFCURVE",
"142 501 OFFCURVE",
"195 501 CURVE SMOOTH",
"385 501 LINE",
"385 601 LINE",
"16 601 LINE",
"16 660 LINE",
"664 660 LINE",
"664 601 LINE",
"460 601 LINE",
"460 442 LINE",
"195 442 LINE SMOOTH",
"181 442 OFFCURVE",
"166 434 OFFCURVE",
"166 422 CURVE SMOOTH",
"166 386 OFFCURVE",
"223 317 OFFCURVE",
"264 317 CURVE SMOOTH",
"290 317 OFFCURVE",
"365 350 OFFCURVE",
"392 350 CURVE SMOOTH",
"424 350 OFFCURVE",
"449 336 OFFCURVE",
"475 323 CURVE SMOOTH",
"503 309 OFFCURVE",
"543 303 OFFCURVE",
"588 303 CURVE SMOOTH",
"627 303 OFFCURVE",
"656 314 OFFCURVE",
"679 330 CURVE",
"679 264 LINE",
"650 255 OFFCURVE",
"618 244 OFFCURVE",
"588 244 CURVE SMOOTH",
"561 244 OFFCURVE",
"539 246 OFFCURVE",
"520 251 CURVE",
"525 246 OFFCURVE",
"520 225 OFFCURVE",
"520 218 CURVE SMOOTH",
"520 161 OFFCURVE",
"405 72 OFFCURVE"
);
}
);
};
layerId = "90FEB760-6DE5-46E5-A8E9-582C63BAB3AD";
name = Regular;
width = 642;
}
);
},
{
export = 0;
glyphname = "jha-deva_halant-deva_ra-deva.001";
lastChange = "2014-08-27 12:04:38 +0100";
layers = (
{
background = {
paths = (
{
closed = 1;
nodes = (
"264 323 CURVE SMOOTH",
"287 323 OFFCURVE",
"369 343 OFFCURVE",
"392 343 CURVE SMOOTH",
"422 343 OFFCURVE",
"452 341 OFFCURVE",
"468 330 CURVE SMOOTH",
"495 313 OFFCURVE",
"534 303 OFFCURVE",
"581 303 CURVE SMOOTH",
"615 303 OFFCURVE",
"648 318 OFFCURVE",
"679 330 CURVE",
"679 601 LINE",
"468 601 LINE",
"468 442 LINE",
"203 442 LINE SMOOTH",
"187 442 OFFCURVE",
"166 435 OFFCURVE",
"166 422 CURVE SMOOTH",
"166 393 OFFCURVE",
"231 323 OFFCURVE"
);
},
{
closed = 1;
nodes = (
"90 422 CURVE SMOOTH",
"90 469 OFFCURVE",
"147 501 OFFCURVE",
"203 501 CURVE SMOOTH",
"392 501 LINE",
"392 601 LINE",
"16 601 LINE",
"16 660 LINE",
"883 660 LINE",
"883 601 LINE",
"755 601 LINE",
"755 0 LINE",
"679 0 LINE",
"679 106 LINE",
"505 27 LINE",
"468 72 LINE",
"679 159 LINE",
"679 264 LINE",
"654 254 OFFCURVE",
"626 244 OFFCURVE",
"596 244 CURVE SMOOTH",
"561 244 OFFCURVE",
"529 254 OFFCURVE",
"497 264 CURVE",
"497 158 OFFCURVE",
"430 96 OFFCURVE",
"324 79 CURVE",
"362 51 OFFCURVE",
"404 29 OFFCURVE",
"453 13 CURVE",
"400 -47 LINE",
"335 -21 OFFCURVE",
"280 13 OFFCURVE",
"233 53 CURVE",
"166 53 OFFCURVE",
"75 79 OFFCURVE",
"75 132 CURVE SMOOTH",
"75 164 OFFCURVE",
"111 184 OFFCURVE",
"150 184 CURVE SMOOTH",
"205 184 OFFCURVE",
"246 152 OFFCURVE",
"272 119 CURVE",
"339 129 OFFCURVE",
"422 169 OFFCURVE",
"422 231 CURVE SMOOTH",
"422 255 OFFCURVE",
"409 283 OFFCURVE",
"385 283 CURVE SMOOTH",
"359 283 OFFCURVE",
"282 258 OFFCURVE",
"256 258 CURVE SMOOTH",
"228 258 OFFCURVE",
"194 278 OFFCURVE",
"152 320 CURVE SMOOTH",
"111 361 OFFCURVE",
"90 395 OFFCURVE"
);
}
);
};
layerId = "90FEB760-6DE5-46E5-A8E9-582C63BAB3AD";
name = Regular;
width = 862;
}
);
},
{
export = 0;
glyphname = "nya-deva_halant-deva.001";
lastChange = "2014-08-27 12:04:38 +0100";
layers = (
{
background = {
paths = (
{
closed = 1;
nodes = (
"16 601 LINE",
"16 660 LINE",
"568 660 LINE",
"568 601 LINE"
);
},
{
closed = 1;
nodes = (
"492 290 CURVE",
"482 200 OFFCURVE",
"398 119 OFFCURVE",
"287 119 CURVE SMOOTH",
"188 119 OFFCURVE",
"104 174 OFFCURVE",
"46 224 CURVE",
"84 271 LINE",
"135 226 OFFCURVE",
"203 178 OFFCURVE",
"287 178 CURVE SMOOTH",
"365 178 OFFCURVE",
"424 241 OFFCURVE",
"424 310 CURVE SMOOTH",
"424 373 OFFCURVE",
"367 429 OFFCURVE",
"295 429 CURVE SMOOTH",
"252 429 OFFCURVE",
"215 418 OFFCURVE",
"190 402 CURVE",
"152 455 LINE",
"188 478 OFFCURVE",
"238 495 OFFCURVE",
"295 495 CURVE SMOOTH",
"400 495 OFFCURVE",
"475 423 OFFCURVE",
"492 343 CURVE",
"521 334 OFFCURVE",
"546 323 OFFCURVE",
"574 323 CURVE SMOOTH",
"618 323 OFFCURVE",
"656 338 OFFCURVE",
"681 357 CURVE",
"681 297 LINE",
"647 283 OFFCURVE",
"611 271 OFFCURVE",
"568 271 CURVE SMOOTH",
"539 271 OFFCURVE",
"526 279 OFFCURVE"
);
}
);
};
layerId = "90FEB760-6DE5-46E5-A8E9-582C63BAB3AD";
name = Regular;
width = 547;
}
);
},
{
export = 0;
glyphname = "nya-deva_halant-deva_ca-deva.001";
lastChange = "2014-08-27 12:04:38 +0100";
layers = (
{
background = {
paths = (
{
closed = 1;
nodes = (
"282 561 CURVE SMOOTH",
"365 561 OFFCURVE",
"436 517 OFFCURVE",
"448 455 CURVE",
"659 455 LINE",
"659 601 LINE",
"16 601 LINE",
"16 660 LINE",
"864 660 LINE",
"864 601 LINE",
"736 601 LINE",
"736 0 LINE",
"659 0 LINE",
"659 119 LINE",
"614 81 OFFCURVE",
"571 52 OFFCURVE",
"529 31 CURVE SMOOTH",
"487 10 OFFCURVE",
"450 0 OFFCURVE",
"418 0 CURVE SMOOTH",
"354 0 OFFCURVE",
"304 55 OFFCURVE",
"304 112 CURVE SMOOTH",
"304 131 OFFCURVE",
"310 148 OFFCURVE",
"319 159 CURVE",
"183 92 LINE",
"139 139 LINE",
"463 297 LINE",
"493 238 LINE",
"435 219 OFFCURVE",
"372 175 OFFCURVE",
"372 112 CURVE SMOOTH",
"372 87 OFFCURVE",
"391 59 OFFCURVE",
"418 59 CURVE SMOOTH",
"451 59 OFFCURVE",
"489 71 OFFCURVE",
"531 95 CURVE SMOOTH",
"574 119 OFFCURVE",
"616 153 OFFCURVE",
"659 196 CURVE",
"659 395 LINE",
"448 395 LINE",
"434 327 OFFCURVE",
"359 271 OFFCURVE",
"267 271 CURVE SMOOTH",
"171 271 OFFCURVE",
"96 313 OFFCURVE",
"48 363 CURVE",
"93 409 LINE",
"128 367 OFFCURVE",
"189 330 OFFCURVE",
"267 330 CURVE SMOOTH",
"327 330 OFFCURVE",
"372 381 OFFCURVE",
"372 435 CURVE SMOOTH",
"372 470 OFFCURVE",
"337 495 OFFCURVE",
"296 495 CURVE SMOOTH",
"253 495 OFFCURVE",
"216 478 OFFCURVE",
"183 462 CURVE",
"146 521 LINE",
"186 542 OFFCURVE",
"229 561 OFFCURVE"
);
}
);
};
layerId = "90FEB760-6DE5-46E5-A8E9-582C63BAB3AD";
name = Regular;
width = 842;
}
);
},
{
export = 0;
glyphname = "nya-deva_halant-deva_ja-deva.001";
lastChange = "2014-08-27 12:04:38 +0100";
layers = (
{
background = {
paths = (
{
closed = 1;
nodes = (
"296 561 CURVE SMOOTH",
"380 561 OFFCURVE",
"451 517 OFFCURVE",
"463 455 CURVE",
"659 455 LINE",
"659 601 LINE",
"32 601 LINE",
"32 660 LINE",
"864 660 LINE",
"864 601 LINE",
"736 601 LINE",
"736 0 LINE",
"659 0 LINE",
"659 277 LINE",
"509 204 LINE",
"526 192 OFFCURVE",
"538 171 OFFCURVE",
"538 145 CURVE SMOOTH",
"538 53 OFFCURVE",
"435 -13 OFFCURVE",
"327 -13 CURVE SMOOTH",
"282 -13 OFFCURVE",
"235 3 OFFCURVE",
"188 35 CURVE SMOOTH",
"141 66 OFFCURVE",
"99 110 OFFCURVE",
"63 165 CURVE",
"123 191 LINE",
"152 146 OFFCURVE",
"185 111 OFFCURVE",
"222 85 CURVE SMOOTH",
"259 59 OFFCURVE",
"294 47 OFFCURVE",
"327 47 CURVE SMOOTH",
"394 47 OFFCURVE",
"455 88 OFFCURVE",
"455 145 CURVE SMOOTH",
"455 176 OFFCURVE",
"409 203 OFFCURVE",
"380 218 CURVE",
"659 337 LINE",
"659 395 LINE",
"463 395 LINE",
"450 328 OFFCURVE",
"379 271 OFFCURVE",
"290 271 CURVE SMOOTH",
"194 271 OFFCURVE",
"118 313 OFFCURVE",
"71 363 CURVE",
"116 409 LINE",
"150 367 OFFCURVE",
"212 330 OFFCURVE",
"290 330 CURVE SMOOTH",
"347 330 OFFCURVE",
"387 377 OFFCURVE",
"387 429 CURVE SMOOTH",
"387 469 OFFCURVE",
"344 495 OFFCURVE",
"296 495 CURVE SMOOTH",
"267 495 OFFCURVE",
"233 476 OFFCURVE",
"206 462 CURVE",
"161 514 LINE",
"194 539 OFFCURVE",
"241 561 OFFCURVE"
);
}
);
};
layerId = "90FEB760-6DE5-46E5-A8E9-582C63BAB3AD";
name = Regular;
width = 842;
}
);
},
{
export = 0;
glyphname = "nya-deva_halant-deva_ra-deva.001";
lastChange = "2014-08-27 12:04:38 +0100";
layers = (
{
background = {
paths = (
{
closed = 1;
nodes = (
"497 290 CURVE",
"479 200 OFFCURVE",
"394 119 OFFCURVE",
"278 119 CURVE SMOOTH",
"177 119 OFFCURVE",
"100 183 OFFCURVE",
"53 244 CURVE",
"105 290 LINE",
"138 240 OFFCURVE",
"199 184 OFFCURVE",
"278 184 CURVE SMOOTH",
"358 184 OFFCURVE",
"422 247 OFFCURVE",
"422 317 CURVE SMOOTH",
"422 376 OFFCURVE",
"368 429 OFFCURVE",
"301 429 CURVE SMOOTH",
"246 429 OFFCURVE",
"200 405 OFFCURVE",
"173 377 CURVE",
"121 429 LINE",
"163 466 OFFCURVE",
"223 495 OFFCURVE",
"301 495 CURVE SMOOTH",
"400 495 OFFCURVE",
"476 429 OFFCURVE",
"497 357 CURVE",
"511 342 OFFCURVE",
"541 337 OFFCURVE",
"573 337 CURVE SMOOTH",
"617 337 OFFCURVE",
"655 346 OFFCURVE",
"679 363 CURVE",
"679 601 LINE",
"16 601 LINE",
"16 660 LINE",
"883 660 LINE",
"883 601 LINE",
"755 601 LINE",
"755 0 LINE",
"679 0 LINE",
"679 124 LINE",
"340 -33 LINE",
"309 20 LINE",
"679 184 LINE",
"679 290 LINE",
"647 281 OFFCURVE",
"610 271 OFFCURVE",
"573 271 CURVE SMOOTH",
"544 271 OFFCURVE",
"520 281 OFFCURVE"
);
}
);
};
layerId = "90FEB760-6DE5-46E5-A8E9-582C63BAB3AD";
name = Regular;
width = 862;
}
);
},
{
export = 0;
glyphname = "tta-deva_halant-deva_yadeva.001";
lastChange = "2014-08-27 12:04:38 +0100";
layers = (
{
background = {
anchors = (
{
name = DVAnchor0;
position = "{1254, 23}";
}
);
paths = (
{
closed = 1;
nodes = (
"865 264 CURVE",
"887 208 OFFCURVE",
"950 159 OFFCURVE",
"1032 159 CURVE SMOOTH",
"1109 159 OFFCURVE",
"1172 201 OFFCURVE",
"1212 244 CURVE",
"1212 601 LINE",
"547 601 LINE",
"547 469 LINE",
"633 495 OFFCURVE",
"727 514 OFFCURVE",
"834 514 CURVE SMOOTH",
"939 514 OFFCURVE",
"1061 467 OFFCURVE",
"1061 383 CURVE SMOOTH",
"1061 293 OFFCURVE",
"976 264 OFFCURVE"
);
},
{
closed = 1;
nodes = (
"80 264 CURVE SMOOTH",
"80 380 OFFCURVE",
"201 469 OFFCURVE",
"336 469 CURVE SMOOTH",
"472 469 LINE",
"472 601 LINE",
"16 601 LINE",
"16 660 LINE",
"1416 660 LINE",
"1416 601 LINE",
"1288 601 LINE",
"1288 0 LINE",
"1212 0 LINE",
"1212 165 LINE",
"1175 125 OFFCURVE",
"1110 99 OFFCURVE",
"1032 99 CURVE SMOOTH",
"889 99 OFFCURVE",
"790 211 OFFCURVE",
"766 323 CURVE",
"910 323 LINE SMOOTH",
"950 323 OFFCURVE",
"986 348 OFFCURVE",
"986 383 CURVE SMOOTH",
"986 432 OFFCURVE",
"898 455 OFFCURVE",
"834 455 CURVE SMOOTH",
"727 455 OFFCURVE",
"633 435 OFFCURVE",
"547 409 CURVE",
"336 409 LINE SMOOTH",
"239 409 OFFCURVE",
"155 347 OFFCURVE",
"155 264 CURVE SMOOTH",
"155 155 OFFCURVE",
"269 72 OFFCURVE",
"396 72 CURVE SMOOTH",
"481 72 OFFCURVE",
"548 119 OFFCURVE",
"593 165 CURVE",
"646 126 LINE",
"590 68 OFFCURVE",
"506 13 OFFCURVE",
"396 13 CURVE SMOOTH",
"229 13 OFFCURVE",
"80 120 OFFCURVE"
);
}
);
};
layerId = "90FEB760-6DE5-46E5-A8E9-582C63BAB3AD";
name = Regular;
width = 1395;
}
);
},
{
export = 0;
glyphname = "tta-deva_halant-deva.001";
lastChange = "2014-08-27 12:04:38 +0100";
layers = (
{
background = {
paths = (
{
closed = 1;
nodes = (
"346 -119 LINE",
"301 -72 LINE",
"400 -27 LINE",
"672 -204 LINE",
"627 -244 LINE",
"400 -86 LINE"
);
},
{
closed = 1;
nodes = (
"656 126 LINE",
"613 61 OFFCURVE",
"515 13 OFFCURVE",
"400 13 CURVE SMOOTH",
"226 13 OFFCURVE",
"82 138 OFFCURVE",
"82 290 CURVE SMOOTH",
"82 384 OFFCURVE",
"158 469 OFFCURVE",
"264 469 CURVE SMOOTH",
"468 469 LINE",
"468 601 LINE",
"16 601 LINE",
"16 660 LINE",
"688 660 LINE",
"688 601 LINE",
"543 601 LINE",
"543 402 LINE",
"264 402 LINE SMOOTH",
"201 402 OFFCURVE",
"158 347 OFFCURVE",
"158 290 CURVE SMOOTH",
"158 175 OFFCURVE",
"268 79 OFFCURVE",
"400 79 CURVE SMOOTH",
"490 79 OFFCURVE",
"561 119 OFFCURVE",
"596 171 CURVE"
);
}
);
};
layerId = "90FEB760-6DE5-46E5-A8E9-582C63BAB3AD";
name = Regular;
width = 667;
}
);
},
{
export = 0;
glyphname = "tta-deva_halant-deva_tta-deva.001";
lastChange = "2014-08-27 12:04:38 +0100";
layers = (
{
background = {
anchors = (
{
name = DVAnchor0;
position = "{380, -116}";
}
);
paths = (
{
closed = 1;
nodes = (
"90 409 CURVE SMOOTH",
"90 472 OFFCURVE",
"166 514 OFFCURVE",
"241 514 CURVE SMOOTH",
"468 514 LINE",
"468 601 LINE",
"16 601 LINE",
"16 660 LINE",
"677 660 LINE",
"677 601 LINE",
"543 601 LINE",
"543 455 LINE",
"241 455 LINE SMOOTH",
"206 455 OFFCURVE",
"166 437 OFFCURVE",
"166 409 CURVE SMOOTH",
"166 320 OFFCURVE",
"286 283 OFFCURVE",
"400 283 CURVE SMOOTH",
"480 283 OFFCURVE",
"547 307 OFFCURVE",
"588 343 CURVE",
"641 297 LINE",
"617 276 OFFCURVE",
"580 260 OFFCURVE",
"543 244 CURVE",
"543 99 LINE",
"241 99 LINE SMOOTH",
"199 99 OFFCURVE",
"166 69 OFFCURVE",
"166 33 CURVE SMOOTH",
"166 -44 OFFCURVE",
"288 -86 OFFCURVE",
"385 -86 CURVE SMOOTH",
"471 -86 OFFCURVE",
"540 -55 OFFCURVE",
"581 -13 CURVE",
"633 -59 LINE",
"578 -108 OFFCURVE",
"491 -145 OFFCURVE",
"385 -145 CURVE SMOOTH",
"247 -145 OFFCURVE",
"90 -79 OFFCURVE",
"90 33 CURVE SMOOTH",
"90 102 OFFCURVE",
"160 159 OFFCURVE",
"241 159 CURVE SMOOTH",
"468 159 LINE",
"468 231 LINE",
"449 227 OFFCURVE",
"424 224 OFFCURVE",
"400 224 CURVE SMOOTH",
"240 224 OFFCURVE",
"90 281 OFFCURVE"
);
}
);
};
layerId = "90FEB760-6DE5-46E5-A8E9-582C63BAB3AD";
name = Regular;
width = 655;
}
);
},
{
export = 0;
glyphname = "tta-deva_halant-deva_ttha-deva.001";
lastChange = "2014-08-27 12:04:38 +0100";
layers = (
{
background = {
anchors = (
{
name = DVAnchor0;
position = "{384, -100}";
}
);
paths = (
{
closed = 1;
nodes = (
"552 0 CURVE SMOOTH",
"552 42 OFFCURVE",
"519 71 OFFCURVE",
"484 86 CURVE",
"510 106 LINE",
"250 106 LINE SMOOTH",
"207 106 OFFCURVE",
"167 82 OFFCURVE",
"167 47 CURVE SMOOTH",
"167 -35 OFFCURVE",
"292 -79 OFFCURVE",
"394 -79 CURVE SMOOTH",
"461 -79 OFFCURVE",
"552 -53 OFFCURVE"
);
},
{
closed = 1;
nodes = (
"91 402 CURVE SMOOTH",
"91 469 OFFCURVE",
"171 514 OFFCURVE",
"250 514 CURVE SMOOTH",
"484 514 LINE",
"484 601 LINE",
"16 601 LINE",
"16 660 LINE",
"704 660 LINE",
"704 601 LINE",
"560 601 LINE",
"560 455 LINE",
"250 455 LINE SMOOTH",
"209 455 OFFCURVE",
"167 436 OFFCURVE",
"167 402 CURVE SMOOTH",
"167 315 OFFCURVE",
"295 283 OFFCURVE",
"409 283 CURVE SMOOTH",
"490 283 OFFCURVE",
"556 307 OFFCURVE",
"597 343 CURVE",
"650 297 LINE",
"625 276 OFFCURVE",
"596 258 OFFCURVE",
"560 251 CURVE",
"560 110 LINE",
"600 93 OFFCURVE",
"628 51 OFFCURVE",
"628 0 CURVE SMOOTH",
"628 -87 OFFCURVE",
"502 -139 OFFCURVE",
"394 -139 CURVE SMOOTH",
"251 -139 OFFCURVE",
"91 -70 OFFCURVE",
"91 47 CURVE SMOOTH",
"91 115 OFFCURVE",
"170 165 OFFCURVE",
"250 165 CURVE SMOOTH",
"484 165 LINE",
"484 231 LINE",
"463 226 OFFCURVE",
"437 224 OFFCURVE",
"409 224 CURVE SMOOTH",
"250 224 OFFCURVE",
"91 277 OFFCURVE"
);
}
);
};
layerId = "90FEB760-6DE5-46E5-A8E9-582C63BAB3AD";
name = Regular;
width = 682;
}
);
},
{
export = 0;
glyphname = "tta-deva_halant-deva_va-deva.001";
lastChange = "2014-08-27 12:04:38 +0100";
layers = (
{
background = {
anchors = (
{
name = DVAnchor0;
position = "{503, -145}";
}
);
paths = (
{
closed = 1;
nodes = (
"91 402 CURVE SMOOTH",
"91 467 OFFCURVE",
"166 514 OFFCURVE",
"242 514 CURVE SMOOTH",
"462 514 LINE",
"462 601 LINE",
"16 601 LINE",
"16 660 LINE",
"677 660 LINE",
"677 601 LINE",
"537 601 LINE",
"537 455 LINE",
"242 455 LINE SMOOTH",
"203 455 OFFCURVE",
"167 435 OFFCURVE",
"167 402 CURVE SMOOTH",
"167 321 OFFCURVE",
"298 277 OFFCURVE",
"401 277 CURVE SMOOTH",
"482 277 OFFCURVE",
"547 305 OFFCURVE",
"590 343 CURVE",
"642 303 LINE",
"612 277 OFFCURVE",
"577 255 OFFCURVE",
"537 238 CURVE",
"537 -171 LINE",
"462 -171 LINE",
"462 -40 LINE",
"425 -71 OFFCURVE",
"366 -92 OFFCURVE",
"295 -92 CURVE SMOOTH",
"194 -92 OFFCURVE",
"91 -38 OFFCURVE",
"91 47 CURVE SMOOTH",
"91 127 OFFCURVE",
"197 178 OFFCURVE",
"295 178 CURVE SMOOTH",
"334 178 OFFCURVE",
"366 170 OFFCURVE",
"394 159 CURVE",
"394 86 LINE",
"366 101 OFFCURVE",
"334 112 OFFCURVE",
"295 112 CURVE SMOOTH",
"239 112 OFFCURVE",
"167 91 OFFCURVE",
"167 47 CURVE SMOOTH",
"167 -1 OFFCURVE",
"236 -27 OFFCURVE",
"295 -27 CURVE SMOOTH",
"368 -27 OFFCURVE",
"427 8 OFFCURVE",
"462 47 CURVE",
"462 224 LINE",
"443 221 OFFCURVE",
"423 218 OFFCURVE",
"401 218 CURVE SMOOTH",
"241 218 OFFCURVE",
"91 274 OFFCURVE"
);
}
);
};
layerId = "90FEB760-6DE5-46E5-A8E9-582C63BAB3AD";
name = Regular;
width = 655;
}
);
},
{
export = 0;
glyphname = "ttha-deva_viraamdeva_yadeva.001";
lastChange = "2014-08-27 12:04:38 +0100";
layers = (
{
background = {
paths = (
{
closed = 1;
nodes = (
"889 264 CURVE",
"911 210 OFFCURVE",
"975 165 OFFCURVE",
"1055 165 CURVE SMOOTH",
"1129 165 OFFCURVE",
"1188 216 OFFCURVE",
"1229 258 CURVE",
"1229 601 LINE",
"549 601 LINE",
"549 469 LINE",
"649 500 OFFCURVE",
"756 528 OFFCURVE",
"874 528 CURVE SMOOTH",
"975 528 OFFCURVE",
"1070 468 OFFCURVE",
"1070 383 CURVE SMOOTH",
"1070 295 OFFCURVE",
"996 264 OFFCURVE"
);
},
{
closed = 1;
nodes = (
"81 297 CURVE SMOOTH",
"81 396 OFFCURVE",
"185 469 OFFCURVE",
"300 469 CURVE SMOOTH",
"473 469 LINE",
"473 601 LINE",
"16 601 LINE",
"16 660 LINE",
"1433 660 LINE",
"1433 601 LINE",
"1305 601 LINE",
"1305 0 LINE",
"1229 0 LINE",
"1229 171 LINE",
"1191 132 OFFCURVE",
"1132 99 OFFCURVE",
"1055 99 CURVE SMOOTH",
"913 99 OFFCURVE",
"813 211 OFFCURVE",
"791 323 CURVE",
"911 323 LINE SMOOTH",
"954 323 OFFCURVE",
"995 347 OFFCURVE",
"995 383 CURVE SMOOTH",
"995 431 OFFCURVE",
"932 462 OFFCURVE",
"874 462 CURVE SMOOTH",
"754 462 OFFCURVE",
"654 439 OFFCURVE",
"556 409 CURVE",
"300 409 LINE SMOOTH",
"226 409 OFFCURVE",
"157 361 OFFCURVE",
"157 297 CURVE SMOOTH",
"157 180 OFFCURVE",
"265 79 OFFCURVE",
"399 79 CURVE SMOOTH",
"488 79 OFFCURVE",
"579 129 OFFCURVE",
"579 204 CURVE SMOOTH",
"579 227 OFFCURVE",
"569 251 OFFCURVE",
"549 277 CURVE SMOOTH",
"530 304 OFFCURVE",
"502 330 OFFCURVE",
"467 357 CURVE",
"519 402 LINE",
"586 360 OFFCURVE",
"655 293 OFFCURVE",
"655 204 CURVE SMOOTH",
"655 94 OFFCURVE",
"529 13 OFFCURVE",
"399 13 CURVE SMOOTH",
"223 13 OFFCURVE",
"81 143 OFFCURVE"
);
}
);
};
layerId = "90FEB760-6DE5-46E5-A8E9-582C63BAB3AD";
name = Regular;
width = 1412;
}
);
},
{
export = 0;
glyphname = "ttha-deva_viraamdeva_ttha-deva.001";
lastChange = "2014-08-27 12:04:38 +0100";
layers = (
{
background = {
anchors = (
{
name = DVAnchor0;
position = "{393, -105}";
}
);
paths = (
{
closed = 1;
nodes = (
"573 363 CURVE SMOOTH",
"573 399 OFFCURVE",
"539 425 OFFCURVE",
"505 435 CURVE",
"528 455 LINE",
"241 455 LINE SMOOTH",
"200 455 OFFCURVE",
"166 431 OFFCURVE",
"166 395 CURVE SMOOTH",
"166 319 OFFCURVE",
"282 277 OFFCURVE",
"377 277 CURVE SMOOTH",
"457 277 OFFCURVE",
"573 303 OFFCURVE"
);
},
{
closed = 1;
nodes = (
"573 0 CURVE SMOOTH",
"573 40 OFFCURVE",
"546 72 OFFCURVE",
"513 86 CURVE",
"543 106 LINE",
"249 106 LINE SMOOTH",
"204 106 OFFCURVE",
"166 78 OFFCURVE",
"166 40 CURVE SMOOTH",
"166 -36 OFFCURVE",
"282 -79 OFFCURVE",
"377 -79 CURVE SMOOTH",
"454 -79 OFFCURVE",
"573 -57 OFFCURVE"
);
},
{
closed = 1;
nodes = (
"90 395 CURVE SMOOTH",
"90 463 OFFCURVE",
"162 514 OFFCURVE",
"241 514 CURVE SMOOTH",
"483 514 LINE",
"483 601 LINE",
"16 601 LINE",
"16 660 LINE",
"728 660 LINE",
"728 601 LINE",
"559 601 LINE",
"559 482 LINE",
"565 489 LINE",
"611 466 OFFCURVE",
"649 421 OFFCURVE",
"649 363 CURVE SMOOTH",
"649 312 OFFCURVE",
"601 272 OFFCURVE",
"559 251 CURVE",
"559 116 LINE",
"573 126 LINE",
"615 101 OFFCURVE",
"649 56 OFFCURVE",
"649 0 CURVE SMOOTH",
"649 -96 OFFCURVE",
"498 -145 OFFCURVE",
"377 -145 CURVE SMOOTH",
"239 -145 OFFCURVE",
"90 -74 OFFCURVE",
"90 40 CURVE SMOOTH",
"90 111 OFFCURVE",
"166 165 OFFCURVE",
"249 165 CURVE SMOOTH",
"483 165 LINE",
"483 231 LINE",
"454 225 OFFCURVE",
"418 224 OFFCURVE",
"377 224 CURVE SMOOTH",
"244 224 OFFCURVE",
"90 287 OFFCURVE"
);
}
);
};
layerId = "90FEB760-6DE5-46E5-A8E9-582C63BAB3AD";
name = Regular;
width = 707;
}
);
},
{
export = 0;
glyphname = "ttha-deva_halant-deva.001";
lastChange = "2014-08-27 12:04:38 +0100";
layers = (
{
background = {
paths = (
{
closed = 1;
nodes = (
"345 -112 LINE",
"315 -59 LINE",
"399 -27 LINE",
"670 -204 LINE",
"624 -244 LINE",
"399 -86 LINE"
);
},
{
closed = 1;
nodes = (
"632 218 CURVE SMOOTH",
"632 104 OFFCURVE",
"528 7 OFFCURVE",
"399 7 CURVE SMOOTH",
"320 7 OFFCURVE",
"247 37 OFFCURVE",
"181 96 CURVE SMOOTH",
"114 155 OFFCURVE",
"81 220 OFFCURVE",
"81 290 CURVE SMOOTH",
"81 389 OFFCURVE",
"166 475 OFFCURVE",
"277 475 CURVE SMOOTH",
"467 475 LINE",
"467 601 LINE",
"16 601 LINE",
"16 660 LINE",
"701 660 LINE",
"701 601 LINE",
"542 601 LINE",
"542 409 LINE",
"277 409 LINE SMOOTH",
"208 409 OFFCURVE",
"157 352 OFFCURVE",
"157 290 CURVE SMOOTH",
"157 186 OFFCURVE",
"279 72 OFFCURVE",
"399 72 CURVE SMOOTH",
"487 72 OFFCURVE",
"556 139 OFFCURVE",
"556 218 CURVE SMOOTH",
"556 264 OFFCURVE",
"534 301 OFFCURVE",
"504 323 CURVE",
"564 363 LINE",
"604 333 OFFCURVE",
"632 281 OFFCURVE"
);
}
);
};
layerId = "90FEB760-6DE5-46E5-A8E9-582C63BAB3AD";
name = Regular;
width = 680;
}
);
},
